<?xml version="1.0" standalone="no"?>
<!DOCTYPE svg PUBLIC "-//W3C//DTD SVG 1.1//EN" "http://www.w3.org/Graphics/SVG/1.1/DTD/svg11.dtd" >
<svg xmlns="http://www.w3.org/2000/svg" xmlns:xlink="http://www.w3.org/1999/xlink" version="1.1">
<metadata>
Created by FontForge 20190801 at Fri Oct 16 05:03:38 2020
 By Unknown
Copyright \(c\) 2020 by Grilli Type. All rights reserved.
</metadata>
<defs>
<font id="GTFlexa-Lt" horiz-adv-x="620" >
  <font-face 
    font-family="GT Flexa Lt"
    font-weight="300"
    font-stretch="normal"
    units-per-em="1000"
    panose-1="0 0 4 0 0 0 0 0 0 0"
    ascent="800"
    descent="-200"
    x-height="475"
    cap-height="700"
    bbox="-403 -194 1174 966"
    underline-thickness="50"
    underline-position="-100"
    stemh="80"
    stemv="84"
    unicode-range="U+000D-1F517"
  />
<missing-glyph horiz-adv-x="1117" 
d="M1024 830v-34c-177 -21 -293 -127 -334 -300h13c148 0 300 -190 300 -375c0 -108 -42 -164 -120 -164c-129 0 -244 187 -244 389c0 38 2 74 7 108c-80 -21 -146 -86 -182 -175c98 -44 184 -195 184 -344c0 -75 -36 -125 -90 -125c-91 0 -160 133 -160 308
c0 49 7 96 21 139c-4 1 -7 1 -11 1c-47 0 -90 -26 -121 -69c37 -41 60 -114 60 -201c0 -94 -24 -143 -70 -143c-50 0 -80 56 -80 151c0 71 18 136 47 186c-10 7 -20 11 -31 11c-45 0 -86 -58 -86 -122h-35c0 83 57 156 121 156c18 0 34 -6 50 -16c37 50 89 81 145 81
c8 0 15 -1 23 -2c43 105 124 181 222 201c40 196 169 315 371 339zM703 461c-7 0 -13 0 -20 -1c-6 -35 -9 -74 -9 -114c0 -182 99 -354 209 -354c55 0 85 44 85 129c0 168 -134 340 -265 340zM613 -65c0 131 -77 273 -161 312c-12 -39 -19 -83 -19 -129
c0 -151 56 -273 125 -273c35 0 55 32 55 90zM313 -12c0 69 -18 133 -45 170c-23 -44 -37 -100 -37 -162c0 -71 19 -117 48 -117c23 0 34 36 34 109z" />
    <glyph glyph-name="f_f" unicode="ff" horiz-adv-x="716" 
d="M747 547h-80v8c0 58 -26 89 -75 89c-51 0 -80 -34 -80 -93v-76h184v-72h-184v-403h-80v406h-235v-406h-79v403h-102v72h102v51c0 120 79 188 194 188c68 0 118 -25 146 -66c28 42 74 66 134 66c101 0 155 -55 155 -157v-10zM197 526v-51h235v56c0 72 -41 112 -114 112
c-75 0 -121 -40 -121 -117z" />
    <glyph glyph-name="f_f_i" unicode="ffi" horiz-adv-x="909" 
d="M511 522v-47h314v-475h-80v406h-234v-406h-80v406h-234v-406h-79v403h-102v72h102v51c0 120 79 188 193 188c76 0 128 -30 154 -77c34 48 94 77 174 77c120 0 196 -59 196 -162h-89c0 63 -44 91 -114 91c-74 0 -121 -45 -121 -121zM197 526v-51h234v56
c0 72 -41 112 -114 112c-74 0 -120 -40 -120 -117z" />
    <glyph glyph-name="f_f_l" unicode="ffl" horiz-adv-x="959" 
d="M592 714c101 0 155 -55 155 -157v-10h-80v8c0 58 -26 89 -75 89c-51 0 -80 -34 -80 -93v-76h184v-72h-184v-403h-80v406h-235v-406h-79v403h-102v72h102v51c0 120 79 188 194 188c68 0 118 -25 146 -66c28 42 74 66 134 66zM797 0v700h80v-700h-80zM197 526v-51h235v56
c0 72 -41 112 -114 112c-75 0 -121 -40 -121 -117z" />
    <glyph glyph-name="f_i" unicode="fi" horiz-adv-x="594" 
d="M198 522v-47h314v-475h-80v406h-234v-406h-80v403h-102v72h102v47c0 113 74 192 202 192c118 0 192 -59 192 -162h-83c0 63 -42 91 -109 91c-75 0 -122 -45 -122 -121z" />
    <glyph glyph-name="f_l" unicode="fl" horiz-adv-x="645" 
d="M278 714c101 0 156 -55 156 -157v-10h-80v8c0 58 -27 89 -76 89c-51 0 -80 -34 -80 -93v-76h184v-72h-184v-403h-80v403h-102v72h102v76c0 99 63 163 160 163zM483 0v700h80v-700h-80z" />
    <glyph glyph-name="g_j.liga" unicode="gj" horiz-adv-x="823" 
d="M748 556h-92v117h92v-117zM267 -192c-139 0 -214 69 -220 192h80c5 -76 53 -120 140 -120c93 0 146 54 146 150v13l28 133h-13c-28 -104 -93 -146 -171 -146c-72 0 -132 29 -169 83c-27 38 -41 88 -41 146c0 59 14 108 41 147c37 53 97 83 169 83c78 0 143 -43 171 -147
h13l-28 133h80v-417c0 -166 -76 -250 -226 -250zM596 -192h-21v71h21c49 0 65 26 65 79v517h80v-516c0 -101 -43 -151 -145 -151zM272 100c48 0 88 19 113 55c20 29 29 63 29 104c0 42 -9 75 -29 105c-25 35 -65 55 -113 55c-49 0 -88 -20 -113 -55
c-21 -30 -30 -63 -30 -105c0 -41 9 -75 30 -104c25 -36 64 -55 113 -55z" />
    <glyph glyph-name="j_j.liga" unicode="jj" horiz-adv-x="506" 
d="M178 556h-92v117h92v-117zM432 556h-93v117h93v-117zM26 -192h-20v71h20c49 0 66 26 66 79v517h80v-516c0 -101 -43 -151 -146 -151zM280 -192h-21v71h21c48 0 65 26 65 79v517h80v-516c0 -101 -43 -151 -145 -151z" />
    <glyph glyph-name="q_j.liga" unicode="qj" horiz-adv-x="853" 
d="M778 556h-92v117h92v-117zM518 -180h-79v180l21 133h-14c-26 -97 -91 -147 -182 -147c-74 0 -135 32 -174 89c-29 42 -44 97 -44 163s15 121 44 162c39 57 100 89 174 89c91 0 156 -49 182 -147h14l-21 133h79v-655zM626 -192h-20v71h20c49 0 66 26 66 79v517h80v-516
c0 -101 -43 -151 -146 -151zM284 58c54 0 96 21 123 60c21 30 33 71 33 120s-12 89 -33 119c-27 39 -69 60 -123 60c-53 0 -95 -21 -122 -60c-21 -30 -33 -70 -33 -119s12 -90 33 -120c27 -39 69 -60 122 -60z" />
    <glyph glyph-name=".notdef" horiz-adv-x="1117" 
d="M1024 830v-34c-177 -21 -293 -127 -334 -300h13c148 0 300 -190 300 -375c0 -108 -42 -164 -120 -164c-129 0 -244 187 -244 389c0 38 2 74 7 108c-80 -21 -146 -86 -182 -175c98 -44 184 -195 184 -344c0 -75 -36 -125 -90 -125c-91 0 -160 133 -160 308
c0 49 7 96 21 139c-4 1 -7 1 -11 1c-47 0 -90 -26 -121 -69c37 -41 60 -114 60 -201c0 -94 -24 -143 -70 -143c-50 0 -80 56 -80 151c0 71 18 136 47 186c-10 7 -20 11 -31 11c-45 0 -86 -58 -86 -122h-35c0 83 57 156 121 156c18 0 34 -6 50 -16c37 50 89 81 145 81
c8 0 15 -1 23 -2c43 105 124 181 222 201c40 196 169 315 371 339zM703 461c-7 0 -13 0 -20 -1c-6 -35 -9 -74 -9 -114c0 -182 99 -354 209 -354c55 0 85 44 85 129c0 168 -134 340 -265 340zM613 -65c0 131 -77 273 -161 312c-12 -39 -19 -83 -19 -129
c0 -151 56 -273 125 -273c35 0 55 32 55 90zM313 -12c0 69 -18 133 -45 170c-23 -44 -37 -100 -37 -162c0 -71 19 -117 48 -117c23 0 34 36 34 109z" />
    <glyph glyph-name=".null" horiz-adv-x="0" 
 />
    <glyph glyph-name="CR" unicode="&#xd;" horiz-adv-x="252" 
 />
    <glyph glyph-name="space" unicode=" " horiz-adv-x="252" 
 />
    <glyph glyph-name="A" unicode="A" horiz-adv-x="678" 
d="M657 0h-90l-90 253h-276l-91 -253h-89l256 700h124zM325 599l-95 -266h218l-95 266l-7 48h-14z" />
    <glyph glyph-name="B" unicode="B" horiz-adv-x="607" 
d="M408 357v-14c51 -7 92 -30 115 -70c13 -23 21 -52 21 -86c0 -36 -8 -67 -23 -94c-34 -58 -101 -93 -193 -93h-236v700h236c92 0 159 -35 193 -93c15 -27 23 -58 23 -94c0 -34 -8 -63 -21 -86c-23 -40 -64 -63 -115 -70zM321 620h-145v-232h145c58 0 102 18 122 54
c10 16 15 37 15 61c0 25 -4 46 -15 64c-21 36 -63 53 -122 53zM443 133c11 18 15 39 15 64c0 24 -5 45 -15 61c-21 36 -64 54 -122 54h-145v-232h145c59 0 101 17 122 53z" />
    <glyph glyph-name="C" unicode="C" horiz-adv-x="760" 
d="M385 -15c-145 0 -266 86 -315 220c-16 44 -24 93 -24 145s8 101 24 145c49 134 170 220 323 220c176 0 306 -108 315 -265h-86c-12 111 -104 185 -228 185c-115 0 -203 -67 -241 -170c-12 -35 -19 -74 -19 -115s7 -80 19 -114c38 -104 126 -171 237 -171
c123 0 207 73 221 185h86c-15 -157 -133 -265 -312 -265z" />
    <glyph glyph-name="D" unicode="D" horiz-adv-x="722" 
d="M333 0h-241v700h241c157 0 273 -77 320 -209c14 -42 22 -89 22 -141c0 -53 -8 -101 -23 -143c-47 -131 -162 -207 -319 -207zM176 620v-540h167c111 0 191 61 225 157c13 33 19 71 19 113s-6 80 -19 115c-35 95 -115 155 -225 155h-167z" />
    <glyph glyph-name="E" unicode="E" horiz-adv-x="556" 
d="M493 0h-401v700h401v-80h-317v-229h307v-79h-307v-232h317v-80z" />
    <glyph glyph-name="F" unicode="F" horiz-adv-x="526" 
d="M176 0h-84v700h401v-80h-317v-229h300v-79h-300v-312z" />
    <glyph glyph-name="G" unicode="G" horiz-adv-x="769" 
d="M369 -15c-133 0 -251 80 -298 212c-18 50 -25 104 -25 152c0 50 7 101 24 146c50 134 169 220 326 220c176 0 301 -108 312 -260h-86c-14 110 -103 180 -225 180c-118 0 -206 -67 -244 -170c-12 -35 -19 -74 -19 -116c0 -39 5 -83 19 -121c36 -99 120 -163 228 -163
c125 0 213 83 224 213h-233v79h313v-357h-84l22 173h-14c-32 -119 -118 -188 -240 -188z" />
    <glyph glyph-name="H" unicode="H" horiz-adv-x="721" 
d="M545 391v309h83v-700h-83v312h-369v-312h-84v700h84v-309h369z" />
    <glyph glyph-name="I" unicode="I" horiz-adv-x="268" 
d="M176 0h-84v700h84v-700z" />
    <glyph glyph-name="J" unicode="J" horiz-adv-x="543" 
d="M250 -15c-143 0 -213 77 -213 232v138h84v-138c0 -109 44 -152 129 -152c86 0 127 53 127 166v469h84v-469c0 -161 -73 -246 -211 -246z" />
    <glyph glyph-name="K" unicode="K" horiz-adv-x="632" 
d="M514 700h102l-269 -321l264 -379h-107l-217 316l-111 -130v-186h-84v700h84v-363l-27 -60h14z" />
    <glyph glyph-name="L" unicode="L" horiz-adv-x="518" 
d="M493 0h-401v700h84v-620h317v-80z" />
    <glyph glyph-name="M" unicode="M" horiz-adv-x="908" 
d="M175 0h-83v700h138l208 -581l9 -59h14l8 59l209 581h137v-700h-82v640h-14l-11 -98l-197 -542h-114l-198 542l-11 98h-13v-640z" />
    <glyph glyph-name="N" unicode="N" horiz-adv-x="721" 
d="M176 0h-84v700h131l284 -539l24 -101h14v640h83v-700h-131l-284 539l-23 101h-14v-640z" />
    <glyph glyph-name="O" unicode="O" horiz-adv-x="797" 
d="M399 -15c-157 0 -278 83 -329 220c-17 45 -24 96 -24 145s7 100 24 145c50 134 170 220 329 220c158 0 278 -86 328 -220c17 -45 24 -96 24 -145s-7 -100 -24 -145c-49 -134 -167 -220 -328 -220zM399 65c118 0 206 65 245 171c13 35 19 74 19 114c0 41 -7 80 -19 115
c-38 103 -126 170 -245 170c-120 0 -208 -67 -246 -170c-12 -35 -19 -74 -19 -115s7 -80 19 -114c38 -105 127 -171 246 -171z" />
    <glyph glyph-name="P" unicode="P" horiz-adv-x="586" 
d="M529 605c16 -30 25 -64 25 -105c0 -40 -9 -75 -25 -104c-35 -60 -103 -96 -195 -96h-158v-300h-84v700h242c92 0 160 -35 195 -95zM452 435c12 20 16 41 16 65s-4 46 -16 66c-19 33 -59 54 -120 54h-156v-240h156c61 0 101 22 120 55z" />
    <glyph glyph-name="Q" unicode="Q" horiz-adv-x="797" 
d="M727 495c17 -45 24 -96 24 -145s-7 -100 -24 -145c-44 -120 -143 -201 -278 -217v-42h182v-81h-147c-75 0 -114 25 -114 104v17c-143 10 -252 91 -300 219c-17 45 -24 96 -24 145s7 100 24 145c50 134 170 220 329 220c158 0 278 -86 328 -220zM644 236
c13 35 19 74 19 114c0 41 -7 80 -19 115c-38 103 -126 170 -245 170c-120 0 -208 -67 -246 -170c-12 -35 -19 -74 -19 -115s7 -80 19 -114c38 -105 127 -171 246 -171c118 0 206 65 245 171z" />
    <glyph glyph-name="R" unicode="R" horiz-adv-x="602" 
d="M327 326v-14l24 -14l203 -298h-107l-212 318h-59v-318h-84v700h235c99 0 168 -29 202 -88c16 -28 25 -63 25 -104c0 -37 -8 -69 -23 -96c-34 -59 -109 -86 -204 -86zM336 620h-160v-227h159c57 0 98 17 118 51c10 17 15 40 15 64c0 23 -4 43 -14 59
c-20 36 -60 53 -118 53z" />
    <glyph glyph-name="S" unicode="S" horiz-adv-x="613" 
d="M300 -15c-149 0 -244 86 -244 230v16h89v-10c0 -104 58 -157 158 -157c69 0 114 24 136 63c10 18 16 38 16 61c0 20 -4 37 -12 52c-19 31 -55 53 -114 64l-84 16c-75 14 -129 46 -156 95c-15 26 -23 56 -23 92c0 38 10 72 26 102c38 66 116 106 217 106
c149 0 243 -84 243 -226v-17h-90v11c0 101 -57 153 -156 153c-68 0 -114 -24 -136 -63c-10 -18 -15 -37 -15 -61c0 -19 4 -35 12 -50c19 -32 55 -53 115 -64l83 -17c75 -14 129 -46 156 -95c15 -26 23 -58 23 -93c0 -38 -9 -74 -26 -103c-38 -67 -116 -105 -218 -105z" />
    <glyph glyph-name="T" unicode="T" horiz-adv-x="556" 
d="M11 700h534v-80h-225v-620h-84v620h-225v80z" />
    <glyph glyph-name="U" unicode="U" horiz-adv-x="693" 
d="M347 -15c-163 0 -265 102 -265 266v449h88v-447c0 -114 67 -186 177 -186s177 71 177 186v447h87v-449c0 -164 -101 -266 -264 -266z" />
    <glyph glyph-name="V" unicode="V" horiz-adv-x="630" 
d="M381 0h-132l-238 700h93l200 -606l4 -41h14l4 41l200 606h93z" />
    <glyph glyph-name="W" unicode="W" horiz-adv-x="959" 
d="M340 0h-139l-171 700h91l141 -590l3 -57h14l3 57l129 590h137l129 -590l3 -57h14l3 57l142 590h90l-171 -700h-139l-130 594l-3 46h-13l-3 -46z" />
    <glyph glyph-name="X" unicode="X" horiz-adv-x="636" 
d="M122 0h-105l245 353l-245 347h104l184 -265l6 -36h14l5 36l185 265h104l-245 -347l245 -353h-105l-182 270l-6 35h-14l-7 -35z" />
    <glyph glyph-name="Y" unicode="Y" horiz-adv-x="601" 
d="M490 700h100l-248 -437v-263h-84v263l-247 437h100l179 -328l4 -35h14l3 35z" />
    <glyph glyph-name="Z" unicode="Z" horiz-adv-x="602" 
d="M551 0h-500v129l428 477v14h-428v80h500v-137l-423 -469v-14h423v-80z" />
    <glyph glyph-name="Aacute" unicode="&#xc1;" horiz-adv-x="678" 
d="M372 865h95l-88 -110h-79zM657 0h-90l-90 253h-276l-91 -253h-89l256 700h124zM325 599l-95 -266h218l-95 266l-7 48h-14z" />
    <glyph glyph-name="Abreve" unicode="&#x102;" horiz-adv-x="678" 
d="M340 750c-81 0 -129 36 -147 110h77c2 -30 32 -53 70 -53c37 0 68 23 69 53h77c-17 -74 -66 -110 -146 -110zM657 0h-90l-90 253h-276l-91 -253h-89l256 700h124zM325 599l-95 -266h218l-95 266l-7 48h-14z" />
    <glyph glyph-name="Acircumflex" unicode="&#xc2;" horiz-adv-x="678" 
d="M412 755l-71 66l-73 -66h-92l118 110h92l118 -110h-92zM657 0h-90l-90 253h-276l-91 -253h-89l256 700h124zM325 599l-95 -266h218l-95 266l-7 48h-14z" />
    <glyph glyph-name="Adieresis" unicode="&#xc4;" horiz-adv-x="678" 
d="M194 859h96v-104h-96v104zM390 859h96v-104h-96v104zM657 0h-90l-90 253h-276l-91 -253h-89l256 700h124zM325 599l-95 -266h218l-95 266l-7 48h-14z" />
    <glyph glyph-name="AE" unicode="&#xc6;" horiz-adv-x="864" 
d="M802 700v-80h-287v-229h277v-80h-277v-231h287v-80h-371v263h-186l-132 -263h-92l366 700h415zM405 581l-122 -242h148v295h-14z" />
    <glyph glyph-name="AEacute" unicode="&#x1fc;" horiz-adv-x="864" 
d="M592 865h95l-88 -110h-79zM802 700v-80h-287v-229h277v-80h-277v-231h287v-80h-371v263h-186l-132 -263h-92l366 700h415zM405 581l-122 -242h148v295h-14z" />
    <glyph glyph-name="Agrave" unicode="&#xc0;" horiz-adv-x="678" 
d="M305 865l73 -110h-79l-97 110h103zM657 0h-90l-90 253h-276l-91 -253h-89l256 700h124zM325 599l-95 -266h218l-95 266l-7 48h-14z" />
    <glyph glyph-name="Amacron" unicode="&#x100;" horiz-adv-x="678" 
d="M197 833h285v-61h-285v61zM657 0h-90l-90 253h-276l-91 -253h-89l256 700h124zM325 599l-95 -266h218l-95 266l-7 48h-14z" />
    <glyph glyph-name="Aogonek" unicode="&#x104;" horiz-adv-x="678" 
d="M555 -69c0 -32 30 -54 86 -54v-69c-106 0 -158 48 -158 106c0 45 29 79 79 101l-85 238h-276l-91 -253h-89l256 700h124l256 -700h-36c-43 -18 -66 -38 -66 -69zM325 599l-95 -266h218l-95 266l-7 48h-14z" />
    <glyph glyph-name="Aring" unicode="&#xc5;" horiz-adv-x="678" 
d="M340 750c-62 0 -112 43 -112 108c0 64 50 108 112 108c63 0 112 -44 112 -108c0 -63 -49 -108 -112 -108zM340 914c-34 0 -57 -25 -57 -56s23 -56 57 -56s57 25 57 56s-23 56 -57 56zM657 0h-90l-90 253h-276l-91 -253h-89l256 700h124zM325 599l-95 -266h218l-95 266
l-7 48h-14z" />
    <glyph glyph-name="Atilde" unicode="&#xc3;" horiz-adv-x="678" 
d="M272 799c-25 0 -48 -15 -48 -39h-59c0 77 59 101 107 101c56 0 82 -41 136 -41c25 0 48 14 48 39h58c0 -77 -58 -101 -106 -101c-57 0 -82 41 -136 41zM657 0h-90l-90 253h-276l-91 -253h-89l256 700h124zM325 599l-95 -266h218l-95 266l-7 48h-14z" />
    <glyph glyph-name="Cacute" unicode="&#x106;" horiz-adv-x="760" 
d="M434 755h-79l72 110h95zM385 -15c-145 0 -266 86 -315 220c-16 44 -24 93 -24 145s8 101 24 145c49 134 170 220 323 220c176 0 306 -108 315 -265h-86c-12 111 -104 185 -228 185c-115 0 -203 -67 -241 -170c-12 -35 -19 -74 -19 -115s7 -80 19 -114
c38 -104 126 -171 237 -171c123 0 207 73 221 185h86c-15 -157 -133 -265 -312 -265z" />
    <glyph glyph-name="Ccaron" unicode="&#x10c;" horiz-adv-x="760" 
d="M440 755h-92l-118 110h92l72 -66l72 66h92zM385 -15c-145 0 -266 86 -315 220c-16 44 -24 93 -24 145s8 101 24 145c49 134 170 220 323 220c176 0 306 -108 315 -265h-86c-12 111 -104 185 -228 185c-115 0 -203 -67 -241 -170c-12 -35 -19 -74 -19 -115s7 -80 19 -114
c38 -104 126 -171 237 -171c123 0 207 73 221 185h86c-15 -157 -133 -265 -312 -265z" />
    <glyph glyph-name="Ccedilla" unicode="&#xc7;" horiz-adv-x="760" 
d="M390 65c123 0 207 73 221 185h86c-14 -148 -120 -253 -283 -264l-5 -16c36 -13 54 -39 54 -71c0 -51 -42 -91 -104 -91c-54 0 -111 27 -117 103h61c6 -38 28 -51 54 -51c27 0 46 16 46 39c0 19 -16 34 -38 34l-19 25l9 28c-131 11 -239 94 -285 219
c-16 44 -24 93 -24 145s8 101 24 145c49 134 170 220 323 220c176 0 306 -108 315 -265h-86c-12 111 -104 185 -228 185c-115 0 -203 -67 -241 -170c-12 -35 -19 -74 -19 -115s7 -80 19 -114c38 -104 126 -171 237 -171z" />
    <glyph glyph-name="Ccircumflex" unicode="&#x108;" horiz-adv-x="760" 
d="M322 755h-92l118 110h92l118 -110h-92l-71 66zM385 -15c-145 0 -266 86 -315 220c-16 44 -24 93 -24 145s8 101 24 145c49 134 170 220 323 220c176 0 306 -108 315 -265h-86c-12 111 -104 185 -228 185c-115 0 -203 -67 -241 -170c-12 -35 -19 -74 -19 -115
s7 -80 19 -114c38 -104 126 -171 237 -171c123 0 207 73 221 185h86c-15 -157 -133 -265 -312 -265z" />
    <glyph glyph-name="Cdotaccent" unicode="&#x10a;" horiz-adv-x="760" 
d="M443 754h-96v105h96v-105zM385 -15c-145 0 -266 86 -315 220c-16 44 -24 93 -24 145s8 101 24 145c49 134 170 220 323 220c176 0 306 -108 315 -265h-86c-12 111 -104 185 -228 185c-115 0 -203 -67 -241 -170c-12 -35 -19 -74 -19 -115s7 -80 19 -114
c38 -104 126 -171 237 -171c123 0 207 73 221 185h86c-15 -157 -133 -265 -312 -265z" />
    <glyph glyph-name="Dcaron" unicode="&#x10e;" horiz-adv-x="722" 
d="M365 755h-92l-118 110h92l72 -66l72 66h92zM333 0h-241v700h241c157 0 273 -77 320 -209c14 -42 22 -89 22 -141c0 -53 -8 -101 -23 -143c-47 -131 -162 -207 -319 -207zM176 620v-540h167c111 0 191 61 225 157c13 33 19 71 19 113s-6 80 -19 115
c-35 95 -115 155 -225 155h-167z" />
    <glyph glyph-name="Dcroat" unicode="&#x110;" horiz-adv-x="722" 
d="M653 491c14 -42 22 -89 22 -141c0 -53 -8 -101 -23 -143c-47 -131 -162 -207 -319 -207h-241v312h-86v76h86v312h241c157 0 273 -77 320 -209zM568 237c13 33 19 71 19 113s-6 80 -19 115c-35 95 -115 155 -225 155h-167v-232h212v-76h-212v-232h167
c111 0 191 61 225 157z" />
    <glyph glyph-name="Eacute" unicode="&#xc9;" horiz-adv-x="556" 
d="M337 755h-79l72 110h95zM493 0h-401v700h401v-80h-317v-229h307v-79h-307v-232h317v-80z" />
    <glyph glyph-name="Ebreve" unicode="&#x114;" horiz-adv-x="556" 
d="M298 750c-81 0 -129 36 -147 110h77c2 -30 32 -53 70 -53c37 0 68 23 69 53h77c-17 -74 -66 -110 -146 -110zM493 0h-401v700h401v-80h-317v-229h307v-79h-307v-232h317v-80z" />
    <glyph glyph-name="Ecaron" unicode="&#x11a;" horiz-adv-x="556" 
d="M343 755h-92l-118 110h92l72 -66l72 66h92zM493 0h-401v700h401v-80h-317v-229h307v-79h-307v-232h317v-80z" />
    <glyph glyph-name="Ecircumflex" unicode="&#xca;" horiz-adv-x="556" 
d="M225 755h-92l118 110h92l118 -110h-92l-71 66zM493 0h-401v700h401v-80h-317v-229h307v-79h-307v-232h317v-80z" />
    <glyph glyph-name="Edieresis" unicode="&#xcb;" horiz-adv-x="556" 
d="M247 755h-96v104h96v-104zM443 755h-96v104h96v-104zM493 0h-401v700h401v-80h-317v-229h307v-79h-307v-232h317v-80z" />
    <glyph glyph-name="Edotaccent" unicode="&#x116;" horiz-adv-x="556" 
d="M346 754h-96v105h96v-105zM493 0h-401v700h401v-80h-317v-229h307v-79h-307v-232h317v-80z" />
    <glyph glyph-name="Egrave" unicode="&#xc8;" horiz-adv-x="556" 
d="M336 755h-79l-97 110h103zM493 0h-401v700h401v-80h-317v-229h307v-79h-307v-232h317v-80z" />
    <glyph glyph-name="Emacron" unicode="&#x112;" horiz-adv-x="556" 
d="M440 772h-285v61h285v-61zM493 0h-401v700h401v-80h-317v-229h307v-79h-307v-232h317v-80z" />
    <glyph glyph-name="Eogonek" unicode="&#x118;" horiz-adv-x="556" 
d="M493 700v-80h-317v-229h307v-79h-307v-232h317v-80h-35c-43 -18 -66 -38 -66 -69c0 -32 30 -54 86 -54v-69c-106 0 -158 48 -158 106c0 36 18 65 51 86h-279v700h401z" />
    <glyph glyph-name="Eth" unicode="&#xd0;" horiz-adv-x="722" 
d="M653 491c14 -42 22 -89 22 -141c0 -53 -8 -101 -23 -143c-47 -131 -162 -207 -319 -207h-241v312h-86v76h86v312h241c157 0 273 -77 320 -209zM568 237c13 33 19 71 19 113s-6 80 -19 115c-35 95 -115 155 -225 155h-167v-232h212v-76h-212v-232h167
c111 0 191 61 225 157z" />
    <glyph glyph-name="Gbreve" unicode="&#x11e;" horiz-adv-x="769" 
d="M400 750c-81 0 -129 36 -147 110h77c2 -30 32 -53 70 -53c37 0 68 23 69 53h77c-17 -74 -66 -110 -146 -110zM369 -15c-133 0 -251 80 -298 212c-18 50 -25 104 -25 152c0 50 7 101 24 146c50 134 169 220 326 220c176 0 301 -108 312 -260h-86
c-14 110 -103 180 -225 180c-118 0 -206 -67 -244 -170c-12 -35 -19 -74 -19 -116c0 -39 5 -83 19 -121c36 -99 120 -163 228 -163c125 0 213 83 224 213h-233v79h313v-357h-84l22 173h-14c-32 -119 -118 -188 -240 -188z" />
    <glyph glyph-name="Gcircumflex" unicode="&#x11c;" horiz-adv-x="769" 
d="M327 755h-92l118 110h92l118 -110h-92l-71 66zM369 -15c-133 0 -251 80 -298 212c-18 50 -25 104 -25 152c0 50 7 101 24 146c50 134 169 220 326 220c176 0 301 -108 312 -260h-86c-14 110 -103 180 -225 180c-118 0 -206 -67 -244 -170c-12 -35 -19 -74 -19 -116
c0 -39 5 -83 19 -121c36 -99 120 -163 228 -163c125 0 213 83 224 213h-233v79h313v-357h-84l22 173h-14c-32 -119 -118 -188 -240 -188z" />
    <glyph glyph-name="uni0122" unicode="&#x122;" horiz-adv-x="769" 
d="M369 -15c-133 0 -251 80 -298 212c-18 50 -25 104 -25 152c0 50 7 101 24 146c50 134 169 220 326 220c176 0 301 -108 312 -260h-86c-14 110 -103 180 -225 180c-118 0 -206 -67 -244 -170c-12 -35 -19 -74 -19 -116c0 -39 5 -83 19 -121c36 -99 120 -163 228 -163
c125 0 213 83 224 213h-233v79h313v-357h-84l22 173h-14c-32 -119 -118 -188 -240 -188zM335 -185v47c28 0 44 11 44 31h-42v73h89v-57c0 -59 -33 -94 -91 -94z" />
    <glyph glyph-name="Gdotaccent" unicode="&#x120;" horiz-adv-x="769" 
d="M448 754h-96v105h96v-105zM369 -15c-133 0 -251 80 -298 212c-18 50 -25 104 -25 152c0 50 7 101 24 146c50 134 169 220 326 220c176 0 301 -108 312 -260h-86c-14 110 -103 180 -225 180c-118 0 -206 -67 -244 -170c-12 -35 -19 -74 -19 -116c0 -39 5 -83 19 -121
c36 -99 120 -163 228 -163c125 0 213 83 224 213h-233v79h313v-357h-84l22 173h-14c-32 -119 -118 -188 -240 -188z" />
    <glyph glyph-name="Hbar" unicode="&#x126;" horiz-adv-x="721" 
d="M628 585h31v-76h-31v-509h-83v312h-369v-312h-84v509h-31v76h31v115h84v-115h369v115h83v-115zM176 391h369v118h-369v-118z" />
    <glyph glyph-name="Hcircumflex" unicode="&#x124;" horiz-adv-x="721" 
d="M432 755l-71 66l-73 -66h-92l118 110h92l118 -110h-92zM545 391v309h83v-700h-83v312h-369v-312h-84v700h84v-309h369z" />
    <glyph glyph-name="Iacute" unicode="&#xcd;" horiz-adv-x="268" 
d="M173 755h-79l72 110h95zM176 0h-84v700h84v-700z" />
    <glyph glyph-name="Ibreve" unicode="&#x12c;" horiz-adv-x="268" 
d="M135 750c-81 0 -129 36 -147 110h77c2 -30 32 -53 70 -53c37 0 68 23 69 53h77c-17 -74 -66 -110 -146 -110zM176 0h-84v700h84v-700z" />
    <glyph glyph-name="Icircumflex" unicode="&#xce;" horiz-adv-x="268" 
d="M62 755h-92l118 110h92l118 -110h-92l-71 66zM176 0h-84v700h84v-700z" />
    <glyph glyph-name="Idieresis" unicode="&#xcf;" horiz-adv-x="268" 
d="M84 755h-96v104h96v-104zM280 755h-96v104h96v-104zM176 0h-84v700h84v-700z" />
    <glyph glyph-name="Idotaccent" unicode="&#x130;" horiz-adv-x="268" 
d="M182 754h-96v105h96v-105zM176 0h-84v700h84v-700z" />
    <glyph glyph-name="Igrave" unicode="&#xcc;" horiz-adv-x="268" 
d="M172 755h-79l-97 110h103zM176 0h-84v700h84v-700z" />
    <glyph glyph-name="IJ" unicode="&#x132;" horiz-adv-x="811" 
d="M176 0h-84v700h84v-700zM518 -15c-143 0 -213 77 -213 232v138h84v-138c0 -109 44 -152 129 -152c86 0 127 53 127 166v469h84v-469c0 -161 -73 -246 -211 -246z" />
    <glyph glyph-name="uni004A0301" horiz-adv-x="543" 
d="M455 755h-79l72 110h95zM250 -15c-143 0 -213 77 -213 232v138h84v-138c0 -109 44 -152 129 -152c86 0 127 53 127 166v469h84v-469c0 -161 -73 -246 -211 -246z" />
    <glyph glyph-name="Imacron" unicode="&#x12a;" horiz-adv-x="268" 
d="M276 772h-285v61h285v-61zM176 0h-84v700h84v-700z" />
    <glyph glyph-name="Iogonek" unicode="&#x12e;" horiz-adv-x="268" 
d="M176 0h-28c-43 -18 -66 -38 -66 -69c0 -32 30 -54 86 -54v-69c-106 0 -158 48 -158 106c0 46 30 81 82 102v684h84v-700z" />
    <glyph glyph-name="Itilde" unicode="&#x128;" horiz-adv-x="268" 
d="M202 758c-57 0 -82 41 -136 41c-25 0 -48 -15 -48 -39h-59c0 77 59 101 107 101c56 0 82 -41 136 -41c25 0 48 14 48 39h58c0 -77 -58 -101 -106 -101zM176 0h-84v700h84v-700z" />
    <glyph glyph-name="Jcircumflex" unicode="&#x134;" horiz-adv-x="543" 
d="M344 755h-92l118 110h92l118 -110h-92l-71 66zM250 -15c-143 0 -213 77 -213 232v138h84v-138c0 -109 44 -152 129 -152c86 0 127 53 127 166v469h84v-469c0 -161 -73 -246 -211 -246z" />
    <glyph glyph-name="uni0136" unicode="&#x136;" horiz-adv-x="632" 
d="M514 700h102l-269 -321l264 -379h-107l-217 316l-111 -130v-186h-84v700h84v-363l-27 -60h14zM316 -107h-42v73h89v-57c0 -59 -33 -94 -91 -94v47c28 0 44 11 44 31z" />
    <glyph glyph-name="Lacute" unicode="&#x139;" horiz-adv-x="518" 
d="M170 755h-79l72 110h95zM493 0h-401v700h84v-620h317v-80z" />
    <glyph glyph-name="Lcaron" unicode="&#x13d;" horiz-adv-x="518" 
d="M493 0h-401v700h84v-620h317v-80zM318 537h-49l37 163h88z" />
    <glyph glyph-name="uni013B" unicode="&#x13b;" horiz-adv-x="518" 
d="M493 0h-401v700h84v-620h317v-80zM254 -185v47c28 0 44 11 44 31h-42v73h89v-57c0 -59 -33 -94 -91 -94z" />
    <glyph glyph-name="Ldot" unicode="&#x13f;" horiz-adv-x="518" 
d="M493 0h-401v700h84v-620h317v-80zM457 353h-110v122h110v-122z" />
    <glyph glyph-name="Lslash" unicode="&#x141;" horiz-adv-x="518" 
d="M176 327v-247h317v-80h-401v271l-64 -43v80l64 43v349h84v-293l135 91v-80z" />
    <glyph glyph-name="Nacute" unicode="&#x143;" horiz-adv-x="721" 
d="M430 755h-79l72 110h95zM176 0h-84v700h131l284 -539l24 -101h14v640h83v-700h-131l-284 539l-23 101h-14v-640z" />
    <glyph glyph-name="Ncaron" unicode="&#x147;" horiz-adv-x="721" 
d="M436 755h-92l-118 110h92l72 -66l72 66h92zM176 0h-84v700h131l284 -539l24 -101h14v640h83v-700h-131l-284 539l-23 101h-14v-640z" />
    <glyph glyph-name="uni0145" unicode="&#x145;" horiz-adv-x="721" 
d="M176 0h-84v700h131l284 -539l24 -101h14v640h83v-700h-131l-284 539l-23 101h-14v-640zM307 -185v47c28 0 44 11 44 31h-42v73h89v-57c0 -59 -33 -94 -91 -94z" />
    <glyph glyph-name="Ntilde" unicode="&#xd1;" horiz-adv-x="721" 
d="M459 758c-57 0 -82 41 -136 41c-25 0 -48 -15 -48 -39h-59c0 77 59 101 107 101c56 0 82 -41 136 -41c25 0 48 14 48 39h58c0 -77 -58 -101 -106 -101zM176 0h-84v700h131l284 -539l24 -101h14v640h83v-700h-131l-284 539l-23 101h-14v-640z" />
    <glyph glyph-name="Eng" unicode="&#x14a;" horiz-adv-x="721" 
d="M628 700v-627h1v-103c0 -111 -52 -161 -166 -161v72c54 0 82 28 82 82v37h-48l-284 539l-23 101h-14v-640h-84v700h131l284 -539l24 -101h14v640h83z" />
    <glyph glyph-name="Oacute" unicode="&#xd3;" horiz-adv-x="797" 
d="M439 755h-79l72 110h95zM399 -15c-157 0 -278 83 -329 220c-17 45 -24 96 -24 145s7 100 24 145c50 134 170 220 329 220c158 0 278 -86 328 -220c17 -45 24 -96 24 -145s-7 -100 -24 -145c-49 -134 -167 -220 -328 -220zM399 65c118 0 206 65 245 171
c13 35 19 74 19 114c0 41 -7 80 -19 115c-38 103 -126 170 -245 170c-120 0 -208 -67 -246 -170c-12 -35 -19 -74 -19 -115s7 -80 19 -114c38 -105 127 -171 246 -171z" />
    <glyph glyph-name="Obreve" unicode="&#x14e;" horiz-adv-x="797" 
d="M400 750c-81 0 -129 36 -147 110h77c2 -30 32 -53 70 -53c37 0 68 23 69 53h77c-17 -74 -66 -110 -146 -110zM399 -15c-157 0 -278 83 -329 220c-17 45 -24 96 -24 145s7 100 24 145c50 134 170 220 329 220c158 0 278 -86 328 -220c17 -45 24 -96 24 -145
s-7 -100 -24 -145c-49 -134 -167 -220 -328 -220zM399 65c118 0 206 65 245 171c13 35 19 74 19 114c0 41 -7 80 -19 115c-38 103 -126 170 -245 170c-120 0 -208 -67 -246 -170c-12 -35 -19 -74 -19 -115s7 -80 19 -114c38 -105 127 -171 246 -171z" />
    <glyph glyph-name="Ocircumflex" unicode="&#xd4;" horiz-adv-x="797" 
d="M327 755h-92l118 110h92l118 -110h-92l-71 66zM399 -15c-157 0 -278 83 -329 220c-17 45 -24 96 -24 145s7 100 24 145c50 134 170 220 329 220c158 0 278 -86 328 -220c17 -45 24 -96 24 -145s-7 -100 -24 -145c-49 -134 -167 -220 -328 -220zM399 65
c118 0 206 65 245 171c13 35 19 74 19 114c0 41 -7 80 -19 115c-38 103 -126 170 -245 170c-120 0 -208 -67 -246 -170c-12 -35 -19 -74 -19 -115s7 -80 19 -114c38 -105 127 -171 246 -171z" />
    <glyph glyph-name="Odieresis" unicode="&#xd6;" horiz-adv-x="797" 
d="M349 755h-96v104h96v-104zM545 755h-96v104h96v-104zM399 -15c-157 0 -278 83 -329 220c-17 45 -24 96 -24 145s7 100 24 145c50 134 170 220 329 220c158 0 278 -86 328 -220c17 -45 24 -96 24 -145s-7 -100 -24 -145c-49 -134 -167 -220 -328 -220zM399 65
c118 0 206 65 245 171c13 35 19 74 19 114c0 41 -7 80 -19 115c-38 103 -126 170 -245 170c-120 0 -208 -67 -246 -170c-12 -35 -19 -74 -19 -115s7 -80 19 -114c38 -105 127 -171 246 -171z" />
    <glyph glyph-name="OE" unicode="&#x152;" horiz-adv-x="888" 
d="M826 700v-80h-297v-229h287v-79h-287v-232h297v-80h-437c-157 0 -274 77 -320 209c-15 42 -23 89 -23 141c0 53 8 101 23 143c47 131 163 207 320 207h437zM379 80h66v540h-66c-111 0 -192 -61 -226 -156c-12 -34 -19 -72 -19 -114s7 -80 20 -115
c34 -95 115 -155 225 -155z" />
    <glyph glyph-name="Ograve" unicode="&#xd2;" horiz-adv-x="797" 
d="M438 755h-79l-97 110h103zM399 -15c-157 0 -278 83 -329 220c-17 45 -24 96 -24 145s7 100 24 145c50 134 170 220 329 220c158 0 278 -86 328 -220c17 -45 24 -96 24 -145s-7 -100 -24 -145c-49 -134 -167 -220 -328 -220zM399 65c118 0 206 65 245 171
c13 35 19 74 19 114c0 41 -7 80 -19 115c-38 103 -126 170 -245 170c-120 0 -208 -67 -246 -170c-12 -35 -19 -74 -19 -115s7 -80 19 -114c38 -105 127 -171 246 -171z" />
    <glyph glyph-name="Ohungarumlaut" unicode="&#x150;" horiz-adv-x="797" 
d="M342 755h-69l60 110h90zM499 755h-70l60 110h91zM399 -15c-157 0 -278 83 -329 220c-17 45 -24 96 -24 145s7 100 24 145c50 134 170 220 329 220c158 0 278 -86 328 -220c17 -45 24 -96 24 -145s-7 -100 -24 -145c-49 -134 -167 -220 -328 -220zM399 65
c118 0 206 65 245 171c13 35 19 74 19 114c0 41 -7 80 -19 115c-38 103 -126 170 -245 170c-120 0 -208 -67 -246 -170c-12 -35 -19 -74 -19 -115s7 -80 19 -114c38 -105 127 -171 246 -171z" />
    <glyph glyph-name="Omacron" unicode="&#x14c;" horiz-adv-x="797" 
d="M542 772h-285v61h285v-61zM399 -15c-157 0 -278 83 -329 220c-17 45 -24 96 -24 145s7 100 24 145c50 134 170 220 329 220c158 0 278 -86 328 -220c17 -45 24 -96 24 -145s-7 -100 -24 -145c-49 -134 -167 -220 -328 -220zM399 65c118 0 206 65 245 171
c13 35 19 74 19 114c0 41 -7 80 -19 115c-38 103 -126 170 -245 170c-120 0 -208 -67 -246 -170c-12 -35 -19 -74 -19 -115s7 -80 19 -114c38 -105 127 -171 246 -171z" />
    <glyph glyph-name="Oslash" unicode="&#xd8;" horiz-adv-x="797" 
d="M765 715l-101 -114c27 -30 48 -66 63 -106c17 -45 24 -96 24 -145s-7 -100 -24 -145c-49 -134 -167 -220 -328 -220c-85 0 -159 24 -218 68l-60 -68h-91l102 115c-26 30 -47 65 -62 105c-17 45 -24 96 -24 145s7 100 24 145c50 134 170 220 329 220c85 0 159 -25 217 -68
l60 68h89zM153 236c9 -26 22 -49 37 -70l369 417c-43 33 -97 52 -160 52c-120 0 -208 -67 -246 -170c-12 -35 -19 -74 -19 -115s7 -80 19 -114zM644 236c13 35 19 74 19 114c0 41 -7 80 -19 115c-10 26 -22 49 -38 70l-368 -418c43 -33 98 -52 161 -52c118 0 206 65 245 171
z" />
    <glyph glyph-name="Oslashacute" unicode="&#x1fe;" horiz-adv-x="797" 
d="M432 865h95l-88 -110h-79zM765 715l-101 -114c27 -30 48 -66 63 -106c17 -45 24 -96 24 -145s-7 -100 -24 -145c-49 -134 -167 -220 -328 -220c-85 0 -159 24 -218 68l-60 -68h-91l102 115c-26 30 -47 65 -62 105c-17 45 -24 96 -24 145s7 100 24 145
c50 134 170 220 329 220c85 0 159 -25 217 -68l60 68h89zM153 236c9 -26 22 -49 37 -70l369 417c-43 33 -97 52 -160 52c-120 0 -208 -67 -246 -170c-12 -35 -19 -74 -19 -115s7 -80 19 -114zM644 236c13 35 19 74 19 114c0 41 -7 80 -19 115c-10 26 -22 49 -38 70
l-368 -418c43 -33 98 -52 161 -52c118 0 206 65 245 171z" />
    <glyph glyph-name="Otilde" unicode="&#xd5;" horiz-adv-x="797" 
d="M468 758c-57 0 -82 41 -136 41c-25 0 -48 -15 -48 -39h-59c0 77 59 101 107 101c56 0 82 -41 136 -41c25 0 48 14 48 39h58c0 -77 -58 -101 -106 -101zM399 -15c-157 0 -278 83 -329 220c-17 45 -24 96 -24 145s7 100 24 145c50 134 170 220 329 220
c158 0 278 -86 328 -220c17 -45 24 -96 24 -145s-7 -100 -24 -145c-49 -134 -167 -220 -328 -220zM399 65c118 0 206 65 245 171c13 35 19 74 19 114c0 41 -7 80 -19 115c-38 103 -126 170 -245 170c-120 0 -208 -67 -246 -170c-12 -35 -19 -74 -19 -115s7 -80 19 -114
c38 -105 127 -171 246 -171z" />
    <glyph glyph-name="Racute" unicode="&#x154;" horiz-adv-x="602" 
d="M317 865h95l-88 -110h-79zM327 326v-14l24 -14l203 -298h-107l-212 318h-59v-318h-84v700h235c99 0 168 -29 202 -88c16 -28 25 -63 25 -104c0 -37 -8 -69 -23 -96c-34 -59 -109 -86 -204 -86zM336 620h-160v-227h159c57 0 98 17 118 51c10 17 15 40 15 64
c0 23 -4 43 -14 59c-20 36 -60 53 -118 53z" />
    <glyph glyph-name="Rcaron" unicode="&#x158;" horiz-adv-x="602" 
d="M449 865l-118 -110h-92l-118 110h92l72 -66l72 66h92zM327 326v-14l24 -14l203 -298h-107l-212 318h-59v-318h-84v700h235c99 0 168 -29 202 -88c16 -28 25 -63 25 -104c0 -37 -8 -69 -23 -96c-34 -59 -109 -86 -204 -86zM336 620h-160v-227h159c57 0 98 17 118 51
c10 17 15 40 15 64c0 23 -4 43 -14 59c-20 36 -60 53 -118 53z" />
    <glyph glyph-name="uni0156" unicode="&#x156;" horiz-adv-x="602" 
d="M327 326v-14l24 -14l203 -298h-107l-212 318h-59v-318h-84v700h235c99 0 168 -29 202 -88c16 -28 25 -63 25 -104c0 -37 -8 -69 -23 -96c-34 -59 -109 -86 -204 -86zM336 620h-160v-227h159c57 0 98 17 118 51c10 17 15 40 15 64c0 23 -4 43 -14 59
c-20 36 -60 53 -118 53zM297 -107h-42v73h89v-57c0 -59 -33 -94 -91 -94v47c28 0 44 11 44 31z" />
    <glyph glyph-name="Sacute" unicode="&#x15a;" horiz-adv-x="613" 
d="M351 755h-79l72 110h95zM300 -15c-149 0 -244 86 -244 230v16h89v-10c0 -104 58 -157 158 -157c69 0 114 24 136 63c10 18 16 38 16 61c0 20 -4 37 -12 52c-19 31 -55 53 -114 64l-84 16c-75 14 -129 46 -156 95c-15 26 -23 56 -23 92c0 38 10 72 26 102
c38 66 116 106 217 106c149 0 243 -84 243 -226v-17h-90v11c0 101 -57 153 -156 153c-68 0 -114 -24 -136 -63c-10 -18 -15 -37 -15 -61c0 -19 4 -35 12 -50c19 -32 55 -53 115 -64l83 -17c75 -14 129 -46 156 -95c15 -26 23 -58 23 -93c0 -38 -9 -74 -26 -103
c-38 -67 -116 -105 -218 -105z" />
    <glyph glyph-name="Scaron" unicode="&#x160;" horiz-adv-x="613" 
d="M357 755h-92l-118 110h92l72 -66l72 66h92zM300 -15c-149 0 -244 86 -244 230v16h89v-10c0 -104 58 -157 158 -157c69 0 114 24 136 63c10 18 16 38 16 61c0 20 -4 37 -12 52c-19 31 -55 53 -114 64l-84 16c-75 14 -129 46 -156 95c-15 26 -23 56 -23 92
c0 38 10 72 26 102c38 66 116 106 217 106c149 0 243 -84 243 -226v-17h-90v11c0 101 -57 153 -156 153c-68 0 -114 -24 -136 -63c-10 -18 -15 -37 -15 -61c0 -19 4 -35 12 -50c19 -32 55 -53 115 -64l83 -17c75 -14 129 -46 156 -95c15 -26 23 -58 23 -93
c0 -38 -9 -74 -26 -103c-38 -67 -116 -105 -218 -105z" />
    <glyph glyph-name="Scedilla" unicode="&#x15e;" horiz-adv-x="613" 
d="M552 472h-90v11c0 101 -57 153 -156 153c-68 0 -114 -24 -136 -63c-10 -18 -15 -37 -15 -61c0 -19 4 -35 12 -50c19 -32 55 -53 115 -64l83 -17c75 -14 129 -46 156 -95c15 -26 23 -58 23 -93c0 -38 -9 -74 -26 -103c-35 -62 -104 -99 -194 -104l-5 -16
c36 -13 54 -39 54 -71c0 -51 -42 -91 -104 -91c-54 0 -111 27 -117 103h61c6 -38 28 -51 54 -51c27 0 46 16 46 39c0 19 -16 34 -38 34l-19 25l10 29c-129 12 -210 95 -210 228v16h89v-10c0 -104 58 -157 158 -157c69 0 114 24 136 63c10 18 16 38 16 61c0 20 -4 37 -12 52
c-19 31 -55 53 -114 64l-84 16c-75 14 -129 46 -156 95c-15 26 -23 56 -23 92c0 38 10 72 26 102c38 66 116 106 217 106c149 0 243 -84 243 -226v-17z" />
    <glyph glyph-name="Scircumflex" unicode="&#x15c;" horiz-adv-x="613" 
d="M239 755h-92l118 110h92l118 -110h-92l-71 66zM300 -15c-149 0 -244 86 -244 230v16h89v-10c0 -104 58 -157 158 -157c69 0 114 24 136 63c10 18 16 38 16 61c0 20 -4 37 -12 52c-19 31 -55 53 -114 64l-84 16c-75 14 -129 46 -156 95c-15 26 -23 56 -23 92
c0 38 10 72 26 102c38 66 116 106 217 106c149 0 243 -84 243 -226v-17h-90v11c0 101 -57 153 -156 153c-68 0 -114 -24 -136 -63c-10 -18 -15 -37 -15 -61c0 -19 4 -35 12 -50c19 -32 55 -53 115 -64l83 -17c75 -14 129 -46 156 -95c15 -26 23 -58 23 -93
c0 -38 -9 -74 -26 -103c-38 -67 -116 -105 -218 -105z" />
    <glyph glyph-name="uni0218" unicode="&#x218;" horiz-adv-x="613" 
d="M300 -15c-149 0 -244 86 -244 230v16h89v-10c0 -104 58 -157 158 -157c69 0 114 24 136 63c10 18 16 38 16 61c0 20 -4 37 -12 52c-19 31 -55 53 -114 64l-84 16c-75 14 -129 46 -156 95c-15 26 -23 56 -23 92c0 38 10 72 26 102c38 66 116 106 217 106
c149 0 243 -84 243 -226v-17h-90v11c0 101 -57 153 -156 153c-68 0 -114 -24 -136 -63c-10 -18 -15 -37 -15 -61c0 -19 4 -35 12 -50c19 -32 55 -53 115 -64l83 -17c75 -14 129 -46 156 -95c15 -26 23 -58 23 -93c0 -38 -9 -74 -26 -103c-38 -67 -116 -105 -218 -105z
M256 -185v47c28 0 44 11 44 31h-42v73h89v-57c0 -59 -33 -94 -91 -94z" />
    <glyph glyph-name="Tbar" unicode="&#x166;" horiz-adv-x="556" 
d="M545 700v-80h-225v-199h149v-76h-149v-345h-84v345h-149v76h149v199h-225v80h534z" />
    <glyph glyph-name="Tcaron" unicode="&#x164;" horiz-adv-x="556" 
d="M441 865l-118 -110h-92l-118 110h92l72 -66l72 66h92zM11 700h534v-80h-225v-620h-84v620h-225v80z" />
    <glyph glyph-name="uni0162" unicode="&#x162;" horiz-adv-x="556" 
d="M320 620v-620h-16l-9 -30c36 -13 54 -39 54 -71c0 -51 -42 -91 -104 -91c-54 0 -111 27 -117 103h61c6 -38 28 -51 54 -51c27 0 46 16 46 39c0 19 -16 34 -38 34l-19 25l14 42h-10v620h-225v80h534v-80h-225z" />
    <glyph glyph-name="uni021A" unicode="&#x21a;" horiz-adv-x="556" 
d="M11 620v80h534v-80h-225v-620h-84v620h-225zM276 -107h-42v73h89v-57c0 -59 -33 -94 -91 -94v47c28 0 44 11 44 31z" />
    <glyph glyph-name="Thorn" unicode="&#xde;" horiz-adv-x="602" 
d="M541 462c19 -33 28 -70 28 -112s-9 -79 -28 -112c-40 -69 -117 -111 -210 -111h-155v-127h-84v700h84v-127h155c93 0 170 -42 210 -111zM458 272c12 21 20 47 20 78s-8 57 -20 78c-24 42 -69 65 -127 65h-155v-286h155c58 0 103 23 127 65z" />
    <glyph glyph-name="Uacute" unicode="&#xda;" horiz-adv-x="693" 
d="M386 755h-79l72 110h95zM347 -15c-163 0 -265 102 -265 266v449h88v-447c0 -114 67 -186 177 -186s177 71 177 186v447h87v-449c0 -164 -101 -266 -264 -266z" />
    <glyph glyph-name="Ubreve" unicode="&#x16c;" horiz-adv-x="693" 
d="M347 750c-81 0 -129 36 -147 110h77c2 -30 32 -53 70 -53c37 0 68 23 69 53h77c-17 -74 -66 -110 -146 -110zM347 -15c-163 0 -265 102 -265 266v449h88v-447c0 -114 67 -186 177 -186s177 71 177 186v447h87v-449c0 -164 -101 -266 -264 -266z" />
    <glyph glyph-name="Ucircumflex" unicode="&#xdb;" horiz-adv-x="693" 
d="M274 755h-92l118 110h92l118 -110h-92l-71 66zM347 -15c-163 0 -265 102 -265 266v449h88v-447c0 -114 67 -186 177 -186s177 71 177 186v447h87v-449c0 -164 -101 -266 -264 -266z" />
    <glyph glyph-name="Udieresis" unicode="&#xdc;" horiz-adv-x="693" 
d="M296 755h-96v104h96v-104zM492 755h-96v104h96v-104zM347 -15c-163 0 -265 102 -265 266v449h88v-447c0 -114 67 -186 177 -186s177 71 177 186v447h87v-449c0 -164 -101 -266 -264 -266z" />
    <glyph glyph-name="Ugrave" unicode="&#xd9;" horiz-adv-x="693" 
d="M385 755h-79l-97 110h103zM347 -15c-163 0 -265 102 -265 266v449h88v-447c0 -114 67 -186 177 -186s177 71 177 186v447h87v-449c0 -164 -101 -266 -264 -266z" />
    <glyph glyph-name="Uhungarumlaut" unicode="&#x170;" horiz-adv-x="693" 
d="M289 755h-69l60 110h90zM446 755h-70l60 110h91zM347 -15c-163 0 -265 102 -265 266v449h88v-447c0 -114 67 -186 177 -186s177 71 177 186v447h87v-449c0 -164 -101 -266 -264 -266z" />
    <glyph glyph-name="Umacron" unicode="&#x16a;" horiz-adv-x="693" 
d="M489 772h-285v61h285v-61zM347 -15c-163 0 -265 102 -265 266v449h88v-447c0 -114 67 -186 177 -186s177 71 177 186v447h87v-449c0 -164 -101 -266 -264 -266z" />
    <glyph glyph-name="Uogonek" unicode="&#x172;" horiz-adv-x="693" 
d="M524 253v447h87v-449c0 -140 -74 -235 -197 -260c-31 -16 -47 -33 -47 -60c0 -32 30 -54 86 -54v-69c-106 0 -158 48 -158 106c0 28 11 52 32 72c-151 8 -245 108 -245 265v449h88v-447c0 -114 67 -186 177 -186s177 71 177 186z" />
    <glyph glyph-name="Uring" unicode="&#x16e;" horiz-adv-x="693" 
d="M347 750c-62 0 -112 43 -112 108c0 64 50 108 112 108c63 0 112 -44 112 -108c0 -63 -49 -108 -112 -108zM347 802c34 0 57 25 57 56s-23 56 -57 56s-57 -25 -57 -56s23 -56 57 -56zM347 -15c-163 0 -265 102 -265 266v449h88v-447c0 -114 67 -186 177 -186
s177 71 177 186v447h87v-449c0 -164 -101 -266 -264 -266z" />
    <glyph glyph-name="Utilde" unicode="&#x168;" horiz-adv-x="693" 
d="M415 758c-57 0 -82 41 -136 41c-25 0 -48 -15 -48 -39h-59c0 77 59 101 107 101c56 0 82 -41 136 -41c25 0 48 14 48 39h58c0 -77 -58 -101 -106 -101zM347 -15c-163 0 -265 102 -265 266v449h88v-447c0 -114 67 -186 177 -186s177 71 177 186v447h87v-449
c0 -164 -101 -266 -264 -266z" />
    <glyph glyph-name="Wacute" unicode="&#x1e82;" horiz-adv-x="959" 
d="M519 755h-79l72 110h95zM340 0h-139l-171 700h91l141 -590l3 -57h14l3 57l129 590h137l129 -590l3 -57h14l3 57l142 590h90l-171 -700h-139l-130 594l-3 46h-13l-3 -46z" />
    <glyph glyph-name="Wcircumflex" unicode="&#x174;" horiz-adv-x="959" 
d="M408 755h-92l118 110h92l118 -110h-92l-71 66zM340 0h-139l-171 700h91l141 -590l3 -57h14l3 57l129 590h137l129 -590l3 -57h14l3 57l142 590h90l-171 -700h-139l-130 594l-3 46h-13l-3 -46z" />
    <glyph glyph-name="Wdieresis" unicode="&#x1e84;" horiz-adv-x="959" 
d="M430 755h-96v104h96v-104zM626 755h-96v104h96v-104zM340 0h-139l-171 700h91l141 -590l3 -57h14l3 57l129 590h137l129 -590l3 -57h14l3 57l142 590h90l-171 -700h-139l-130 594l-3 46h-13l-3 -46z" />
    <glyph glyph-name="Wgrave" unicode="&#x1e80;" horiz-adv-x="959" 
d="M518 755h-79l-97 110h103zM340 0h-139l-171 700h91l141 -590l3 -57h14l3 57l129 590h137l129 -590l3 -57h14l3 57l142 590h90l-171 -700h-139l-130 594l-3 46h-13l-3 -46z" />
    <glyph glyph-name="Yacute" unicode="&#xdd;" horiz-adv-x="601" 
d="M332 865h95l-88 -110h-79zM490 700h100l-248 -437v-263h-84v263l-247 437h100l179 -328l4 -35h14l3 35z" />
    <glyph glyph-name="Ycircumflex" unicode="&#x176;" horiz-adv-x="601" 
d="M372 755l-71 66l-73 -66h-92l118 110h92l118 -110h-92zM490 700h100l-248 -437v-263h-84v263l-247 437h100l179 -328l4 -35h14l3 35z" />
    <glyph glyph-name="Ydieresis" unicode="&#x178;" horiz-adv-x="601" 
d="M154 859h96v-104h-96v104zM350 859h96v-104h-96v104zM490 700h100l-248 -437v-263h-84v263l-247 437h100l179 -328l4 -35h14l3 35z" />
    <glyph glyph-name="Ygrave" unicode="&#x1ef2;" horiz-adv-x="601" 
d="M265 865l73 -110h-79l-97 110h103zM490 700h100l-248 -437v-263h-84v263l-247 437h100l179 -328l4 -35h14l3 35z" />
    <glyph glyph-name="Zacute" unicode="&#x179;" horiz-adv-x="602" 
d="M332 755h-79l72 110h95zM551 0h-500v129l428 477v14h-428v80h500v-137l-423 -469v-14h423v-80z" />
    <glyph glyph-name="Zcaron" unicode="&#x17d;" horiz-adv-x="602" 
d="M339 755h-92l-118 110h92l72 -66l72 66h92zM551 0h-500v129l428 477v14h-428v80h500v-137l-423 -469v-14h423v-80z" />
    <glyph glyph-name="Zdotaccent" unicode="&#x17b;" horiz-adv-x="602" 
d="M341 754h-96v105h96v-105zM551 0h-500v129l428 477v14h-428v80h500v-137l-423 -469v-14h423v-80z" />
    <glyph glyph-name="a" unicode="a" horiz-adv-x="519" 
d="M250 489c131 0 197 -65 197 -179v-310h-83l21 133h-14c-24 -97 -80 -147 -170 -147c-44 0 -82 15 -107 41c-24 24 -37 56 -37 95c0 40 12 71 36 95c28 28 72 44 130 47l144 9v37c0 66 -38 107 -118 107c-118 0 -119 -90 -119 -102v-4h-83v4c0 14 2 174 203 174zM219 56
c103 0 148 93 148 152v2l-132 -13c-36 -3 -62 -12 -77 -28c-12 -12 -18 -27 -18 -47c0 -19 6 -33 18 -45c13 -14 34 -21 61 -21z" />
    <glyph glyph-name="b" unicode="b" horiz-adv-x="600" 
d="M336 -14c-91 0 -156 50 -183 147h-13l21 -133h-80v700h80v-225l-21 -133h13c27 98 92 147 183 147c74 0 135 -32 174 -89c28 -41 44 -96 44 -162s-16 -121 -44 -163c-39 -57 -100 -89 -174 -89zM315 58c54 0 96 21 123 60c21 30 33 71 33 120s-12 89 -33 119
c-27 39 -69 60 -123 60c-53 0 -96 -21 -122 -60c-22 -30 -33 -70 -33 -119s11 -90 33 -120c26 -39 69 -60 122 -60z" />
    <glyph glyph-name="c" unicode="c" horiz-adv-x="537" 
d="M270 -14c-81 0 -144 32 -184 90c-29 41 -44 95 -44 159c0 67 17 122 46 163c40 59 106 91 190 91c123 0 212 -76 216 -186h-80c-9 71 -59 114 -136 114c-53 0 -94 -21 -120 -58c-22 -31 -33 -72 -33 -123c0 -50 11 -90 32 -120c25 -37 65 -58 116 -58
c75 0 122 42 131 114h80c-4 -111 -90 -186 -214 -186z" />
    <glyph glyph-name="d" unicode="d" horiz-adv-x="600" 
d="M264 -14c-74 0 -135 32 -174 89c-29 42 -44 97 -44 163s15 121 44 162c39 57 100 89 174 89c91 0 156 -49 182 -147h14l-21 133v225h79v-700h-79l21 133h-14c-26 -97 -91 -147 -182 -147zM284 58c54 0 96 21 123 60c21 30 33 71 33 120s-12 89 -33 119
c-27 39 -69 60 -123 60c-53 0 -95 -21 -122 -60c-21 -30 -33 -70 -33 -119s12 -90 33 -120c27 -39 69 -60 122 -60z" />
    <glyph glyph-name="e" unicode="e" horiz-adv-x="531" 
d="M489 251v-35h-363c2 -41 13 -74 31 -100c25 -37 65 -58 121 -58c64 0 112 32 130 87h80c-18 -92 -102 -159 -208 -159c-91 0 -154 32 -194 90c-29 41 -44 95 -44 159c0 67 19 122 48 163c40 59 105 91 181 91c137 0 218 -89 218 -238zM128 283h276
c-4 87 -52 135 -133 135c-46 0 -89 -21 -115 -59c-14 -20 -23 -46 -28 -76z" />
    <glyph glyph-name="f" unicode="f" horiz-adv-x="402" 
d="M434 547h-80v8c0 58 -27 89 -76 89c-51 0 -80 -34 -80 -93v-76h184v-72h-184v-403h-80v403h-102v72h102v76c0 99 63 163 160 163c101 0 156 -55 156 -157v-10z" />
    <glyph glyph-name="g" unicode="g" horiz-adv-x="569" 
d="M267 -192c-139 0 -214 69 -220 192h80c5 -76 53 -120 140 -120c93 0 146 54 146 150v13l28 133h-13c-28 -104 -93 -146 -171 -146c-72 0 -132 29 -169 83c-27 38 -41 88 -41 146c0 59 14 108 41 147c37 53 97 83 169 83c78 0 143 -43 171 -147h13l-28 133h80v-417
c0 -166 -76 -250 -226 -250zM272 100c48 0 88 19 113 55c20 29 29 63 29 104c0 42 -9 75 -29 105c-25 35 -65 55 -113 55c-49 0 -88 -20 -113 -55c-21 -30 -30 -63 -30 -105c0 -41 9 -75 30 -104c25 -36 64 -55 113 -55z" />
    <glyph glyph-name="h" unicode="h" horiz-adv-x="565" 
d="M161 0h-80v700h80v-225l-21 -133h13c27 98 88 147 170 147c112 0 170 -69 170 -196v-293h-80v283c0 87 -39 132 -112 132c-86 0 -140 -67 -140 -170v-245z" />
    <glyph glyph-name="i" unicode="i" horiz-adv-x="243" 
d="M168 556h-92v117h92v-117zM161 0h-80v475h80v-475z" />
    <glyph glyph-name="j" unicode="j" horiz-adv-x="259" 
d="M184 556h-92v117h92v-117zM31 -192c-89 0 -136 49 -139 131h79c3 -39 24 -60 62 -60c43 0 65 30 65 84v512h80v-496c0 -112 -49 -171 -147 -171z" />
    <glyph glyph-name="k" unicode="k" horiz-adv-x="515" 
d="M405 475h99l-203 -211l198 -264h-101l-155 210l-82 -84v-126h-80v700h80v-438l-28 -54h14z" />
    <glyph glyph-name="l" unicode="l" horiz-adv-x="243" 
d="M161 0h-80v700h80v-700z" />
    <glyph glyph-name="m" unicode="m" horiz-adv-x="842" 
d="M161 0h-80v475h80l-21 -133h13c23 95 74 147 155 147c75 0 134 -50 134 -147h14c22 106 83 147 158 147c101 0 156 -64 156 -185v-304h-81v287c0 84 -34 128 -98 128c-80 0 -126 -66 -126 -164v-251h-80v287c0 84 -40 128 -99 128c-81 0 -125 -66 -125 -164v-251z" />
    <glyph glyph-name="n" unicode="n" horiz-adv-x="565" 
d="M161 0h-80v475h80l-21 -133h13c27 98 86 147 168 147c112 0 172 -69 172 -196v-293h-80v283c0 87 -39 132 -112 132c-86 0 -140 -67 -140 -170v-245z" />
    <glyph glyph-name="o" unicode="o" horiz-adv-x="572" 
d="M286 -14c-87 0 -157 37 -200 100c-28 40 -44 92 -44 152c0 59 16 111 44 152c43 62 113 99 200 99c86 0 157 -37 200 -99c28 -41 43 -93 43 -152c0 -60 -16 -112 -43 -152c-43 -63 -114 -100 -200 -100zM286 58c56 0 101 25 129 66c21 30 32 69 32 114s-11 83 -32 113
c-28 41 -73 66 -129 66s-101 -25 -130 -66c-20 -30 -31 -68 -31 -113s11 -84 31 -114c29 -41 74 -66 130 -66z" />
    <glyph glyph-name="p" unicode="p" horiz-adv-x="600" 
d="M161 -180h-80v655h80l-21 -133h13c27 98 92 147 183 147c74 0 135 -32 174 -89c28 -41 44 -96 44 -162s-16 -121 -44 -163c-39 -57 -100 -89 -174 -89c-91 0 -156 50 -183 147h-13l21 -133v-180zM315 58c54 0 96 21 123 60c21 30 33 71 33 120s-12 89 -33 119
c-27 39 -69 60 -123 60c-53 0 -96 -21 -122 -60c-22 -30 -33 -70 -33 -119s11 -90 33 -120c26 -39 69 -60 122 -60z" />
    <glyph glyph-name="q" unicode="q" horiz-adv-x="600" 
d="M518 -180h-79v180l21 133h-14c-26 -97 -91 -147 -182 -147c-74 0 -135 32 -174 89c-29 42 -44 97 -44 163s15 121 44 162c39 57 100 89 174 89c91 0 156 -49 182 -147h14l-21 133h79v-655zM284 58c54 0 96 21 123 60c21 30 33 71 33 120s-12 89 -33 119
c-27 39 -69 60 -123 60c-53 0 -95 -21 -122 -60c-21 -30 -33 -70 -33 -119s12 -90 33 -120c27 -39 69 -60 122 -60z" />
    <glyph glyph-name="r" unicode="r" horiz-adv-x="463" 
d="M161 0h-80v475h80l-24 -140h15c17 102 71 154 146 154c89 0 134 -58 134 -153v-96h-83v64c0 75 -26 109 -81 109c-70 0 -107 -59 -107 -168v-245z" />
    <glyph glyph-name="s" unicode="s" horiz-adv-x="483" 
d="M238 -14c-116 0 -186 62 -186 163v6h80v-6c0 -62 39 -94 109 -94c36 0 63 8 79 24c12 12 19 28 19 46c0 39 -24 60 -79 71l-64 13c-89 18 -136 60 -136 137c0 39 13 70 37 95c31 31 81 48 145 48c116 0 185 -62 185 -164v-5h-80v5c0 62 -37 96 -109 96
c-36 0 -63 -8 -80 -25c-11 -12 -18 -28 -18 -46c0 -38 26 -59 76 -69l66 -14c93 -19 137 -60 137 -137c0 -40 -13 -71 -37 -95c-31 -32 -81 -49 -144 -49z" />
    <glyph glyph-name="t" unicode="t" horiz-adv-x="462" 
d="M417 475v-72h-219v-254c0 -59 26 -91 69 -91c50 0 70 32 70 104v73h80v-74c0 -110 -53 -175 -149 -175c-101 0 -150 56 -150 163v254h-102v72h102v99l80 39v-138h219z" />
    <glyph glyph-name="u" unicode="u" horiz-adv-x="555" 
d="M238 -14c-110 0 -166 69 -166 196v293h80v-282c0 -88 37 -132 107 -132c83 0 135 67 135 169v245h80v-475h-80l22 133h-14c-27 -97 -84 -147 -164 -147z" />
    <glyph glyph-name="v" unicode="v" horiz-adv-x="501" 
d="M313 0h-125l-173 475h87l138 -395l4 -28h13l4 28l138 395h87z" />
    <glyph glyph-name="w" unicode="w" horiz-adv-x="775" 
d="M283 0h-123l-134 475h85l102 -387l3 -36h14l2 36l91 387h129l91 -387l2 -36h14l3 36l102 387h85l-134 -475h-124l-94 390l-3 33h-13l-3 -33z" />
    <glyph glyph-name="x" unicode="x" horiz-adv-x="501" 
d="M124 0h-98l170 238l-170 237h98l116 -168l4 -33h14l3 33l116 168h98l-170 -237l170 -238h-98l-116 165l-3 32h-14l-4 -32z" />
    <glyph glyph-name="y" unicode="y" horiz-adv-x="511" 
d="M274 105l131 370h92l-197 -521c-40 -109 -83 -146 -156 -146c-83 0 -135 45 -135 128v12h80v-12c0 -37 21 -57 55 -57c33 0 56 19 74 69l34 97h-54l-181 430h92l150 -370h15z" />
    <glyph glyph-name="z" unicode="z" horiz-adv-x="488" 
d="M438 0h-388v126l317 264v13h-317v72h388v-125l-318 -264v-14h318v-72z" />
    <glyph glyph-name="aacute" unicode="&#xe1;" horiz-adv-x="519" 
d="M300 689h97l-101 -150h-71zM250 489c131 0 197 -65 197 -179v-310h-83l21 133h-14c-24 -97 -80 -147 -170 -147c-44 0 -82 15 -107 41c-24 24 -37 56 -37 95c0 40 12 71 36 95c28 28 72 44 130 47l144 9v37c0 66 -38 107 -118 107c-118 0 -119 -90 -119 -102v-4h-83v4
c0 14 2 174 203 174zM219 56c103 0 148 93 148 152v2l-132 -13c-36 -3 -62 -12 -77 -28c-12 -12 -18 -27 -18 -47c0 -19 6 -33 18 -45c13 -14 34 -21 61 -21z" />
    <glyph glyph-name="abreve" unicode="&#x103;" horiz-adv-x="519" 
d="M257 541c-84 0 -150 47 -150 148h67c0 -63 38 -93 83 -93c46 0 83 30 83 93h67c0 -102 -66 -148 -150 -148zM250 489c131 0 197 -65 197 -179v-310h-83l21 133h-14c-24 -97 -80 -147 -170 -147c-44 0 -82 15 -107 41c-24 24 -37 56 -37 95c0 40 12 71 36 95
c28 28 72 44 130 47l144 9v37c0 66 -38 107 -118 107c-118 0 -119 -90 -119 -102v-4h-83v4c0 14 2 174 203 174zM219 56c103 0 148 93 148 152v2l-132 -13c-36 -3 -62 -12 -77 -28c-12 -12 -18 -27 -18 -47c0 -19 6 -33 18 -45c13 -14 34 -21 61 -21z" />
    <glyph glyph-name="acircumflex" unicode="&#xe2;" horiz-adv-x="519" 
d="M335 539l-79 104l-79 -104h-88l126 148h82l125 -148h-87zM250 489c131 0 197 -65 197 -179v-310h-83l21 133h-14c-24 -97 -80 -147 -170 -147c-44 0 -82 15 -107 41c-24 24 -37 56 -37 95c0 40 12 71 36 95c28 28 72 44 130 47l144 9v37c0 66 -38 107 -118 107
c-118 0 -119 -90 -119 -102v-4h-83v4c0 14 2 174 203 174zM219 56c103 0 148 93 148 152v2l-132 -13c-36 -3 -62 -12 -77 -28c-12 -12 -18 -27 -18 -47c0 -19 6 -33 18 -45c13 -14 34 -21 61 -21z" />
    <glyph glyph-name="adieresis" unicode="&#xe4;" horiz-adv-x="519" 
d="M119 664h91v-102h-91v102zM302 664h91v-102h-91v102zM250 489c131 0 197 -65 197 -179v-310h-83l21 133h-14c-24 -97 -80 -147 -170 -147c-44 0 -82 15 -107 41c-24 24 -37 56 -37 95c0 40 12 71 36 95c28 28 72 44 130 47l144 9v37c0 66 -38 107 -118 107
c-118 0 -119 -90 -119 -102v-4h-83v4c0 14 2 174 203 174zM219 56c103 0 148 93 148 152v2l-132 -13c-36 -3 -62 -12 -77 -28c-12 -12 -18 -27 -18 -47c0 -19 6 -33 18 -45c13 -14 34 -21 61 -21z" />
    <glyph glyph-name="ae" unicode="&#xe6;" horiz-adv-x="838" 
d="M795 251v-35h-342c2 -41 12 -74 30 -100c26 -37 66 -58 112 -58c59 0 103 32 120 87h80c-17 -92 -96 -159 -199 -159c-80 0 -144 32 -183 90c-5 7 -9 14 -14 22c-35 -73 -100 -112 -198 -112c-44 0 -82 15 -107 41c-24 24 -37 56 -37 95c0 40 12 71 36 95
c28 28 72 43 130 47l144 9v18v19c0 66 -38 107 -118 107c-74 0 -119 -40 -119 -102v-4h-83v4c0 106 79 174 203 174c86 0 143 -30 170 -86c40 56 104 86 168 86c131 0 207 -89 207 -238zM455 282h255c-3 88 -47 136 -122 136c-37 0 -77 -16 -104 -53
c-14 -21 -24 -50 -29 -83zM219 56c80 0 148 69 148 152v2l-132 -13c-36 -3 -62 -12 -77 -28c-12 -12 -18 -27 -18 -47c0 -19 6 -33 18 -45c13 -14 34 -21 61 -21z" />
    <glyph glyph-name="aeacute" unicode="&#x1fd;" horiz-adv-x="838" 
d="M456 689h97l-101 -150h-71zM795 251v-35h-342c2 -41 12 -74 30 -100c26 -37 66 -58 112 -58c59 0 103 32 120 87h80c-17 -92 -96 -159 -199 -159c-80 0 -144 32 -183 90c-5 7 -9 14 -14 22c-35 -73 -100 -112 -198 -112c-44 0 -82 15 -107 41c-24 24 -37 56 -37 95
c0 40 12 71 36 95c28 28 72 43 130 47l144 9v18v19c0 66 -38 107 -118 107c-74 0 -119 -40 -119 -102v-4h-83v4c0 106 79 174 203 174c86 0 143 -30 170 -86c40 56 104 86 168 86c131 0 207 -89 207 -238zM455 282h255c-3 88 -47 136 -122 136c-37 0 -77 -16 -104 -53
c-14 -21 -24 -50 -29 -83zM219 56c80 0 148 69 148 152v2l-132 -13c-36 -3 -62 -12 -77 -28c-12 -12 -18 -27 -18 -47c0 -19 6 -33 18 -45c13 -14 34 -21 61 -21z" />
    <glyph glyph-name="agrave" unicode="&#xe0;" horiz-adv-x="519" 
d="M218 689l74 -150h-70l-102 150h98zM250 489c131 0 197 -65 197 -179v-310h-83l21 133h-14c-24 -97 -80 -147 -170 -147c-44 0 -82 15 -107 41c-24 24 -37 56 -37 95c0 40 12 71 36 95c28 28 72 44 130 47l144 9v37c0 66 -38 107 -118 107c-118 0 -119 -90 -119 -102v-4
h-83v4c0 14 2 174 203 174zM219 56c103 0 148 93 148 152v2l-132 -13c-36 -3 -62 -12 -77 -28c-12 -12 -18 -27 -18 -47c0 -19 6 -33 18 -45c13 -14 34 -21 61 -21z" />
    <glyph glyph-name="amacron" unicode="&#x101;" horiz-adv-x="519" 
d="M103 644h307v-57h-307v57zM250 489c131 0 197 -65 197 -179v-310h-83l21 133h-14c-24 -97 -80 -147 -170 -147c-44 0 -82 15 -107 41c-24 24 -37 56 -37 95c0 40 12 71 36 95c28 28 72 44 130 47l144 9v37c0 66 -38 107 -118 107c-118 0 -119 -90 -119 -102v-4h-83v4
c0 14 2 174 203 174zM219 56c103 0 148 93 148 152v2l-132 -13c-36 -3 -62 -12 -77 -28c-12 -12 -18 -27 -18 -47c0 -19 6 -33 18 -45c13 -14 34 -21 61 -21z" />
    <glyph glyph-name="aogonek" unicode="&#x105;" horiz-adv-x="519" 
d="M447 0h-36c-43 -18 -66 -38 -66 -69c0 -32 30 -54 86 -54v-69c-106 0 -158 48 -158 106c0 49 35 86 94 107l18 112h-14c-24 -97 -80 -147 -170 -147c-44 0 -82 15 -107 41c-24 24 -37 56 -37 95c0 40 12 71 36 95c28 28 72 44 130 47l144 9v37c0 66 -38 107 -118 107
c-118 0 -119 -90 -119 -102v-4h-83v4c0 14 2 174 203 174c131 0 197 -65 197 -179v-310zM219 56c103 0 148 93 148 152v2l-132 -13c-36 -3 -62 -12 -77 -28c-12 -12 -18 -27 -18 -47c0 -19 6 -33 18 -45c13 -14 34 -21 61 -21z" />
    <glyph glyph-name="aring" unicode="&#xe5;" horiz-adv-x="519" 
d="M257 541c-62 0 -112 44 -112 110s50 110 112 110c61 0 111 -44 111 -110s-50 -110 -111 -110zM257 709c-34 0 -57 -25 -57 -58c0 -34 23 -58 57 -58c33 0 56 24 56 58c0 33 -23 58 -56 58zM250 489c131 0 197 -65 197 -179v-310h-83l21 133h-14
c-24 -97 -80 -147 -170 -147c-44 0 -82 15 -107 41c-24 24 -37 56 -37 95c0 40 12 71 36 95c28 28 72 44 130 47l144 9v37c0 66 -38 107 -118 107c-118 0 -119 -90 -119 -102v-4h-83v4c0 14 2 174 203 174zM219 56c103 0 148 93 148 152v2l-132 -13c-36 -3 -62 -12 -77 -28
c-12 -12 -18 -27 -18 -47c0 -19 6 -33 18 -45c13 -14 34 -21 61 -21z" />
    <glyph glyph-name="atilde" unicode="&#xe3;" horiz-adv-x="519" 
d="M188 612c-24 0 -48 -15 -48 -39h-58c0 77 58 101 106 101c57 0 82 -41 137 -41c25 0 47 13 48 39h58c0 -77 -59 -101 -106 -101c-57 0 -83 41 -137 41zM250 489c131 0 197 -65 197 -179v-310h-83l21 133h-14c-24 -97 -80 -147 -170 -147c-44 0 -82 15 -107 41
c-24 24 -37 56 -37 95c0 40 12 71 36 95c28 28 72 44 130 47l144 9v37c0 66 -38 107 -118 107c-118 0 -119 -90 -119 -102v-4h-83v4c0 14 2 174 203 174zM219 56c103 0 148 93 148 152v2l-132 -13c-36 -3 -62 -12 -77 -28c-12 -12 -18 -27 -18 -47c0 -19 6 -33 18 -45
c13 -14 34 -21 61 -21z" />
    <glyph glyph-name="cacute" unicode="&#x107;" horiz-adv-x="537" 
d="M315 539h-71l75 150h97zM270 -14c-81 0 -144 32 -184 90c-29 41 -44 95 -44 159c0 67 17 122 46 163c40 59 106 91 190 91c123 0 212 -76 216 -186h-80c-9 71 -59 114 -136 114c-53 0 -94 -21 -120 -58c-22 -31 -33 -72 -33 -123c0 -50 11 -90 32 -120
c25 -37 65 -58 116 -58c75 0 122 42 131 114h80c-4 -111 -90 -186 -214 -186z" />
    <glyph glyph-name="ccaron" unicode="&#x10d;" horiz-adv-x="537" 
d="M317 539h-82l-126 150h88l79 -105l79 105h87zM270 -14c-81 0 -144 32 -184 90c-29 41 -44 95 -44 159c0 67 17 122 46 163c40 59 106 91 190 91c123 0 212 -76 216 -186h-80c-9 71 -59 114 -136 114c-53 0 -94 -21 -120 -58c-22 -31 -33 -72 -33 -123
c0 -50 11 -90 32 -120c25 -37 65 -58 116 -58c75 0 122 42 131 114h80c-4 -111 -90 -186 -214 -186z" />
    <glyph glyph-name="ccedilla" unicode="&#xe7;" horiz-adv-x="537" 
d="M273 58c75 0 122 42 131 114h80c-4 -102 -77 -174 -185 -185l-5 -17c36 -13 54 -39 54 -71c0 -51 -42 -91 -104 -91c-54 0 -111 27 -117 103h61c6 -38 28 -51 54 -51c27 0 46 16 46 39c0 19 -16 34 -38 34l-19 25l10 29c-67 7 -120 38 -155 89c-29 41 -44 95 -44 159
c0 67 17 122 46 163c40 59 106 91 190 91c123 0 212 -76 216 -186h-80c-9 71 -59 114 -136 114c-53 0 -94 -21 -120 -58c-22 -31 -33 -72 -33 -123c0 -50 11 -90 32 -120c25 -37 65 -58 116 -58z" />
    <glyph glyph-name="ccircumflex" unicode="&#x109;" horiz-adv-x="537" 
d="M197 539h-88l126 148h82l125 -148h-87l-79 104zM270 -14c-81 0 -144 32 -184 90c-29 41 -44 95 -44 159c0 67 17 122 46 163c40 59 106 91 190 91c123 0 212 -76 216 -186h-80c-9 71 -59 114 -136 114c-53 0 -94 -21 -120 -58c-22 -31 -33 -72 -33 -123
c0 -50 11 -90 32 -120c25 -37 65 -58 116 -58c75 0 122 42 131 114h80c-4 -111 -90 -186 -214 -186z" />
    <glyph glyph-name="cdotaccent" unicode="&#x10b;" horiz-adv-x="537" 
d="M322 556h-92v117h92v-117zM270 -14c-81 0 -144 32 -184 90c-29 41 -44 95 -44 159c0 67 17 122 46 163c40 59 106 91 190 91c123 0 212 -76 216 -186h-80c-9 71 -59 114 -136 114c-53 0 -94 -21 -120 -58c-22 -31 -33 -72 -33 -123c0 -50 11 -90 32 -120
c25 -37 65 -58 116 -58c75 0 122 42 131 114h80c-4 -111 -90 -186 -214 -186z" />
    <glyph glyph-name="dcaron" unicode="&#x10f;" horiz-adv-x="600" 
d="M264 -14c-74 0 -135 32 -174 89c-29 42 -44 97 -44 163s15 121 44 162c39 57 100 89 174 89c91 0 156 -49 182 -147h14l-21 133v225h79v-700h-79l21 133h-14c-26 -97 -91 -147 -182 -147zM598 537h-49l37 163h88zM284 58c54 0 96 21 123 60c21 30 33 71 33 120
s-12 89 -33 119c-27 39 -69 60 -123 60c-53 0 -95 -21 -122 -60c-21 -30 -33 -70 -33 -119s12 -90 33 -120c27 -39 69 -60 122 -60z" />
    <glyph glyph-name="dcroat" unicode="&#x111;" horiz-adv-x="600" 
d="M518 621h55v-57h-55v-564h-79l21 133h-14c-26 -97 -91 -147 -182 -147c-74 0 -135 32 -174 89c-29 42 -44 97 -44 163s15 121 44 162c39 57 100 89 174 89c91 0 156 -49 182 -147h14l-21 133v89h-122v57h122v79h79v-79zM407 118c21 30 33 71 33 120s-12 89 -33 119
c-27 39 -69 60 -123 60c-53 0 -95 -21 -122 -60c-21 -30 -33 -70 -33 -119s12 -90 33 -120c27 -39 69 -60 122 -60c54 0 96 21 123 60z" />
    <glyph glyph-name="eacute" unicode="&#xe9;" horiz-adv-x="531" 
d="M315 689h97l-101 -150h-71zM489 251v-35h-363c2 -41 13 -74 31 -100c25 -37 65 -58 121 -58c64 0 112 32 130 87h80c-18 -92 -102 -159 -208 -159c-91 0 -154 32 -194 90c-29 41 -44 95 -44 159c0 67 19 122 48 163c40 59 105 91 181 91c137 0 218 -89 218 -238zM128 283
h276c-4 87 -52 135 -133 135c-46 0 -89 -21 -115 -59c-14 -20 -23 -46 -28 -76z" />
    <glyph glyph-name="ebreve" unicode="&#x115;" horiz-adv-x="531" 
d="M273 541c-84 0 -150 47 -150 148h67c0 -63 38 -93 83 -93c46 0 83 30 83 93h67c0 -102 -66 -148 -150 -148zM489 251v-35h-363c2 -41 13 -74 31 -100c25 -37 65 -58 121 -58c64 0 112 32 130 87h80c-18 -92 -102 -159 -208 -159c-91 0 -154 32 -194 90
c-29 41 -44 95 -44 159c0 67 19 122 48 163c40 59 105 91 181 91c137 0 218 -89 218 -238zM128 283h276c-4 87 -52 135 -133 135c-46 0 -89 -21 -115 -59c-14 -20 -23 -46 -28 -76z" />
    <glyph glyph-name="ecaron" unicode="&#x11b;" horiz-adv-x="531" 
d="M438 689l-125 -150h-82l-126 150h88l79 -105l79 105h87zM489 251v-35h-363c2 -41 13 -74 31 -100c25 -37 65 -58 121 -58c64 0 112 32 130 87h80c-18 -92 -102 -159 -208 -159c-91 0 -154 32 -194 90c-29 41 -44 95 -44 159c0 67 19 122 48 163c40 59 105 91 181 91
c137 0 218 -89 218 -238zM128 283h276c-4 87 -52 135 -133 135c-46 0 -89 -21 -115 -59c-14 -20 -23 -46 -28 -76z" />
    <glyph glyph-name="ecircumflex" unicode="&#xea;" horiz-adv-x="531" 
d="M351 539l-79 104l-79 -104h-88l126 148h82l125 -148h-87zM489 251v-35h-363c2 -41 13 -74 31 -100c25 -37 65 -58 121 -58c64 0 112 32 130 87h80c-18 -92 -102 -159 -208 -159c-91 0 -154 32 -194 90c-29 41 -44 95 -44 159c0 67 19 122 48 163c40 59 105 91 181 91
c137 0 218 -89 218 -238zM128 283h276c-4 87 -52 135 -133 135c-46 0 -89 -21 -115 -59c-14 -20 -23 -46 -28 -76z" />
    <glyph glyph-name="edieresis" unicode="&#xeb;" horiz-adv-x="531" 
d="M135 664h91v-102h-91v102zM318 664h91v-102h-91v102zM489 251v-35h-363c2 -41 13 -74 31 -100c25 -37 65 -58 121 -58c64 0 112 32 130 87h80c-18 -92 -102 -159 -208 -159c-91 0 -154 32 -194 90c-29 41 -44 95 -44 159c0 67 19 122 48 163c40 59 105 91 181 91
c137 0 218 -89 218 -238zM128 283h276c-4 87 -52 135 -133 135c-46 0 -89 -21 -115 -59c-14 -20 -23 -46 -28 -76z" />
    <glyph glyph-name="edotaccent" unicode="&#x117;" horiz-adv-x="531" 
d="M226 673h92v-117h-92v117zM489 251v-35h-363c2 -41 13 -74 31 -100c25 -37 65 -58 121 -58c64 0 112 32 130 87h80c-18 -92 -102 -159 -208 -159c-91 0 -154 32 -194 90c-29 41 -44 95 -44 159c0 67 19 122 48 163c40 59 105 91 181 91c137 0 218 -89 218 -238zM128 283
h276c-4 87 -52 135 -133 135c-46 0 -89 -21 -115 -59c-14 -20 -23 -46 -28 -76z" />
    <glyph glyph-name="egrave" unicode="&#xe8;" horiz-adv-x="531" 
d="M234 689l74 -150h-70l-102 150h98zM489 251v-35h-363c2 -41 13 -74 31 -100c25 -37 65 -58 121 -58c64 0 112 32 130 87h80c-18 -92 -102 -159 -208 -159c-91 0 -154 32 -194 90c-29 41 -44 95 -44 159c0 67 19 122 48 163c40 59 105 91 181 91c137 0 218 -89 218 -238z
M128 283h276c-4 87 -52 135 -133 135c-46 0 -89 -21 -115 -59c-14 -20 -23 -46 -28 -76z" />
    <glyph glyph-name="emacron" unicode="&#x113;" horiz-adv-x="531" 
d="M119 644h307v-57h-307v57zM489 251v-35h-363c2 -41 13 -74 31 -100c25 -37 65 -58 121 -58c64 0 112 32 130 87h80c-18 -92 -102 -159 -208 -159c-91 0 -154 32 -194 90c-29 41 -44 95 -44 159c0 67 19 122 48 163c40 59 105 91 181 91c137 0 218 -89 218 -238zM128 283
h276c-4 87 -52 135 -133 135c-46 0 -89 -21 -115 -59c-14 -20 -23 -46 -28 -76z" />
    <glyph glyph-name="eogonek" unicode="&#x119;" horiz-adv-x="531" 
d="M489 251v-35h-363c2 -41 13 -74 31 -100c25 -37 65 -58 121 -58c64 0 112 32 130 87h80c-14 -71 -67 -127 -139 -149c-37 -17 -57 -36 -57 -65c0 -32 30 -54 86 -54v-69c-106 0 -158 48 -158 106c0 29 12 53 34 73c-77 6 -132 37 -168 89c-29 41 -44 95 -44 159
c0 67 19 122 48 163c40 59 105 91 181 91c137 0 218 -89 218 -238zM128 283h276c-4 87 -52 135 -133 135c-46 0 -89 -21 -115 -59c-14 -20 -23 -46 -28 -76z" />
    <glyph glyph-name="gbreve" unicode="&#x11f;" horiz-adv-x="569" 
d="M286 541c-84 0 -150 47 -150 148h67c0 -63 38 -93 83 -93c46 0 83 30 83 93h67c0 -102 -66 -148 -150 -148zM267 -192c-139 0 -214 69 -220 192h80c5 -76 53 -120 140 -120c93 0 146 54 146 150v13l28 133h-13c-28 -104 -93 -146 -171 -146c-72 0 -132 29 -169 83
c-27 38 -41 88 -41 146c0 59 14 108 41 147c37 53 97 83 169 83c78 0 143 -43 171 -147h13l-28 133h80v-417c0 -166 -76 -250 -226 -250zM272 100c48 0 88 19 113 55c20 29 29 63 29 104c0 42 -9 75 -29 105c-25 35 -65 55 -113 55c-49 0 -88 -20 -113 -55
c-21 -30 -30 -63 -30 -105c0 -41 9 -75 30 -104c25 -36 64 -55 113 -55z" />
    <glyph glyph-name="gcircumflex" unicode="&#x11d;" horiz-adv-x="569" 
d="M207 539h-88l126 148h82l125 -148h-87l-79 104zM267 -192c-139 0 -214 69 -220 192h80c5 -76 53 -120 140 -120c93 0 146 54 146 150v13l28 133h-13c-28 -104 -93 -146 -171 -146c-72 0 -132 29 -169 83c-27 38 -41 88 -41 146c0 59 14 108 41 147c37 53 97 83 169 83
c78 0 143 -43 171 -147h13l-28 133h80v-417c0 -166 -76 -250 -226 -250zM272 100c48 0 88 19 113 55c20 29 29 63 29 104c0 42 -9 75 -29 105c-25 35 -65 55 -113 55c-49 0 -88 -20 -113 -55c-21 -30 -30 -63 -30 -105c0 -41 9 -75 30 -104c25 -36 64 -55 113 -55z" />
    <glyph glyph-name="uni0123" unicode="&#x123;" horiz-adv-x="569" 
d="M334 542h-99v57c0 70 37 109 101 109v-45c-25 0 -40 -16 -40 -43h38v-78zM267 -192c-139 0 -214 69 -220 192h80c5 -76 53 -120 140 -120c93 0 146 54 146 150v13l28 133h-13c-28 -104 -93 -146 -171 -146c-72 0 -132 29 -169 83c-27 38 -41 88 -41 146
c0 59 14 108 41 147c37 53 97 83 169 83c78 0 143 -43 171 -147h13l-28 133h80v-417c0 -166 -76 -250 -226 -250zM272 100c48 0 88 19 113 55c20 29 29 63 29 104c0 42 -9 75 -29 105c-25 35 -65 55 -113 55c-49 0 -88 -20 -113 -55c-21 -30 -30 -63 -30 -105
c0 -41 9 -75 30 -104c25 -36 64 -55 113 -55z" />
    <glyph glyph-name="gdotaccent" unicode="&#x121;" horiz-adv-x="569" 
d="M332 556h-92v117h92v-117zM267 -192c-139 0 -214 69 -220 192h80c5 -76 53 -120 140 -120c93 0 146 54 146 150v13l28 133h-13c-28 -104 -93 -146 -171 -146c-72 0 -132 29 -169 83c-27 38 -41 88 -41 146c0 59 14 108 41 147c37 53 97 83 169 83c78 0 143 -43 171 -147
h13l-28 133h80v-417c0 -166 -76 -250 -226 -250zM272 100c48 0 88 19 113 55c20 29 29 63 29 104c0 42 -9 75 -29 105c-25 35 -65 55 -113 55c-49 0 -88 -20 -113 -55c-21 -30 -30 -63 -30 -105c0 -41 9 -75 30 -104c25 -36 64 -55 113 -55z" />
    <glyph glyph-name="hbar" unicode="&#x127;" horiz-adv-x="565" 
d="M323 489c112 0 170 -69 170 -196v-293h-80v283c0 87 -39 132 -112 132c-86 0 -140 -67 -140 -170v-245h-80v564h-54v57h54v79h80v-79h122v-57h-122v-89l-21 -133h13c27 98 88 147 170 147z" />
    <glyph glyph-name="hcircumflex" unicode="&#x125;" horiz-adv-x="565" 
d="M50 755h-92l118 110h92l118 -110h-92l-71 66zM161 0h-80v700h80v-225l-21 -133h13c27 98 88 147 170 147c112 0 170 -69 170 -196v-293h-80v283c0 87 -39 132 -112 132c-86 0 -140 -67 -140 -170v-245z" />
    <glyph glyph-name="iacute" unicode="&#xed;" horiz-adv-x="243" 
d="M161 539h-71l75 150h97zM161 0h-80v475h80v-475z" />
    <glyph glyph-name="ibreve" unicode="&#x12d;" horiz-adv-x="243" 
d="M122 541c-84 0 -150 47 -150 148h67c0 -63 38 -93 83 -93c46 0 83 30 83 93h67c0 -102 -66 -148 -150 -148zM161 0h-80v475h80v-475z" />
    <glyph glyph-name="icircumflex" unicode="&#xee;" horiz-adv-x="243" 
d="M42 539h-88l126 148h82l125 -148h-87l-79 104zM161 0h-80v475h80v-475z" />
    <glyph glyph-name="idieresis" unicode="&#xef;" horiz-adv-x="243" 
d="M75 562h-91v102h91v-102zM258 562h-91v102h91v-102zM161 0h-80v475h80v-475z" />
    <glyph glyph-name="dotlessi" unicode="&#x131;" horiz-adv-x="243" 
d="M161 0h-80v475h80v-475z" />
    <glyph glyph-name="igrave" unicode="&#xec;" horiz-adv-x="243" 
d="M157 539h-70l-102 150h98zM161 0h-80v475h80v-475z" />
    <glyph glyph-name="ij" unicode="&#x133;" horiz-adv-x="502" 
d="M168 556h-92v117h92v-117zM427 556h-92v117h92v-117zM161 0h-80v475h80v-475zM274 -192c-89 0 -136 49 -139 131h79c3 -39 24 -60 62 -60c43 0 65 30 65 84v512h80v-496c0 -112 -49 -171 -147 -171z" />
    <glyph glyph-name="uni006A0301" horiz-adv-x="259" 
d="M177 539h-71l75 150h97zM31 -192c-89 0 -136 49 -139 131h79c3 -39 24 -60 62 -60c43 0 65 30 65 84v512h80v-496c0 -112 -49 -171 -147 -171z" />
    <glyph glyph-name="imacron" unicode="&#x12b;" horiz-adv-x="243" 
d="M275 587h-307v57h307v-57zM161 0h-80v475h80v-475z" />
    <glyph glyph-name="iogonek" unicode="&#x12f;" horiz-adv-x="243" 
d="M76 556v117h92v-117h-92zM81 18v457h80v-475h-28c-43 -18 -66 -38 -66 -69c0 -32 30 -54 86 -54v-69c-106 0 -158 48 -158 106c0 47 32 82 86 104z" />
    <glyph glyph-name="itilde" unicode="&#x129;" horiz-adv-x="243" 
d="M190 571c-57 0 -83 41 -137 41c-24 0 -48 -15 -48 -39h-58c0 77 58 101 106 101c57 0 82 -41 137 -41c25 0 47 13 48 39h58c0 -77 -59 -101 -106 -101zM161 0h-80v475h80v-475z" />
    <glyph glyph-name="jcircumflex" unicode="&#x135;" horiz-adv-x="259" 
d="M59 539h-88l126 148h82l125 -148h-87l-79 104zM31 -192c-89 0 -136 49 -139 131h79c3 -39 24 -60 62 -60c43 0 65 30 65 84v512h80v-496c0 -112 -49 -171 -147 -171z" />
    <glyph glyph-name="uni0237" unicode="&#x237;" horiz-adv-x="259" 
d="M31 -192c-89 0 -136 49 -139 131h79c3 -39 24 -60 62 -60c43 0 65 30 65 84v512h80v-496c0 -112 -49 -171 -147 -171z" />
    <glyph glyph-name="uni0137" unicode="&#x137;" horiz-adv-x="515" 
d="M405 475h99l-203 -211l198 -264h-101l-155 210l-82 -84v-126h-80v700h80v-438l-28 -54h14zM266 -107h-42v73h89v-57c0 -59 -33 -94 -91 -94v47c28 0 44 11 44 31z" />
    <glyph glyph-name="kgreenlandic" unicode="&#x138;" horiz-adv-x="516" 
d="M407 475h98l-209 -217l204 -258h-101l-160 205l-78 -79v-126h-80v475h80v-208l-21 -51h14z" />
    <glyph glyph-name="lacute" unicode="&#x13a;" horiz-adv-x="243" 
d="M161 755h-79l72 110h95zM161 0h-80v700h80v-700z" />
    <glyph glyph-name="lcaron" unicode="&#x13e;" horiz-adv-x="243" 
d="M161 0h-80v700h80v-700zM241 537h-49l37 163h88z" />
    <glyph glyph-name="uni013C" unicode="&#x13c;" horiz-adv-x="243" 
d="M161 0h-80v700h80v-700zM76 -185v47c28 0 44 11 44 31h-42v73h89v-57c0 -59 -33 -94 -91 -94z" />
    <glyph glyph-name="ldot" unicode="&#x140;" horiz-adv-x="306" 
d="M161 0h-80v700h80v-700zM330 353h-110v122h110v-122z" />
    <glyph glyph-name="lslash" unicode="&#x142;" horiz-adv-x="350" 
d="M214 428l69 47v-64l-69 -47v-364h-80v310l-68 -46v64l68 46v326h80v-272z" />
    <glyph glyph-name="nacute" unicode="&#x144;" horiz-adv-x="565" 
d="M337 539h-71l75 150h97zM161 0h-80v475h80l-21 -133h13c27 98 86 147 168 147c112 0 172 -69 172 -196v-293h-80v283c0 87 -39 132 -112 132c-86 0 -140 -67 -140 -170v-245z" />
    <glyph glyph-name="napostrophe" unicode="&#x149;" horiz-adv-x="766" 
d="M62 472v59c40 0 52 16 52 71h-52v112h107v-100c0 -96 -35 -142 -107 -142zM362 0h-80v475h80l-21 -133h13c27 98 86 147 168 147c112 0 172 -69 172 -196v-293h-80v283c0 87 -39 132 -112 132c-86 0 -140 -67 -140 -170v-245z" />
    <glyph glyph-name="ncaron" unicode="&#x148;" horiz-adv-x="565" 
d="M339 539h-82l-126 150h88l79 -105l79 105h87zM161 0h-80v475h80l-21 -133h13c27 98 86 147 168 147c112 0 172 -69 172 -196v-293h-80v283c0 87 -39 132 -112 132c-86 0 -140 -67 -140 -170v-245z" />
    <glyph glyph-name="uni0146" unicode="&#x146;" horiz-adv-x="565" 
d="M161 0h-80v475h80l-21 -133h13c27 98 86 147 168 147c112 0 172 -69 172 -196v-293h-80v283c0 87 -39 132 -112 132c-86 0 -140 -67 -140 -170v-245zM245 -185v47c28 0 44 11 44 31h-42v73h89v-57c0 -59 -33 -94 -91 -94z" />
    <glyph glyph-name="ntilde" unicode="&#xf1;" horiz-adv-x="565" 
d="M367 571c-57 0 -83 41 -137 41c-24 0 -48 -15 -48 -39h-58c0 77 58 101 106 101c57 0 82 -41 137 -41c25 0 47 13 48 39h58c0 -77 -59 -101 -106 -101zM161 0h-80v475h80l-21 -133h13c27 98 86 147 168 147c112 0 172 -69 172 -196v-293h-80v283c0 87 -39 132 -112 132
c-86 0 -140 -67 -140 -170v-245z" />
    <glyph glyph-name="eng" unicode="&#x14b;" horiz-adv-x="565" 
d="M321 489c112 0 172 -69 172 -196v-330c0 -92 -56 -153 -143 -153v68c40 0 63 31 63 85v320c0 87 -39 132 -112 132c-86 0 -140 -67 -140 -170v-245h-80v475h80l-21 -133h13c27 98 86 147 168 147z" />
    <glyph glyph-name="oacute" unicode="&#xf3;" horiz-adv-x="572" 
d="M325 539h-71l75 150h97zM286 -14c-87 0 -157 37 -200 100c-28 40 -44 92 -44 152c0 59 16 111 44 152c43 62 113 99 200 99c86 0 157 -37 200 -99c28 -41 43 -93 43 -152c0 -60 -16 -112 -43 -152c-43 -63 -114 -100 -200 -100zM286 58c56 0 101 25 129 66
c21 30 32 69 32 114s-11 83 -32 113c-28 41 -73 66 -129 66s-101 -25 -130 -66c-20 -30 -31 -68 -31 -113s11 -84 31 -114c29 -41 74 -66 130 -66z" />
    <glyph glyph-name="obreve" unicode="&#x14f;" horiz-adv-x="572" 
d="M286 541c-84 0 -150 47 -150 148h67c0 -63 38 -93 83 -93c46 0 83 30 83 93h67c0 -102 -66 -148 -150 -148zM286 -14c-87 0 -157 37 -200 100c-28 40 -44 92 -44 152c0 59 16 111 44 152c43 62 113 99 200 99c86 0 157 -37 200 -99c28 -41 43 -93 43 -152
c0 -60 -16 -112 -43 -152c-43 -63 -114 -100 -200 -100zM286 58c56 0 101 25 129 66c21 30 32 69 32 114s-11 83 -32 113c-28 41 -73 66 -129 66s-101 -25 -130 -66c-20 -30 -31 -68 -31 -113s11 -84 31 -114c29 -41 74 -66 130 -66z" />
    <glyph glyph-name="ocircumflex" unicode="&#xf4;" horiz-adv-x="572" 
d="M206 539h-88l126 148h82l125 -148h-87l-79 104zM286 -14c-87 0 -157 37 -200 100c-28 40 -44 92 -44 152c0 59 16 111 44 152c43 62 113 99 200 99c86 0 157 -37 200 -99c28 -41 43 -93 43 -152c0 -60 -16 -112 -43 -152c-43 -63 -114 -100 -200 -100zM286 58
c56 0 101 25 129 66c21 30 32 69 32 114s-11 83 -32 113c-28 41 -73 66 -129 66s-101 -25 -130 -66c-20 -30 -31 -68 -31 -113s11 -84 31 -114c29 -41 74 -66 130 -66z" />
    <glyph glyph-name="odieresis" unicode="&#xf6;" horiz-adv-x="572" 
d="M239 562h-91v102h91v-102zM422 562h-91v102h91v-102zM286 -14c-87 0 -157 37 -200 100c-28 40 -44 92 -44 152c0 59 16 111 44 152c43 62 113 99 200 99c86 0 157 -37 200 -99c28 -41 43 -93 43 -152c0 -60 -16 -112 -43 -152c-43 -63 -114 -100 -200 -100zM286 58
c56 0 101 25 129 66c21 30 32 69 32 114s-11 83 -32 113c-28 41 -73 66 -129 66s-101 -25 -130 -66c-20 -30 -31 -68 -31 -113s11 -84 31 -114c29 -41 74 -66 130 -66z" />
    <glyph glyph-name="oe" unicode="&#x153;" horiz-adv-x="896" 
d="M853 251v-35h-343c2 -41 13 -74 31 -100c26 -37 65 -58 112 -58c59 0 103 32 120 87h79c-16 -92 -95 -159 -198 -159c-80 0 -144 32 -184 90l-4 6v0c-42 -63 -114 -96 -190 -96c-77 0 -148 33 -191 96c-28 40 -43 93 -43 156c0 62 15 115 43 156c43 62 114 95 191 95
c76 0 148 -33 190 -95l3 -4c1 3 3 5 5 8c41 59 106 91 172 91c131 0 207 -89 207 -238zM512 282h256c-4 88 -47 136 -122 136c-37 0 -78 -16 -104 -53c-14 -21 -25 -50 -30 -83zM276 58c46 0 92 21 120 62c20 30 31 70 31 118s-11 87 -31 117c-28 41 -74 62 -120 62
s-92 -21 -120 -62c-21 -30 -31 -69 -31 -117s10 -88 31 -118c28 -41 74 -62 120 -62z" />
    <glyph glyph-name="ograve" unicode="&#xf2;" horiz-adv-x="572" 
d="M321 539h-70l-102 150h98zM286 -14c-87 0 -157 37 -200 100c-28 40 -44 92 -44 152c0 59 16 111 44 152c43 62 113 99 200 99c86 0 157 -37 200 -99c28 -41 43 -93 43 -152c0 -60 -16 -112 -43 -152c-43 -63 -114 -100 -200 -100zM286 58c56 0 101 25 129 66
c21 30 32 69 32 114s-11 83 -32 113c-28 41 -73 66 -129 66s-101 -25 -130 -66c-20 -30 -31 -68 -31 -113s11 -84 31 -114c29 -41 74 -66 130 -66z" />
    <glyph glyph-name="ohungarumlaut" unicode="&#x151;" horiz-adv-x="572" 
d="M240 539h-60l72 143h88zM399 539h-61l72 143h88zM286 -14c-87 0 -157 37 -200 100c-28 40 -44 92 -44 152c0 59 16 111 44 152c43 62 113 99 200 99c86 0 157 -37 200 -99c28 -41 43 -93 43 -152c0 -60 -16 -112 -43 -152c-43 -63 -114 -100 -200 -100zM286 58
c56 0 101 25 129 66c21 30 32 69 32 114s-11 83 -32 113c-28 41 -73 66 -129 66s-101 -25 -130 -66c-20 -30 -31 -68 -31 -113s11 -84 31 -114c29 -41 74 -66 130 -66z" />
    <glyph glyph-name="omacron" unicode="&#x14d;" horiz-adv-x="572" 
d="M439 587h-307v57h307v-57zM286 -14c-87 0 -157 37 -200 100c-28 40 -44 92 -44 152c0 59 16 111 44 152c43 62 113 99 200 99c86 0 157 -37 200 -99c28 -41 43 -93 43 -152c0 -60 -16 -112 -43 -152c-43 -63 -114 -100 -200 -100zM286 58c56 0 101 25 129 66
c21 30 32 69 32 114s-11 83 -32 113c-28 41 -73 66 -129 66s-101 -25 -130 -66c-20 -30 -31 -68 -31 -113s11 -84 31 -114c29 -41 74 -66 130 -66z" />
    <glyph glyph-name="ordfeminine" unicode="&#xaa;" horiz-adv-x="447" 
d="M211 710c109 0 164 -54 164 -148v-258h-69l17 110h-11c-20 -81 -67 -122 -142 -122c-37 0 -68 13 -89 34c-20 20 -31 47 -31 79c0 34 10 59 30 79c23 24 60 37 108 39l120 8v31c0 55 -31 88 -98 88c-99 0 -99 -75 -99 -84v-4h-69v4c0 11 1 144 169 144zM185 350
c85 0 123 78 123 127v1l-110 -11c-30 -2 -51 -10 -64 -23c-10 -10 -15 -23 -15 -39c0 -15 5 -28 15 -37c11 -12 29 -18 51 -18z" />
    <glyph glyph-name="ordmasculine" unicode="&#xba;" horiz-adv-x="489" 
d="M245 290c-72 0 -131 31 -166 83c-23 34 -37 77 -37 126c0 50 13 93 37 127c35 52 94 82 166 82s131 -30 166 -82c23 -34 37 -77 37 -127c0 -49 -14 -92 -37 -126c-35 -53 -94 -83 -166 -83zM245 350c46 0 84 21 108 55c17 25 26 57 26 94c0 38 -9 70 -26 95
c-24 34 -62 54 -108 54c-47 0 -84 -20 -108 -54c-17 -25 -26 -57 -26 -95c0 -37 9 -69 26 -94c24 -34 61 -55 108 -55z" />
    <glyph glyph-name="oslash" unicode="&#xf8;" horiz-adv-x="572" 
d="M539 489l-68 -79l15 -20c28 -41 43 -93 43 -152c0 -60 -16 -112 -43 -152c-43 -63 -114 -100 -200 -100c-56 0 -104 15 -143 42l-35 -40h-73l67 78c-6 6 -11 13 -16 20c-28 40 -44 92 -44 152c0 59 16 111 44 152c43 62 113 99 200 99c55 0 104 -15 143 -42l36 42h74z
M125 238c0 -44 10 -82 29 -111l225 261c-26 19 -57 29 -93 29c-56 0 -101 -25 -130 -66c-20 -30 -31 -68 -31 -113zM415 124c21 30 32 69 32 114c0 43 -10 80 -30 110l-224 -261c25 -19 57 -29 93 -29c56 0 101 25 129 66z" />
    <glyph glyph-name="oslashacute" unicode="&#x1ff;" horiz-adv-x="572" 
d="M329 689h97l-101 -150h-71zM539 489l-68 -79l15 -20c28 -41 43 -93 43 -152c0 -60 -16 -112 -43 -152c-43 -63 -114 -100 -200 -100c-56 0 -104 15 -143 42l-35 -40h-73l67 78c-6 6 -11 13 -16 20c-28 40 -44 92 -44 152c0 59 16 111 44 152c43 62 113 99 200 99
c55 0 104 -15 143 -42l36 42h74zM125 238c0 -44 10 -82 29 -111l225 261c-26 19 -57 29 -93 29c-56 0 -101 -25 -130 -66c-20 -30 -31 -68 -31 -113zM415 124c21 30 32 69 32 114c0 43 -10 80 -30 110l-224 -261c25 -19 57 -29 93 -29c56 0 101 25 129 66z" />
    <glyph glyph-name="otilde" unicode="&#xf5;" horiz-adv-x="572" 
d="M354 571c-57 0 -83 41 -137 41c-24 0 -48 -15 -48 -39h-58c0 77 58 101 106 101c57 0 82 -41 137 -41c25 0 47 13 48 39h58c0 -77 -59 -101 -106 -101zM286 -14c-87 0 -157 37 -200 100c-28 40 -44 92 -44 152c0 59 16 111 44 152c43 62 113 99 200 99
c86 0 157 -37 200 -99c28 -41 43 -93 43 -152c0 -60 -16 -112 -43 -152c-43 -63 -114 -100 -200 -100zM286 58c56 0 101 25 129 66c21 30 32 69 32 114s-11 83 -32 113c-28 41 -73 66 -129 66s-101 -25 -130 -66c-20 -30 -31 -68 -31 -113s11 -84 31 -114
c29 -41 74 -66 130 -66z" />
    <glyph glyph-name="racute" unicode="&#x155;" horiz-adv-x="463" 
d="M299 539h-71l75 150h97zM161 0h-80v475h80l-24 -140h15c17 102 71 154 146 154c89 0 134 -58 134 -153v-96h-83v64c0 75 -26 109 -81 109c-70 0 -107 -59 -107 -168v-245z" />
    <glyph glyph-name="rcaron" unicode="&#x159;" horiz-adv-x="463" 
d="M300 539h-82l-126 150h88l79 -105l79 105h87zM161 0h-80v475h80l-24 -140h15c17 102 71 154 146 154c89 0 134 -58 134 -153v-96h-83v64c0 75 -26 109 -81 109c-70 0 -107 -59 -107 -168v-245z" />
    <glyph glyph-name="uni0157" unicode="&#x157;" horiz-adv-x="463" 
d="M161 0h-80v475h80l-24 -140h15c17 102 71 154 146 154c89 0 134 -58 134 -153v-96h-83v64c0 75 -26 109 -81 109c-70 0 -107 -59 -107 -168v-245zM76 -185v47c28 0 44 11 44 31h-42v73h89v-57c0 -59 -33 -94 -91 -94z" />
    <glyph glyph-name="sacute" unicode="&#x15b;" horiz-adv-x="483" 
d="M279 539h-71l75 150h97zM238 -14c-116 0 -186 62 -186 163v6h80v-6c0 -62 39 -94 109 -94c36 0 63 8 79 24c12 12 19 28 19 46c0 39 -24 60 -79 71l-64 13c-89 18 -136 60 -136 137c0 39 13 70 37 95c31 31 81 48 145 48c116 0 185 -62 185 -164v-5h-80v5
c0 62 -37 96 -109 96c-36 0 -63 -8 -80 -25c-11 -12 -18 -28 -18 -46c0 -38 26 -59 76 -69l66 -14c93 -19 137 -60 137 -137c0 -40 -13 -71 -37 -95c-31 -32 -81 -49 -144 -49z" />
    <glyph glyph-name="scaron" unicode="&#x161;" horiz-adv-x="483" 
d="M281 539h-82l-126 150h88l79 -105l79 105h87zM238 -14c-116 0 -186 62 -186 163v6h80v-6c0 -62 39 -94 109 -94c36 0 63 8 79 24c12 12 19 28 19 46c0 39 -24 60 -79 71l-64 13c-89 18 -136 60 -136 137c0 39 13 70 37 95c31 31 81 48 145 48c116 0 185 -62 185 -164v-5
h-80v5c0 62 -37 96 -109 96c-36 0 -63 -8 -80 -25c-11 -12 -18 -28 -18 -46c0 -38 26 -59 76 -69l66 -14c93 -19 137 -60 137 -137c0 -40 -13 -71 -37 -95c-31 -32 -81 -49 -144 -49z" />
    <glyph glyph-name="scedilla" unicode="&#x15f;" horiz-adv-x="483" 
d="M427 320h-80v5c0 62 -37 96 -109 96c-36 0 -63 -8 -80 -25c-11 -12 -18 -28 -18 -46c0 -38 26 -59 76 -69l66 -14c93 -19 137 -60 137 -137c0 -40 -13 -71 -37 -95c-28 -29 -70 -45 -124 -48l-5 -17c36 -13 54 -39 54 -71c0 -51 -42 -91 -104 -91c-54 0 -111 27 -117 103
h61c6 -38 28 -51 54 -51c27 0 46 16 46 39c0 19 -16 34 -38 34l-19 25l10 30c-93 13 -148 72 -148 161v6h80v-6c0 -62 39 -94 109 -94c36 0 63 8 79 24c12 12 19 28 19 46c0 39 -24 60 -79 71l-64 13c-89 18 -136 60 -136 137c0 39 13 70 37 95c31 31 81 48 145 48
c116 0 185 -62 185 -164v-5z" />
    <glyph glyph-name="scircumflex" unicode="&#x15d;" horiz-adv-x="483" 
d="M161 539h-88l126 148h82l125 -148h-87l-79 104zM238 -14c-116 0 -186 62 -186 163v6h80v-6c0 -62 39 -94 109 -94c36 0 63 8 79 24c12 12 19 28 19 46c0 39 -24 60 -79 71l-64 13c-89 18 -136 60 -136 137c0 39 13 70 37 95c31 31 81 48 145 48c116 0 185 -62 185 -164
v-5h-80v5c0 62 -37 96 -109 96c-36 0 -63 -8 -80 -25c-11 -12 -18 -28 -18 -46c0 -38 26 -59 76 -69l66 -14c93 -19 137 -60 137 -137c0 -40 -13 -71 -37 -95c-31 -32 -81 -49 -144 -49z" />
    <glyph glyph-name="uni0219" unicode="&#x219;" horiz-adv-x="483" 
d="M238 -14c-116 0 -186 62 -186 163v6h80v-6c0 -62 39 -94 109 -94c36 0 63 8 79 24c12 12 19 28 19 46c0 39 -24 60 -79 71l-64 13c-89 18 -136 60 -136 137c0 39 13 70 37 95c31 31 81 48 145 48c116 0 185 -62 185 -164v-5h-80v5c0 62 -37 96 -109 96
c-36 0 -63 -8 -80 -25c-11 -12 -18 -28 -18 -46c0 -38 26 -59 76 -69l66 -14c93 -19 137 -60 137 -137c0 -40 -13 -71 -37 -95c-31 -32 -81 -49 -144 -49zM191 -185v47c28 0 44 11 44 31h-42v73h89v-57c0 -59 -33 -94 -91 -94z" />
    <glyph glyph-name="tbar" unicode="&#x167;" horiz-adv-x="462" 
d="M417 475v-72h-219v-80h219v-57h-219v-117c0 -59 26 -91 69 -91c50 0 70 32 70 104v59h80v-60c0 -110 -53 -175 -149 -175c-101 0 -150 56 -150 163v117h-80v57h80v80h-102v72h102v99l80 39v-138h219z" />
    <glyph glyph-name="tcaron" unicode="&#x165;" horiz-adv-x="462" 
d="M296 700h88l-76 -163h-49zM417 475v-72h-219v-254c0 -59 26 -91 69 -91c50 0 70 32 70 104v73h80v-74c0 -110 -53 -175 -149 -175c-101 0 -150 56 -150 163v254h-102v72h102v99l80 39v-138h219z" />
    <glyph glyph-name="uni0163" unicode="&#x163;" horiz-adv-x="462" 
d="M417 475v-72h-219v-254c0 -59 26 -91 69 -91c50 0 70 32 70 104v73h80v-74c0 -103 -46 -166 -131 -174l-5 -17c36 -13 54 -39 54 -71c0 -51 -42 -91 -104 -91c-54 0 -111 27 -117 103h61c6 -38 28 -51 54 -51c27 0 46 16 46 39c0 19 -16 34 -38 34l-19 25l10 31
c-74 14 -110 68 -110 160v254h-102v72h102v99l80 39v-138h219z" />
    <glyph glyph-name="uni021B" unicode="&#x21b;" horiz-adv-x="462" 
d="M417 475v-72h-219v-254c0 -59 26 -91 69 -91c50 0 70 32 70 104v73h80v-74c0 -110 -53 -175 -149 -175c-101 0 -150 56 -150 163v254h-102v72h102v99l80 39v-138h219zM262 -107h-42v73h89v-57c0 -59 -33 -94 -91 -94v47c28 0 44 11 44 31z" />
    <glyph glyph-name="thorn" unicode="&#xfe;" horiz-adv-x="600" 
d="M510 400c28 -41 44 -96 44 -162s-16 -121 -44 -163c-39 -57 -100 -89 -174 -89c-91 0 -156 50 -183 147h-13l21 -133v-180h-80v880h80v-225l-21 -133h13c27 98 92 147 183 147c74 0 135 -32 174 -89zM438 118c21 30 33 71 33 120s-12 89 -33 119c-27 39 -69 60 -123 60
c-53 0 -96 -21 -122 -60c-22 -30 -33 -70 -33 -119s11 -90 33 -120c26 -39 69 -60 122 -60c54 0 96 21 123 60z" />
    <glyph glyph-name="uacute" unicode="&#xfa;" horiz-adv-x="555" 
d="M312 539h-71l75 150h97zM238 -14c-110 0 -166 69 -166 196v293h80v-282c0 -88 37 -132 107 -132c83 0 135 67 135 169v245h80v-475h-80l22 133h-14c-27 -97 -84 -147 -164 -147z" />
    <glyph glyph-name="ubreve" unicode="&#x16d;" horiz-adv-x="555" 
d="M273 541c-84 0 -150 47 -150 148h67c0 -63 38 -93 83 -93c46 0 83 30 83 93h67c0 -102 -66 -148 -150 -148zM238 -14c-110 0 -166 69 -166 196v293h80v-282c0 -88 37 -132 107 -132c83 0 135 67 135 169v245h80v-475h-80l22 133h-14c-27 -97 -84 -147 -164 -147z" />
    <glyph glyph-name="ucircumflex" unicode="&#xfb;" horiz-adv-x="555" 
d="M194 539h-88l126 148h82l125 -148h-87l-79 104zM238 -14c-110 0 -166 69 -166 196v293h80v-282c0 -88 37 -132 107 -132c83 0 135 67 135 169v245h80v-475h-80l22 133h-14c-27 -97 -84 -147 -164 -147z" />
    <glyph glyph-name="udieresis" unicode="&#xfc;" horiz-adv-x="555" 
d="M227 562h-91v102h91v-102zM410 562h-91v102h91v-102zM238 -14c-110 0 -166 69 -166 196v293h80v-282c0 -88 37 -132 107 -132c83 0 135 67 135 169v245h80v-475h-80l22 133h-14c-27 -97 -84 -147 -164 -147z" />
    <glyph glyph-name="ugrave" unicode="&#xf9;" horiz-adv-x="555" 
d="M308 539h-70l-102 150h98zM238 -14c-110 0 -166 69 -166 196v293h80v-282c0 -88 37 -132 107 -132c83 0 135 67 135 169v245h80v-475h-80l22 133h-14c-27 -97 -84 -147 -164 -147z" />
    <glyph glyph-name="uhungarumlaut" unicode="&#x171;" horiz-adv-x="555" 
d="M228 539h-60l72 143h88zM387 539h-61l72 143h88zM238 -14c-110 0 -166 69 -166 196v293h80v-282c0 -88 37 -132 107 -132c83 0 135 67 135 169v245h80v-475h-80l22 133h-14c-27 -97 -84 -147 -164 -147z" />
    <glyph glyph-name="umacron" unicode="&#x16b;" horiz-adv-x="555" 
d="M426 587h-307v57h307v-57zM238 -14c-110 0 -166 69 -166 196v293h80v-282c0 -88 37 -132 107 -132c83 0 135 67 135 169v245h80v-475h-80l22 133h-14c-27 -97 -84 -147 -164 -147z" />
    <glyph glyph-name="uogonek" unicode="&#x173;" horiz-adv-x="555" 
d="M474 0h-28c-43 -18 -66 -38 -66 -69c0 -32 30 -54 86 -54v-69c-106 0 -158 48 -158 106c0 48 33 84 89 105l19 114h-14c-27 -97 -84 -147 -164 -147c-110 0 -166 69 -166 196v293h80v-282c0 -88 37 -132 107 -132c83 0 135 67 135 169v245h80v-475z" />
    <glyph glyph-name="uring" unicode="&#x16f;" horiz-adv-x="555" 
d="M274 541c-62 0 -112 44 -112 110s50 110 112 110c61 0 111 -44 111 -110s-50 -110 -111 -110zM274 593c33 0 56 24 56 58c0 33 -23 58 -56 58c-34 0 -57 -25 -57 -58c0 -34 23 -58 57 -58zM238 -14c-110 0 -166 69 -166 196v293h80v-282c0 -88 37 -132 107 -132
c83 0 135 67 135 169v245h80v-475h-80l22 133h-14c-27 -97 -84 -147 -164 -147z" />
    <glyph glyph-name="utilde" unicode="&#x169;" horiz-adv-x="555" 
d="M342 571c-57 0 -83 41 -137 41c-24 0 -48 -15 -48 -39h-58c0 77 58 101 106 101c57 0 82 -41 137 -41c25 0 47 13 48 39h58c0 -77 -59 -101 -106 -101zM238 -14c-110 0 -166 69 -166 196v293h80v-282c0 -88 37 -132 107 -132c83 0 135 67 135 169v245h80v-475h-80l22 133
h-14c-27 -97 -84 -147 -164 -147z" />
    <glyph glyph-name="wacute" unicode="&#x1e83;" horiz-adv-x="775" 
d="M427 539h-71l75 150h97zM283 0h-123l-134 475h85l102 -387l3 -36h14l2 36l91 387h129l91 -387l2 -36h14l3 36l102 387h85l-134 -475h-124l-94 390l-3 33h-13l-3 -33z" />
    <glyph glyph-name="wcircumflex" unicode="&#x175;" horiz-adv-x="775" 
d="M308 539h-88l126 148h82l125 -148h-87l-79 104zM283 0h-123l-134 475h85l102 -387l3 -36h14l2 36l91 387h129l91 -387l2 -36h14l3 36l102 387h85l-134 -475h-124l-94 390l-3 33h-13l-3 -33z" />
    <glyph glyph-name="wdieresis" unicode="&#x1e85;" horiz-adv-x="775" 
d="M341 562h-91v102h91v-102zM524 562h-91v102h91v-102zM283 0h-123l-134 475h85l102 -387l3 -36h14l2 36l91 387h129l91 -387l2 -36h14l3 36l102 387h85l-134 -475h-124l-94 390l-3 33h-13l-3 -33z" />
    <glyph glyph-name="wgrave" unicode="&#x1e81;" horiz-adv-x="775" 
d="M423 539h-70l-102 150h98zM283 0h-123l-134 475h85l102 -387l3 -36h14l2 36l91 387h129l91 -387l2 -36h14l3 36l102 387h85l-134 -475h-124l-94 390l-3 33h-13l-3 -33z" />
    <glyph glyph-name="yacute" unicode="&#xfd;" horiz-adv-x="511" 
d="M301 689h97l-101 -150h-71zM274 105l131 370h92l-197 -521c-40 -109 -83 -146 -156 -146c-83 0 -135 45 -135 128v12h80v-12c0 -37 21 -57 55 -57c33 0 56 19 74 69l34 97h-54l-181 430h92l150 -370h15z" />
    <glyph glyph-name="ycircumflex" unicode="&#x177;" horiz-adv-x="511" 
d="M336 539l-79 104l-79 -104h-88l126 148h82l125 -148h-87zM274 105l131 370h92l-197 -521c-40 -109 -83 -146 -156 -146c-83 0 -135 45 -135 128v12h80v-12c0 -37 21 -57 55 -57c33 0 56 19 74 69l34 97h-54l-181 430h92l150 -370h15z" />
    <glyph glyph-name="ydieresis" unicode="&#xff;" horiz-adv-x="511" 
d="M120 664h91v-102h-91v102zM303 664h91v-102h-91v102zM274 105l131 370h92l-197 -521c-40 -109 -83 -146 -156 -146c-83 0 -135 45 -135 128v12h80v-12c0 -37 21 -57 55 -57c33 0 56 19 74 69l34 97h-54l-181 430h92l150 -370h15z" />
    <glyph glyph-name="ygrave" unicode="&#x1ef3;" horiz-adv-x="511" 
d="M219 689l74 -150h-70l-102 150h98zM274 105l131 370h92l-197 -521c-40 -109 -83 -146 -156 -146c-83 0 -135 45 -135 128v12h80v-12c0 -37 21 -57 55 -57c33 0 56 19 74 69l34 97h-54l-181 430h92l150 -370h15z" />
    <glyph glyph-name="zacute" unicode="&#x17a;" horiz-adv-x="488" 
d="M283 539h-71l75 150h97zM438 0h-388v126l317 264v13h-317v72h388v-125l-318 -264v-14h318v-72z" />
    <glyph glyph-name="zcaron" unicode="&#x17e;" horiz-adv-x="488" 
d="M284 539h-82l-126 150h88l79 -105l79 105h87zM438 0h-388v126l317 264v13h-317v72h388v-125l-318 -264v-14h318v-72z" />
    <glyph glyph-name="zdotaccent" unicode="&#x17c;" horiz-adv-x="488" 
d="M290 556h-92v117h92v-117zM438 0h-388v126l317 264v13h-317v72h388v-125l-318 -264v-14h318v-72z" />
    <glyph glyph-name="germandbls" unicode="&#xdf;" horiz-adv-x="539" 
d="M276 -14h-19v69h19c81 0 134 52 134 127v1c0 77 -52 126 -134 126h-19v84h19c81 0 134 51 134 127v1c0 73 -50 121 -123 121c-76 0 -126 -52 -126 -128v-514h-80v514c0 121 82 200 206 200c126 0 207 -75 207 -188v-1c0 -83 -62 -152 -146 -167v-14
c85 -11 146 -82 146 -165v-1c0 -114 -87 -192 -218 -192z" />
    <glyph glyph-name="eth" unicode="&#xf0;" horiz-adv-x="563" 
d="M478 644l-77 -31c76 -73 116 -183 116 -327c0 -90 -19 -160 -55 -211c-40 -59 -103 -89 -186 -89c-82 0 -150 35 -190 94c-28 40 -44 91 -44 151c0 61 17 114 46 156c39 56 101 88 175 88c78 0 131 -36 162 -110h14c-13 98 -49 170 -110 215l-191 -75v57l133 51
c-47 20 -104 29 -170 29v72c102 0 187 -22 253 -65l124 52v-57zM402 119c21 30 32 67 32 112s-11 82 -32 112c-26 38 -68 60 -123 60s-97 -22 -123 -60c-21 -30 -32 -67 -32 -112s11 -82 32 -112c26 -38 68 -61 123 -61s97 23 123 61z" />
    <glyph glyph-name="grave" unicode="`" horiz-adv-x="600" 
d="M402 539h-70l-102 150h98z" />
    <glyph glyph-name="acute" unicode="&#xb4;" horiz-adv-x="600" 
d="M285 539h-71l76 150h97z" />
    <glyph glyph-name="circumflex" unicode="&#x2c6;" horiz-adv-x="600" 
d="M247 539h-89l127 148h81l126 -148h-88l-78 104z" />
    <glyph glyph-name="tilde" unicode="&#x2dc;" horiz-adv-x="600" 
d="M355 571c-57 0 -82 41 -137 41c-24 0 -47 -15 -48 -39h-58c0 77 59 101 106 101c57 0 83 -41 137 -41c25 0 48 13 48 39h58c0 -77 -58 -101 -106 -101z" />
    <glyph glyph-name="caron" unicode="&#x2c7;" horiz-adv-x="600" 
d="M366 539h-81l-127 150h89l79 -105l78 105h88z" />
    <glyph glyph-name="dieresis" unicode="&#xa8;" horiz-adv-x="374" 
d="M141 562h-91v102h91v-102zM324 562h-91v102h91v-102z" />
    <glyph glyph-name="macron" unicode="&#xaf;" horiz-adv-x="600" 
d="M453 587h-307v57h307v-57z" />
    <glyph glyph-name="breve" unicode="&#x2d8;" horiz-adv-x="600" 
d="M251 541c-84 0 -150 47 -150 148h67c0 -63 38 -93 83 -93c46 0 84 30 84 93h66c0 -102 -66 -148 -150 -148z" />
    <glyph glyph-name="ring" unicode="&#x2da;" horiz-adv-x="600" 
d="M300 541c-61 0 -111 44 -111 110s50 110 111 110c62 0 112 -44 112 -110s-50 -110 -112 -110zM300 593c34 0 57 24 57 58c0 33 -23 58 -57 58c-33 0 -56 -25 -56 -58c0 -34 23 -58 56 -58z" />
    <glyph glyph-name="hungarumlaut" unicode="&#x2dd;" horiz-adv-x="600" 
d="M186 539h-60l72 143h88zM345 539h-61l72 143h88z" />
    <glyph glyph-name="dotaccent" unicode="&#x2d9;" horiz-adv-x="600" 
d="M132 556h-92v117h92v-117z" />
    <glyph glyph-name="cedilla" unicode="&#xb8;" horiz-adv-x="600" 
d="M302 -192c-54 0 -112 27 -117 103h61c6 -38 28 -51 54 -51c27 0 45 16 45 39c0 19 -15 34 -37 34l-19 25l13 42h59l-9 -30c36 -13 54 -39 54 -71c0 -51 -42 -91 -104 -91z" />
    <glyph glyph-name="ogonek" unicode="&#x2db;" horiz-adv-x="600" 
d="M364 -123v-69c-107 0 -159 48 -159 106c0 61 53 102 140 120l18 -26c-56 -21 -86 -41 -86 -77c0 -32 30 -54 87 -54z" />
    <glyph glyph-name="comma" unicode="," horiz-adv-x="226" 
d="M57 -141v64c42 0 55 18 55 77h-55v122h112v-109c0 -104 -36 -154 -112 -154z" />
    <glyph glyph-name="semicolon" unicode=";" horiz-adv-x="226" 
d="M169 323h-112v122h112v-122zM57 -141v64c42 0 55 18 55 77h-55v122h112v-109c0 -104 -36 -154 -112 -154z" />
    <glyph glyph-name="colon" unicode=":" horiz-adv-x="226" 
d="M169 323h-112v122h112v-122zM169 0h-112v122h112v-122z" />
    <glyph glyph-name="period" unicode="." horiz-adv-x="226" 
d="M169 0h-112v122h112v-122z" />
    <glyph glyph-name="ellipsis" unicode="&#x2026;" horiz-adv-x="698" 
d="M169 0h-112v122h112v-122zM405 0h-112v122h112v-122zM641 0h-112v122h112v-122z" />
    <glyph glyph-name="hyphen" unicode="-" horiz-adv-x="412" 
d="M356 255h-300v77h300v-77z" />
    <glyph glyph-name="exclam" unicode="!" horiz-adv-x="265" 
d="M172 210h-80v490h80v-490zM188 0h-112v122h112v-122z" />
    <glyph glyph-name="exclamdown" unicode="&#xa1;" horiz-adv-x="265" 
d="M76 520h112v-122h-112v122zM93 310h80v-490h-80v490z" />
    <glyph glyph-name="question" unicode="?" horiz-adv-x="472" 
d="M264 210h-79v56c0 70 15 104 71 142l41 27c35 24 53 54 53 97v1c0 63 -46 105 -111 105c-82 0 -132 -55 -132 -144v-20h-82v20c0 138 81 220 213 220c119 0 198 -72 199 -180v-1c0 -60 -26 -111 -77 -145l-37 -24c-50 -33 -59 -50 -59 -116v-38zM281 0h-112v122h112v-122
z" />
    <glyph glyph-name="questiondown" unicode="&#xbf;" horiz-adv-x="456" 
d="M181 520h112v-122h-112v122zM197 310h80v-56c0 -70 -15 -104 -72 -142l-40 -27c-35 -24 -53 -54 -53 -97v-1c0 -63 46 -105 111 -105c81 0 132 55 132 144v20h82v-20c0 -138 -81 -220 -213 -220c-119 0 -198 72 -199 180v1c0 60 26 111 77 145l37 24c50 33 58 50 58 116
v38z" />
    <glyph glyph-name="quoteleft" unicode="&#x2018;" horiz-adv-x="231" 
d="M170 719v-59c-41 0 -53 -17 -53 -71h53v-113h-108v100c0 96 35 143 108 143z" />
    <glyph glyph-name="quoteright" unicode="&#x2019;" horiz-adv-x="231" 
d="M62 472v59c40 0 52 16 52 71h-52v112h107v-100c0 -96 -35 -142 -107 -142z" />
    <glyph glyph-name="quotedblleft" unicode="&#x201c;" horiz-adv-x="399" 
d="M170 718v-59c-41 0 -53 -16 -53 -71h53v-112h-108v100c0 96 35 142 108 142zM338 718v-59c-41 0 -53 -16 -53 -71h53v-112h-108v100c0 96 35 142 108 142z" />
    <glyph glyph-name="quotedblright" unicode="&#x201d;" horiz-adv-x="399" 
d="M62 472v59c40 0 52 16 52 71h-52v112h107v-100c0 -96 -35 -142 -107 -142zM230 472v59c40 0 52 16 52 71h-52v112h107v-100c0 -96 -35 -142 -107 -142z" />
    <glyph glyph-name="quotesinglbase" unicode="&#x201a;" horiz-adv-x="221" 
d="M57 -130v59c40 0 52 17 52 71h-52v113h107v-101c0 -96 -35 -142 -107 -142z" />
    <glyph glyph-name="quotedblbase" unicode="&#x201e;" horiz-adv-x="389" 
d="M57 -130v59c40 0 52 17 52 71h-52v113h107v-101c0 -96 -35 -142 -107 -142zM225 -130v59c40 0 52 17 52 71h-52v113h107v-101c0 -96 -35 -142 -107 -142z" />
    <glyph glyph-name="guilsinglleft" unicode="&#x2039;" horiz-adv-x="335" 
d="M252 54h-77v52c0 72 -37 116 -98 116h-7v85h7c61 0 98 44 98 116v52h77v-52c0 -93 -40 -147 -119 -152v-14c79 -6 119 -59 119 -151v-52z" />
    <glyph glyph-name="guilsinglright" unicode="&#x203a;" horiz-adv-x="335" 
d="M83 475h77v-52c0 -72 36 -116 98 -116h7v-85h-7c-62 0 -98 -44 -98 -116v-52h-77v52c0 94 40 147 119 152v14c-79 7 -119 60 -119 151v52z" />
    <glyph glyph-name="periodcentered" unicode="&#xb7;" horiz-adv-x="226" 
d="M169 235h-112v122h112v-122z" />
    <glyph glyph-name="slash" unicode="/" horiz-adv-x="547" 
d="M93 -110h-87l448 830h87z" />
    <glyph glyph-name="bar" unicode="|" horiz-adv-x="261" 
d="M168 -110h-76v830h76v-830z" />
    <glyph glyph-name="endash" unicode="&#x2013;" horiz-adv-x="500" 
d="M500 257h-500v72h500v-72z" />
    <glyph glyph-name="emdash" unicode="&#x2014;" horiz-adv-x="1000" 
d="M1000 257h-1000v72h1000v-72z" />
    <glyph glyph-name="bullet" unicode="&#x2022;" horiz-adv-x="339" 
d="M254 172h-169v179h169v-179z" />
    <glyph glyph-name="parenleft" unicode="(" horiz-adv-x="376" 
d="M369 -70v-80c-184 67 -301 255 -301 483s117 416 301 483v-80c-134 -58 -220 -217 -220 -403s86 -345 220 -403z" />
    <glyph glyph-name="parenright" unicode=")" horiz-adv-x="376" 
d="M7 736v80c184 -67 301 -255 301 -483s-117 -416 -301 -483v80c134 58 220 217 220 403s-86 345 -220 403z" />
    <glyph glyph-name="bracketleft" unicode="[" horiz-adv-x="378" 
d="M370 786v-72h-189v-792h189v-72h-265v936h265z" />
    <glyph glyph-name="bracketright" unicode="]" horiz-adv-x="378" 
d="M273 786v-936h-266v72h190v792h-190v72h266z" />
    <glyph glyph-name="braceleft" unicode="{" horiz-adv-x="363" 
d="M356 -148h-48c-109 0 -155 76 -155 149v188c0 46 -24 79 -71 79v105c47 0 71 32 71 78v186c0 73 46 149 155 149h48v-60l-48 -4c-53 -5 -81 -35 -81 -85v-215c0 -65 -40 -93 -93 -95v-14c53 -3 93 -32 93 -95v-217c0 -50 28 -80 81 -84l48 -4v-61z" />
    <glyph glyph-name="braceright" unicode="}" horiz-adv-x="363" 
d="M7 786h48c109 0 155 -76 155 -149v-188c0 -46 24 -79 71 -79v-104c-47 0 -71 -33 -71 -79v-186c0 -73 -46 -149 -155 -149h-48v61l48 4c53 4 81 34 81 84v215c0 66 40 93 93 95v14c-53 4 -93 32 -93 95v217c0 50 -28 80 -81 85l-48 4v60z" />
    <glyph glyph-name="uni00AD" unicode="&#xad;" horiz-adv-x="412" 
d="M356 255h-300v77h300v-77z" />
    <glyph glyph-name="guillemotleft" unicode="&#xab;" horiz-adv-x="523" 
d="M252 54h-77v52c0 72 -37 116 -98 116h-7v85h7c61 0 98 44 98 116v52h77v-52c0 -93 -40 -147 -119 -152v-14c79 -6 119 -59 119 -151v-52zM440 54h-77v52c0 72 -36 116 -98 116h-7v85h7c62 0 98 44 98 116v52h77v-52c0 -93 -40 -147 -119 -152v-14c79 -6 119 -59 119 -151
v-52z" />
    <glyph glyph-name="guillemotright" unicode="&#xbb;" horiz-adv-x="523" 
d="M83 475h77v-52c0 -72 36 -116 98 -116h7v-85h-7c-62 0 -98 -44 -98 -116v-52h-77v52c0 94 40 147 119 152v14c-79 7 -119 60 -119 151v52zM271 475h77v-52c0 -72 37 -116 98 -116h7v-85h-7c-61 0 -98 -44 -98 -116v-52h-77v52c0 94 40 147 119 152v14
c-79 7 -119 60 -119 151v52z" />
    <glyph glyph-name="zero" unicode="0" horiz-adv-x="638" 
d="M319 -14c-115 0 -194 56 -234 167c-19 53 -29 119 -29 197s10 144 29 197c40 111 119 167 234 167s195 -56 234 -167c19 -53 29 -119 29 -197s-10 -144 -29 -197c-40 -111 -119 -167 -234 -167zM319 62c74 0 125 41 154 120c15 43 23 100 23 168s-8 125 -23 168
c-28 79 -80 120 -154 120c-73 0 -126 -41 -153 -120c-16 -43 -24 -100 -24 -168s8 -125 24 -168c28 -79 80 -120 153 -120z" />
    <glyph glyph-name="one" unicode="1" horiz-adv-x="423" 
d="M321 0h-81v616h-14c-3 -124 -56 -185 -162 -185h-50v88h65c81 0 126 67 126 181h116v-700z" />
    <glyph glyph-name="two" unicode="2" horiz-adv-x="539" 
d="M493 0h-440v140l239 175c84 64 116 119 116 186c0 41 -14 76 -37 99c-24 24 -58 38 -100 38c-92 0 -150 -61 -150 -155v-34h-84v34c0 136 94 231 234 231c68 0 124 -24 164 -63c36 -37 58 -90 58 -151c0 -94 -40 -163 -144 -241l-227 -165v-14h371v-80z" />
    <glyph glyph-name="three" unicode="3" horiz-adv-x="545" 
d="M271 -14c-146 0 -237 86 -237 224v14h85v-14c0 -92 56 -148 152 -148c45 0 82 15 106 39c21 21 32 48 32 82s-10 62 -30 83c-25 24 -65 39 -115 39h-31v90h31c50 0 90 15 115 39c20 21 30 49 30 83s-11 61 -32 82c-24 24 -61 39 -106 39c-95 0 -152 -56 -152 -148v-14
h-85v14c0 138 91 224 237 224c73 0 132 -23 172 -63c33 -33 51 -77 51 -131c0 -48 -17 -87 -45 -115c-27 -27 -64 -44 -109 -48v-14c45 -4 82 -21 109 -48c28 -28 45 -67 45 -115c0 -54 -18 -98 -51 -131c-40 -40 -99 -63 -172 -63z" />
    <glyph glyph-name="four" unicode="4" horiz-adv-x="575" 
d="M439 323h120v-76h-120v-247h-80v247h-324v132l272 321h132v-377zM99 337v-14h260v312h-14z" />
    <glyph glyph-name="five" unicode="5" horiz-adv-x="545" 
d="M277 -14c-134 0 -226 84 -226 201v5h85v-2c0 -70 59 -128 141 -128c44 0 80 14 106 39c26 27 41 66 41 114c0 49 -14 87 -40 112c-23 24 -55 37 -92 37c-53 0 -94 -25 -117 -71h-102v407h436v-80h-358v-264h13c28 54 79 84 149 84c53 0 98 -20 132 -54
c40 -40 64 -100 64 -172c0 -67 -23 -123 -64 -164c-40 -40 -98 -64 -168 -64z" />
    <glyph glyph-name="six" unicode="6" horiz-adv-x="576" 
d="M300 -14c-106 0 -181 52 -217 154c-18 48 -27 110 -27 178c0 92 11 169 32 229c41 111 117 167 232 167c129 0 215 -83 215 -210v-5h-85v5c0 81 -50 134 -131 134c-119 0 -180 -107 -180 -315h13c29 71 91 117 170 117c60 0 113 -23 151 -62c39 -38 62 -94 62 -158
c0 -68 -25 -126 -67 -168c-41 -41 -100 -66 -168 -66zM301 62c44 0 81 15 108 42c26 26 41 65 41 109c0 45 -15 83 -41 109c-27 27 -64 42 -108 42s-81 -15 -108 -42c-26 -26 -41 -64 -41 -109c0 -44 15 -83 41 -109c27 -27 64 -42 108 -42z" />
    <glyph glyph-name="seven" unicode="7" horiz-adv-x="492" 
d="M180 0h-95l321 606v14h-392v80h457v-134z" />
    <glyph glyph-name="eight" unicode="8" horiz-adv-x="560" 
d="M280 -14c-79 0 -138 23 -178 63c-33 33 -51 77 -51 131c0 48 17 87 45 115c27 27 65 44 105 48v14c-40 4 -78 21 -105 48c-28 28 -45 67 -45 115c0 54 18 98 51 131c40 40 99 63 178 63s138 -23 178 -63c33 -33 51 -77 51 -131c0 -48 -16 -87 -45 -115
c-27 -27 -64 -44 -105 -48v-14c41 -4 78 -21 105 -48c29 -28 45 -67 45 -115c0 -54 -18 -98 -51 -131c-40 -40 -99 -63 -178 -63zM280 395c49 0 89 15 114 39c20 21 30 49 30 83s-11 61 -32 82c-24 24 -61 39 -112 39s-88 -15 -112 -39c-21 -21 -32 -48 -32 -82
s10 -62 30 -83c25 -24 65 -39 114 -39zM280 62c51 0 88 15 112 39c21 21 32 48 32 82s-10 62 -30 83c-25 24 -65 39 -114 39s-89 -15 -114 -39c-20 -21 -30 -49 -30 -83s11 -61 32 -82c24 -24 61 -39 112 -39z" />
    <glyph glyph-name="nine" unicode="9" horiz-adv-x="576" 
d="M276 714c106 0 181 -52 217 -154c18 -48 27 -110 27 -178c0 -92 -11 -169 -32 -229c-40 -111 -117 -167 -232 -167c-129 0 -215 83 -215 210v5h85v-5c0 -81 50 -134 131 -134c119 0 180 107 180 315h-13c-29 -71 -90 -117 -170 -117c-60 0 -113 23 -151 62
c-39 38 -62 94 -62 158c0 68 25 126 67 168c41 41 100 66 168 66zM275 638c-44 0 -81 -15 -107 -42c-27 -26 -42 -65 -42 -109c0 -45 15 -83 42 -109c26 -27 63 -42 107 -42s81 15 108 42c26 26 41 64 41 109c0 44 -15 83 -41 109c-27 27 -64 42 -108 42z" />
    <glyph glyph-name="zero.zero" horiz-adv-x="638" 
d="M553 547c19 -53 29 -119 29 -197s-10 -144 -29 -197c-40 -111 -119 -167 -234 -167s-194 56 -234 167c-19 53 -29 119 -29 197s10 144 29 197c40 111 119 167 234 167s195 -56 234 -167zM166 518c-16 -43 -24 -100 -24 -168s8 -125 24 -168l3 -8l261 418
c-28 30 -65 46 -111 46c-73 0 -126 -41 -153 -120zM473 182c15 43 23 100 23 168s-8 125 -23 168c-1 4 -3 7 -4 11l-262 -419c29 -32 66 -48 112 -48c74 0 125 41 154 120z" />
    <glyph glyph-name="asterisk" unicode="*" horiz-adv-x="567" 
d="M284 430l-98 -155l-72 51l120 140l-179 43l27 84l170 -69l-14 184h89l-13 -184l170 70l28 -85l-179 -42l118 -141l-71 -52z" />
    <glyph glyph-name="asciitilde" unicode="~" horiz-adv-x="723" 
d="M119 241l-35 68c36 32 90 55 160 55c114 0 172 -56 251 -56c53 0 94 23 111 40l35 -69c-32 -26 -83 -49 -154 -49c-89 0 -139 56 -250 56c-51 0 -95 -22 -118 -45z" />
    <glyph glyph-name="brokenbar" unicode="&#xa6;" horiz-adv-x="261" 
d="M168 355h-76v363h76v-363zM168 -110h-76v365h76v-365z" />
    <glyph glyph-name="backslash" unicode="\" horiz-adv-x="547" 
d="M541 -110h-87l-448 830h87z" />
    <glyph glyph-name="underscore" unicode="_" horiz-adv-x="588" 
d="M583 -68h-578v68h578v-68z" />
    <glyph glyph-name="quotesingle" unicode="'" horiz-adv-x="215" 
d="M122 473h-29l-19 83c-7 26 -12 50 -12 71v87h91v-87c0 -21 -5 -43 -11 -70z" />
    <glyph glyph-name="quotedbl" unicode="&#x22;" horiz-adv-x="376" 
d="M122 473h-29l-19 83c-7 26 -12 50 -12 71v87h91v-87c0 -21 -5 -43 -11 -70zM283 473h-29l-20 83c-6 26 -11 50 -11 71v87h91v-87c0 -21 -6 -43 -12 -70z" />
    <glyph glyph-name="uni02BC" unicode="&#x2bc;" horiz-adv-x="231" 
d="M62 468v61c40 0 52 18 52 74h-52v118h108v-105c0 -100 -36 -148 -108 -148z" />
    <glyph glyph-name="ampersand" unicode="&#x26;" horiz-adv-x="571" 
d="M469 111l89 -111h-98l-41 50c-45 -42 -104 -64 -173 -64c-132 0 -219 75 -219 179v1c0 72 39 131 140 182v14c-70 88 -98 135 -98 192v1c0 88 72 159 177 159s174 -66 174 -149v-1c0 -77 -37 -135 -140 -203v-14l136 -170c16 40 24 90 24 148v43h79v-43
c0 -86 -18 -158 -50 -214zM153 553v-1c0 -36 16 -65 79 -146c78 53 108 97 108 148v1c0 49 -38 87 -94 87c-55 0 -93 -39 -93 -89zM254 58c48 0 88 17 119 49l-164 203c-72 -40 -97 -85 -97 -137v-1c0 -66 52 -114 142 -114z" />
    <glyph glyph-name="at" unicode="@" horiz-adv-x="886" 
d="M455 -98c-190 0 -328 100 -383 255c-17 46 -26 97 -26 151s9 105 26 151c55 154 199 255 381 255c179 0 312 -91 364 -234c14 -40 22 -87 22 -136c0 -43 -5 -79 -17 -112c-25 -68 -73 -110 -135 -110c-58 0 -96 32 -96 92v5h-13c-22 -79 -74 -118 -152 -118
c-63 0 -112 26 -143 71c-24 33 -36 78 -36 131s13 97 36 131c31 46 80 72 139 72c82 0 134 -39 156 -119h13l-20 102h65v-210v-25c0 -47 16 -71 51 -71c33 0 58 20 71 59c10 27 15 62 15 103c0 42 -6 80 -19 115c-42 119 -151 193 -301 193s-268 -84 -315 -214
c-15 -42 -23 -84 -23 -131s8 -89 23 -131c47 -130 159 -214 317 -214c96 0 188 37 233 101h70c-57 -100 -163 -162 -303 -162zM441 170c43 0 75 16 95 45c15 22 24 52 24 88c0 37 -9 67 -24 89c-20 28 -52 44 -95 44c-44 0 -76 -16 -95 -44c-16 -22 -25 -52 -25 -89
c0 -36 9 -66 25 -88c19 -29 51 -45 95 -45z" />
    <glyph glyph-name="copyright" unicode="&#xa9;" horiz-adv-x="909" 
d="M455 -74c-236 0 -409 173 -409 423v1c0 251 173 424 409 424c235 0 408 -173 408 -424v-1c0 -250 -173 -423 -408 -423zM455 -17c198 0 347 149 347 366v1c0 218 -149 367 -347 367c-199 0 -348 -149 -348 -367v-1c0 -217 149 -366 348 -366zM453 145
c-111 0 -187 86 -187 205s79 205 192 205c92 0 155 -51 175 -137h-74c-14 48 -50 73 -101 73c-72 0 -119 -56 -118 -141c1 -86 45 -140 113 -140c51 0 88 25 101 72h75c-21 -85 -84 -137 -176 -137z" />
    <glyph glyph-name="registered" unicode="&#xae;" horiz-adv-x="909" 
d="M455 -74c-236 0 -409 173 -409 423v1c0 251 173 424 409 424c235 0 408 -173 408 -424v-1c0 -250 -173 -423 -408 -423zM455 -17c198 0 347 149 347 366v1c0 218 -149 367 -347 367c-199 0 -348 -149 -348 -367v-1c0 -217 149 -366 348 -366zM381 156h-64v388h170
c81 0 133 -44 133 -111c0 -69 -43 -105 -132 -113v-12l18 -7l114 -145h-81l-114 157h-44v-157zM381 482v-113h94c49 0 75 20 75 58c0 35 -25 55 -63 55h-106z" />
    <glyph glyph-name="trademark" unicode="&#x2122;" horiz-adv-x="1038" 
d="M189 640h-168v60h405v-60h-168v-400h-69v400zM535 240h-64v460h109l139 -433l139 433h109v-460h-65v409l-132 -409h-103l-132 409v-409z" />
    <glyph glyph-name="paragraph" unicode="&#xb6;" horiz-adv-x="583" 
d="M313 -180h-76v495c-116 0 -201 82 -201 188c0 127 97 197 246 197h209v-880h-76v812h-102v-812z" />
    <glyph glyph-name="section" unicode="&#xa7;" horiz-adv-x="512" 
d="M252 -192c-121 0 -196 74 -196 203h80c0 -86 45 -131 119 -131c66 0 108 35 108 94v1c0 44 -23 67 -101 102l-90 39c-77 35 -114 83 -114 141v1c0 62 45 111 108 128v14c-72 37 -108 86 -108 149v1c0 100 75 164 193 164c126 0 200 -74 200 -197h-80
c0 80 -42 125 -119 125c-68 0 -113 -34 -113 -86v-1c0 -44 31 -75 102 -105l90 -37c82 -34 118 -79 118 -142v-1c0 -63 -48 -115 -116 -132v-13c77 -38 111 -83 111 -154v-1c0 -87 -70 -162 -192 -162zM216 181l54 -23c60 5 98 41 98 92v1c0 46 -26 75 -83 98l-67 27
c-47 -15 -75 -51 -75 -98v-1c0 -44 23 -75 73 -96z" />
    <glyph glyph-name="asciicircum" unicode="^" horiz-adv-x="559" 
d="M130 350h-87l178 350h117l178 -350h-88l-141 294h-14z" />
    <glyph glyph-name="dagger" unicode="&#x2020;" horiz-adv-x="568" 
d="M322 495h195v-72h-195v-533h-76v533h-195v72h195v223h76v-223z" />
    <glyph glyph-name="daggerdbl" unicode="&#x2021;" horiz-adv-x="559" 
d="M508 495v-72h-190v-236h190v-72h-190v-225h-77v225h-190v72h190v236h-190v72h190v223h77v-223h190z" />
    <glyph glyph-name="emptyset" unicode="&#x2205;" horiz-adv-x="909" 
d="M830 696l-62 -63c60 -73 95 -170 95 -283v-1c0 -250 -173 -423 -408 -423c-110 0 -207 38 -279 104l-61 -63l-39 39l63 64c-59 72 -93 168 -93 279v1c0 251 173 424 409 424c108 0 204 -37 275 -101l59 60zM107 349c0 -93 27 -174 75 -235l506 516
c-61 55 -142 87 -233 87c-199 0 -348 -149 -348 -367v-1zM802 349v1c0 95 -28 177 -77 239l-506 -516c61 -57 143 -90 236 -90c198 0 347 149 347 366z" />
    <glyph glyph-name="uni2126" unicode="&#x2126;" horiz-adv-x="762" 
d="M716 395c0 -122 -83 -250 -226 -302v-13h226v-80h-295v119c143 54 207 156 207 276v1c0 136 -103 239 -247 239c-143 0 -247 -103 -247 -239v-1c0 -120 64 -222 207 -276v-119h-295v80h227v13c-144 52 -227 180 -227 302v1c0 184 139 319 335 319s335 -135 335 -319v-1z
" />
    <glyph glyph-name="uni2206" unicode="&#x2206;" horiz-adv-x="678" 
d="M277 700h124l256 -700h-636zM326 607l-188 -527h401l-187 527l-6 41h-14z" />
    <glyph glyph-name="uni00B5" unicode="&#xb5;" horiz-adv-x="564" 
d="M403 230v245h80v-475h-80l22 133h-14c-27 -97 -84 -147 -164 -147c-44 0 -79 11 -106 32l16 -198h-76v655h80v-282c0 -88 37 -132 107 -132c83 0 135 67 135 169z" />
    <glyph glyph-name="uniF8FF" unicode="&#xf8ff;" horiz-adv-x="681" 
d="M355 524c153 -46 233 -127 233 -238c0 -75 -35 -132 -104 -169c-17 -9 -38 -13 -66 -13l-52 2c-134 0 -274 29 -274 151c0 51 14 119 41 153c12 30 31 66 54 83c10 8 23 12 34 15c10 2 23 7 31 12c17 8 32 13 49 13c7 0 14 -1 22 -2l3 31c4 31 7 60 10 76l10 -2
c-4 -16 -7 -44 -10 -75l-3 -31c7 -2 14 -4 22 -6zM479 126c69 35 99 92 99 160c0 106 -78 184 -226 228l-21 6c-8 -70 -16 -100 -30 -108l-5 9c10 6 17 34 25 100c-7 1 -14 2 -20 2c-17 0 -32 -6 -45 -12c-6 -3 -26 -11 -32 -13c-12 -3 -22 -6 -31 -13
c-16 -13 -31 -36 -42 -59c6 3 12 5 19 5v-10c-10 0 -19 -5 -27 -13c-2 -7 -5 -14 -7 -20l-6 2c-19 -34 -28 -89 -28 -133c0 -115 138 -141 264 -141c11 0 47 -2 52 -2c22 0 43 3 61 12z" />
    <glyph glyph-name="uni2113" unicode="&#x2113;" horiz-adv-x="400" 
d="M230 55c43 0 60 37 60 121h73c0 -110 -28 -190 -133 -190c-96 0 -122 63 -122 126v178c-29 -7 -60 -10 -93 -10v68c34 0 65 4 93 11v218c0 102 64 137 127 137c87 0 130 -70 130 -148c0 -101 -69 -203 -185 -253v-198c0 -35 14 -60 50 -60zM180 583v-196
c72 39 112 104 112 173c0 55 -21 85 -59 85c-33 0 -53 -21 -53 -62z" />
    <glyph glyph-name="estimated" unicode="&#x212e;" horiz-adv-x="858" 
d="M429 0c-227 0 -389 138 -389 354c0 213 162 356 389 356c229 0 378 -129 389 -365h-619c-9 0 -15 -1 -15 -18v-174c0 -36 98 -125 245 -125c98 0 190 50 246 113h72c-92 -102 -172 -141 -318 -141zM199 367h457c15 0 17 4 17 16v171c0 56 -135 131 -245 131
c-140 0 -244 -93 -244 -124v-185c0 -6 4 -9 15 -9z" />
    <glyph glyph-name="dollar" unicode="$" horiz-adv-x="599" 
d="M538 470h-87v10c0 98 -55 149 -151 149c-67 0 -111 -24 -133 -61c-9 -17 -14 -37 -14 -59c0 -19 3 -35 12 -49c18 -31 53 -51 111 -62l81 -17c73 -13 125 -45 151 -92c15 -26 22 -56 22 -91c0 -37 -9 -71 -25 -100c-32 -55 -92 -90 -172 -99v-104h-76v104
c-123 13 -200 93 -200 221v16h86v-10c0 -101 56 -153 154 -153c66 0 110 24 132 61c9 17 15 37 15 60c0 19 -4 35 -12 50c-18 30 -53 51 -110 62l-82 16c-73 14 -125 44 -152 92c-14 25 -22 55 -22 89c0 38 9 71 26 99c31 55 89 90 165 100v95h76v-93
c126 -11 205 -90 205 -218v-16z" />
    <glyph glyph-name="cent" unicode="&#xa2;" horiz-adv-x="520" 
d="M264 65c72 0 118 40 127 109h76c-3 -93 -66 -159 -160 -174v-60h-76v58c-63 7 -113 37 -146 84c-28 40 -42 91 -42 153c0 64 16 117 43 157c33 47 83 76 145 85v61h76v-62c98 -14 166 -83 170 -176h-77c-9 69 -57 110 -131 110c-51 0 -90 -20 -116 -56
c-20 -30 -31 -69 -31 -118c0 -48 10 -87 31 -116c24 -35 62 -55 111 -55z" />
    <glyph glyph-name="sterling" unicode="&#xa3;" horiz-adv-x="589" 
d="M492 189l71 -28c-20 -110 -80 -161 -192 -161h-320v116c82 0 129 43 129 124c0 28 -5 52 -13 74h-116v72h84c-18 38 -35 79 -35 135c0 113 82 193 214 193c133 0 220 -91 220 -231h-84c0 96 -52 155 -136 155c-86 0 -129 -48 -129 -125c0 -46 20 -85 41 -127h222v-72
h-192c7 -23 12 -49 12 -78c0 -79 -51 -133 -133 -146v-14h236c70 0 102 30 121 113z" />
    <glyph glyph-name="florin" unicode="&#x192;" horiz-adv-x="476" 
d="M330 710c75 0 123 -37 131 -119h-76c-5 32 -19 51 -57 51c-45 0 -70 -26 -79 -81l-20 -133h126v-70h-137l-58 -378c-10 -64 -44 -125 -124 -125c-19 0 -36 4 -49 8v69c13 -6 28 -8 39 -8c36 0 54 27 60 65l57 369h-111v70h121l22 142c12 78 57 140 155 140z" />
    <glyph glyph-name="yen" unicode="&#xa5;" horiz-adv-x="601" 
d="M490 700h100l-210 -370h123v-68h-161v-88h161v-69h-161v-105h-84v105h-159v69h159v88h-159v68h121l-209 370h100l179 -328l4 -35h14l3 35z" />
    <glyph glyph-name="Euro" unicode="&#x20ac;" horiz-adv-x="640" 
d="M417 62c68 0 124 19 161 47l36 -69c-52 -34 -120 -54 -193 -54c-155 0 -275 87 -322 222c-3 8 -6 16 -8 25h-70v68h57c-1 16 -2 33 -2 50c0 15 1 29 2 43h-57v68h69c2 10 6 20 9 30c47 135 167 222 322 222c73 0 141 -20 193 -54l-36 -69c-37 28 -93 47 -161 47
c-112 0 -202 -67 -238 -171l-2 -5h340l-35 -68h-320c-1 -14 -2 -28 -2 -43c0 -18 1 -34 3 -50h276l-35 -68h-225c37 -104 126 -171 238 -171z" />
    <glyph glyph-name="currency" unicode="&#xa4;" horiz-adv-x="577" 
d="M499 238c0 -47 -15 -90 -41 -125l79 -76l-51 -51l-79 78c-34 -23 -74 -36 -118 -36s-85 13 -118 36l-80 -78l-51 51l79 77c-25 35 -40 77 -40 124c0 46 14 88 39 122l-78 77l51 52l78 -78c33 23 75 37 120 37s86 -14 120 -37l77 78l51 -52l-77 -76c25 -35 39 -77 39 -123
zM289 96c75 0 137 64 137 142c0 79 -62 142 -137 142c-76 0 -138 -63 -138 -142c0 -78 62 -142 138 -142z" />
    <glyph glyph-name="fi" unicode="&#xfb01;" horiz-adv-x="594" 
d="M198 522v-47h314v-475h-80v406h-234v-406h-80v403h-102v72h102v47c0 113 74 192 202 192c118 0 192 -59 192 -162h-83c0 63 -42 91 -109 91c-75 0 -122 -45 -122 -121z" />
    <glyph glyph-name="fl" unicode="&#xfb02;" horiz-adv-x="645" 
d="M278 714c101 0 156 -55 156 -157v-10h-80v8c0 58 -27 89 -76 89c-51 0 -80 -34 -80 -93v-76h184v-72h-184v-403h-80v403h-102v72h102v76c0 99 63 163 160 163zM483 0v700h80v-700h-80z" />
    <glyph glyph-name="fraction" unicode="&#x2044;" horiz-adv-x="140" 
d="M-170 -10h-74l554 720h73z" />
    <glyph glyph-name="onequarter" unicode="&#xbc;" horiz-adv-x="743" 
d="M106 -10h-74l554 720h73zM224 300h-63v314h-13c-13 -66 -47 -94 -108 -94h-25v67h25c69 0 100 34 100 113h84v-400zM647 0h-62v141h-186v84l161 175h87v-204h77v-55h-77v-141zM452 210v-14h133v149h-14z" />
    <glyph glyph-name="onehalf" unicode="&#xbd;" horiz-adv-x="757" 
d="M106 -10h-74l554 720h73zM224 300h-63v314h-13c-13 -66 -47 -94 -108 -94h-25v67h25c69 0 100 34 100 113h84v-400zM728 0h-277v92l143 96c51 34 70 63 70 98v1c0 42 -29 69 -75 69c-50 0 -85 -35 -85 -85h-63c0 82 57 141 147 141c86 0 140 -51 140 -125v-1
c0 -56 -26 -96 -100 -144l-108 -71v-15h208v-56z" />
    <glyph glyph-name="threequarters" unicode="&#xbe;" horiz-adv-x="828" 
d="M180 288c-82 0 -145 48 -145 137h61c0 -52 38 -82 84 -82c50 0 78 30 78 65v1c0 41 -30 64 -76 64h-27v55h27c46 0 76 22 76 62v1c0 36 -28 66 -78 66c-46 0 -84 -30 -84 -82h-61c0 89 63 137 145 137c87 0 141 -51 141 -117v-1c0 -41 -28 -80 -78 -87v-14
c50 -8 78 -46 78 -87v-1c0 -66 -54 -117 -141 -117zM191 -10h-74l554 720h73zM731 0h-62v141h-186v84l161 175h87v-204h77v-55h-77v-141zM536 210v-14h133v149h-14z" />
    <glyph glyph-name="uni2153" unicode="&#x2153;" horiz-adv-x="776" 
d="M106 -10h-74l554 720h73zM224 300h-63v314h-13c-13 -66 -47 -94 -108 -94h-25v67h25c69 0 100 34 100 113h84v-400zM596 -11c-82 0 -145 48 -145 137h61c0 -52 38 -82 84 -82c50 0 78 30 78 65v1c0 41 -30 64 -76 64h-27v55h27c46 0 76 22 76 62v1c0 36 -28 66 -78 66
c-46 0 -84 -30 -84 -82h-61c0 89 63 137 145 137c87 0 141 -51 141 -117v-1c0 -41 -28 -80 -78 -87v-14c50 -8 78 -46 78 -87v-1c0 -66 -54 -117 -141 -117z" />
    <glyph glyph-name="uni2154" unicode="&#x2154;" horiz-adv-x="862" 
d="M312 300h-277v92l143 96c51 34 70 63 70 98v1c0 42 -29 69 -75 69c-50 0 -85 -35 -85 -85h-63c0 82 57 141 147 141c86 0 140 -51 140 -125v-1c0 -56 -26 -96 -100 -144l-108 -71v-15h208v-56zM192 -10h-74l554 720h73zM681 -11c-82 0 -145 48 -145 137h61
c0 -52 38 -82 84 -82c50 0 78 30 78 65v1c0 41 -30 64 -76 64h-27v55h27c46 0 76 22 76 62v1c0 36 -28 66 -78 66c-46 0 -84 -30 -84 -82h-61c0 89 63 137 145 137c87 0 141 -51 141 -117v-1c0 -41 -28 -80 -78 -87v-14c50 -8 78 -46 78 -87v-1c0 -66 -54 -117 -141 -117z
" />
    <glyph glyph-name="oneeighth" unicode="&#x215b;" horiz-adv-x="783" 
d="M106 -10h-74l554 720h73zM224 300h-63v314h-13c-13 -66 -47 -94 -108 -94h-25v67h25c69 0 100 34 100 113h84v-400zM600 -12c-88 0 -144 48 -144 111v1c0 43 27 85 76 93v14c-49 7 -76 50 -76 91v1c0 66 56 113 144 113c89 0 144 -47 144 -113v-1c0 -41 -27 -84 -76 -91
v-14c49 -8 76 -50 76 -93v-1c0 -63 -55 -111 -144 -111zM600 226c49 0 82 27 82 67v1c0 39 -30 67 -82 67s-82 -28 -82 -67v-1c0 -40 34 -67 82 -67zM600 39c52 0 82 29 82 65v1c0 44 -33 69 -82 69c-48 0 -82 -25 -82 -69v-1c0 -36 30 -65 82 -65z" />
    <glyph glyph-name="threeeighths" unicode="&#x215c;" horiz-adv-x="868" 
d="M180 288c-82 0 -145 48 -145 137h61c0 -52 38 -82 84 -82c50 0 78 30 78 65v1c0 41 -30 64 -76 64h-27v55h27c46 0 76 22 76 62v1c0 36 -28 66 -78 66c-46 0 -84 -30 -84 -82h-61c0 89 63 137 145 137c87 0 141 -51 141 -117v-1c0 -41 -28 -80 -78 -87v-14
c50 -8 78 -46 78 -87v-1c0 -66 -54 -117 -141 -117zM191 -10h-74l554 720h73zM684 -12c-88 0 -144 48 -144 111v1c0 43 27 85 76 93v14c-49 7 -76 50 -76 91v1c0 66 56 113 144 113c89 0 144 -47 144 -113v-1c0 -41 -27 -84 -76 -91v-14c49 -8 76 -50 76 -93v-1
c0 -63 -55 -111 -144 -111zM684 226c49 0 82 27 82 67v1c0 39 -30 67 -82 67s-82 -28 -82 -67v-1c0 -40 34 -67 82 -67zM684 39c52 0 82 29 82 65v1c0 44 -33 69 -82 69c-48 0 -82 -25 -82 -69v-1c0 -36 30 -65 82 -65z" />
    <glyph glyph-name="fiveeighths" unicode="&#x215d;" horiz-adv-x="873" 
d="M196 -10h-74l554 720h73zM187 288c-81 0 -138 49 -142 122h61c3 -41 37 -67 82 -67c49 0 79 31 79 80v1c0 50 -30 80 -78 80c-30 0 -54 -17 -65 -44h-67v240h271v-57h-215v-137h14c20 32 48 47 87 47c67 0 117 -55 117 -128v-1c0 -78 -61 -136 -144 -136zM689 -12
c-88 0 -144 48 -144 111v1c0 43 27 85 76 93v14c-49 7 -76 50 -76 91v1c0 66 56 113 144 113c89 0 144 -47 144 -113v-1c0 -41 -27 -84 -76 -91v-14c49 -8 76 -50 76 -93v-1c0 -63 -55 -111 -144 -111zM689 226c49 0 82 27 82 67v1c0 39 -30 67 -82 67s-82 -28 -82 -67v-1
c0 -40 34 -67 82 -67zM689 39c52 0 82 29 82 65v1c0 44 -33 69 -82 69c-48 0 -82 -25 -82 -69v-1c0 -36 30 -65 82 -65z" />
    <glyph glyph-name="seveneighths" unicode="&#x215e;" horiz-adv-x="771" 
d="M94 -10h-74l554 720h73zM130 300h-70l180 328v14h-220v58h276v-87zM588 -12c-88 0 -144 48 -144 111v1c0 43 27 85 76 93v14c-49 7 -76 50 -76 91v1c0 66 56 113 144 113c89 0 144 -47 144 -113v-1c0 -41 -27 -84 -76 -91v-14c49 -8 76 -50 76 -93v-1
c0 -63 -55 -111 -144 -111zM588 226c49 0 82 27 82 67v1c0 39 -30 67 -82 67s-82 -28 -82 -67v-1c0 -40 34 -67 82 -67zM588 39c52 0 82 29 82 65v1c0 44 -33 69 -82 69c-48 0 -82 -25 -82 -69v-1c0 -36 30 -65 82 -65z" />
    <glyph glyph-name="percent" unicode="%" horiz-adv-x="778" 
d="M211 370c-96 0 -169 73 -169 170s74 170 169 170c96 0 169 -73 169 -170s-72 -170 -169 -170zM149 -10h-74l554 720h73zM211 433c59 0 102 44 102 107s-43 107 -102 107c-58 0 -101 -44 -101 -107s43 -107 101 -107zM567 -10c-96 0 -169 73 -169 170s74 170 169 170
c96 0 169 -73 169 -170s-72 -170 -169 -170zM567 53c59 0 102 44 102 107s-43 107 -102 107c-58 0 -101 -44 -101 -107s43 -107 101 -107z" />
    <glyph glyph-name="perthousand" unicode="&#x2030;" horiz-adv-x="1044" 
d="M211 370c-96 0 -169 73 -169 170s74 170 169 170c96 0 169 -73 169 -170s-72 -170 -169 -170zM149 -10h-74l554 720h73zM211 433c59 0 102 44 102 107s-43 107 -102 107c-58 0 -101 -44 -101 -107s43 -107 101 -107zM563 -10c-94 0 -165 73 -165 170s72 170 165 170
c56 0 104 -28 134 -72h6c30 44 78 72 133 72c94 0 166 -73 166 -170s-71 -170 -166 -170c-55 0 -103 28 -133 72h-6c-30 -44 -78 -72 -134 -72zM567 53c59 0 102 44 102 107s-43 107 -102 107c-58 0 -101 -44 -101 -107s43 -107 101 -107zM832 53c59 0 102 44 102 107
s-43 107 -102 107c-58 0 -101 -44 -101 -107s43 -107 101 -107z" />
    <glyph glyph-name="uni03BC" unicode="&#x3bc;" horiz-adv-x="564" 
d="M403 230v245h80v-475h-80l22 133h-14c-27 -97 -84 -147 -164 -147c-44 0 -79 11 -106 32l16 -198h-76v655h80v-282c0 -88 37 -132 107 -132c83 0 135 67 135 169z" />
    <glyph glyph-name="numbersign" unicode="#" horiz-adv-x="626" 
d="M621 497l-14 -65h-123l-34 -164h127l-14 -65h-127l-43 -203h-68l43 203h-163l-43 -203h-68l43 203h-132l14 65h132l34 164h-136l14 65h136l43 203h68l-43 -203h163l43 203h68l-43 -203h123zM219 268h163l34 164h-163z" />
    <glyph glyph-name="uni2116" unicode="&#x2116;" horiz-adv-x="1225" 
d="M176 0h-84v700h131l284 -539l24 -101h14v640h83v-700h-131l-284 539l-23 101h-14v-640zM944 173c-129 0 -223 95 -223 230s94 230 223 230c128 0 223 -95 223 -230s-95 -230 -223 -230zM944 245c83 0 138 62 138 158s-55 158 -138 158s-139 -62 -139 -158
s56 -158 139 -158zM1174 0h-453v76h453v-76z" />
    <glyph glyph-name="uni0394" unicode="&#x394;" horiz-adv-x="678" 
d="M277 700h124l256 -700h-636zM326 607l-188 -527h401l-187 527l-6 41h-14z" />
    <glyph glyph-name="uni03A9" unicode="&#x3a9;" horiz-adv-x="762" 
d="M716 395c0 -122 -83 -250 -226 -302v-13h226v-80h-295v119c143 54 207 156 207 276v1c0 136 -103 239 -247 239c-143 0 -247 -103 -247 -239v-1c0 -120 64 -222 207 -276v-119h-295v80h227v13c-144 52 -227 180 -227 302v1c0 184 139 319 335 319s335 -135 335 -319v-1z
" />
    <glyph glyph-name="pi" unicode="&#x3c0;" horiz-adv-x="576" 
d="M545 475v-68h-120v-269c0 -48 26 -76 77 -76v-76c-105 0 -157 52 -157 152v269h-143v-407h-80v407h-107v68h530z" />
    <glyph glyph-name="plus" unicode="+" horiz-adv-x="621" 
d="M344 328h206v-76h-206v-197h-76v197h-197v76h197v196h76v-196z" />
    <glyph glyph-name="minus" unicode="&#x2212;" 
d="M549 252h-478v76h478v-76z" />
    <glyph glyph-name="plusminus" unicode="&#xb1;" horiz-adv-x="621" 
d="M344 616v-196h206v-77h-206v-197h-76v197h-197v77h197v196h76zM549 0h-478v76h478v-76z" />
    <glyph glyph-name="multiply" unicode="&#xd7;" horiz-adv-x="592" 
d="M466 514l54 -53l-174 -174l168 -168l-54 -54l-168 168l-168 -168l-53 54l168 168l-168 167l54 54l168 -167z" />
    <glyph glyph-name="divide" unicode="&#xf7;" horiz-adv-x="712" 
d="M411 404h-108v123h108v-123zM641 250h-570v76h570v-76zM411 41h-108v122h108v-122z" />
    <glyph glyph-name="equal" unicode="=" 
d="M549 362h-478v76h478v-76zM549 142h-478v76h478v-76z" />
    <glyph glyph-name="less" unicode="&#x3c;" horiz-adv-x="692" 
d="M71 352l550 198v-85l-498 -175l498 -175v-85l-550 199v123z" />
    <glyph glyph-name="greater" unicode="&#x3e;" horiz-adv-x="692" 
d="M71 465v85l550 -199v-123l-550 -198v85l499 175z" />
    <glyph glyph-name="degree" unicode="&#xb0;" horiz-adv-x="484" 
d="M242 374c-102 0 -171 68 -171 170c0 101 70 170 171 170c102 0 171 -69 171 -170c0 -102 -69 -170 -171 -170zM242 442c57 0 98 43 98 102c0 58 -41 101 -98 101s-98 -43 -98 -101c0 -59 41 -102 98 -102z" />
    <glyph glyph-name="approxequal" unicode="&#x2248;" horiz-adv-x="699" 
d="M106 348l-35 68c36 32 90 55 160 55c114 0 172 -56 251 -56c53 0 94 23 111 39l35 -69c-32 -25 -83 -48 -154 -48c-89 0 -139 56 -250 56c-51 0 -95 -22 -118 -45zM106 134l-35 68c36 33 90 55 160 55c114 0 172 -56 251 -56c53 0 94 23 111 40l35 -69
c-32 -26 -83 -49 -154 -49c-89 0 -139 56 -250 56c-51 0 -95 -22 -118 -45z" />
    <glyph glyph-name="greaterequal" unicode="&#x2265;" horiz-adv-x="720" 
d="M83 559l550 -157v-132l-550 -156v85l497 138l-497 137v85zM71 0v76h578v-76h-578z" />
    <glyph glyph-name="infinity" unicode="&#x221e;" horiz-adv-x="788" 
d="M556 466c92 0 161 -73 161 -170s-69 -170 -161 -170c-73 0 -125 54 -162 107c-37 -53 -88 -107 -161 -107c-93 0 -162 73 -162 170s69 170 162 170c73 0 124 -54 161 -107c37 53 89 107 162 107zM233 198c55 0 89 52 120 98c-31 46 -65 98 -120 98c-53 0 -90 -40 -90 -98
s37 -98 90 -98zM556 198c52 0 89 40 89 98s-37 98 -89 98c-56 0 -89 -52 -121 -98c32 -46 65 -98 121 -98z" />
    <glyph glyph-name="lessequal" unicode="&#x2264;" horiz-adv-x="720" 
d="M140 337l497 -138v-85l-550 156v132l550 157v-85zM71 0v76h578v-76h-578z" />
    <glyph glyph-name="logicalnot" unicode="&#xac;" horiz-adv-x="709" 
d="M638 88h-76v164h-491v76h567v-240z" />
    <glyph glyph-name="notequal" unicode="&#x2260;" horiz-adv-x="637" 
d="M512 569l53 -43l-76 -88h65v-76h-131l-124 -144h255v-76h-321l-104 -120l-53 42l67 78h-66v76h132l124 144h-256v76h322z" />
    <glyph glyph-name="integral" unicode="&#x222b;" horiz-adv-x="381" 
d="M54 -192c-19 0 -36 4 -49 8v69c13 -5 28 -8 39 -8c36 0 54 27 60 66l99 647c9 64 44 125 124 125c19 0 35 -4 49 -8v-69c-13 5 -28 8 -39 8c-37 0 -54 -27 -60 -65l-99 -647c-10 -65 -44 -126 -124 -126z" />
    <glyph glyph-name="partialdiff" unicode="&#x2202;" horiz-adv-x="569" 
d="M260 -14c-131 0 -218 90 -218 227c0 144 90 235 226 235c74 0 132 -41 160 -100h14c-3 186 -68 294 -178 294c-70 0 -125 -43 -140 -108l-82 3c17 108 106 177 222 177c165 0 259 -136 259 -367c0 -228 -102 -361 -263 -361zM264 58c101 0 175 96 175 229
c-31 56 -84 89 -148 89c-100 0 -164 -66 -164 -163c0 -90 57 -155 137 -155z" />
    <glyph glyph-name="product" unicode="&#x220f;" horiz-adv-x="701" 
d="M608 700v-700h-80v624h-356v-624h-80v700h516z" />
    <glyph glyph-name="radical" unicode="&#x221a;" horiz-adv-x="552" 
d="M307 0h-123l-163 530h82l139 -463h6l219 794h184v-72h-122z" />
    <glyph glyph-name="summation" unicode="&#x2211;" horiz-adv-x="592" 
d="M541 0h-490v122l243 221v14l-243 221v122h490v-76h-416v-14l287 -260l-287 -260v-14h416v-76z" />
    <glyph glyph-name="lozenge" unicode="&#x25ca;" horiz-adv-x="558" 
d="M339 0h-119l-184 350l184 350h119l184 -350zM124 350l149 -295h13l147 295l-147 295h-13z" />
    <glyph glyph-name="zero.tf" 
d="M305 -14c-115 0 -194 56 -233 167c-19 53 -29 119 -29 197s10 144 29 197c39 111 118 167 233 167s195 -56 234 -167c19 -53 29 -119 29 -197s-10 -144 -29 -197c-40 -111 -119 -167 -234 -167zM305 62c74 0 125 41 154 120c15 43 23 100 23 168s-8 125 -23 168
c-28 79 -80 120 -154 120c-73 0 -125 -41 -153 -120c-16 -43 -23 -100 -23 -168s7 -125 23 -168c28 -79 80 -120 153 -120z" />
    <glyph glyph-name="one.tf" 
d="M567 0h-466v80h212v536h-15c-3 -124 -56 -185 -162 -185h-35v88h50c81 0 126 67 126 181h116v-620h174v-80z" />
    <glyph glyph-name="two.tf" 
d="M540 0h-440v140l239 175c85 64 117 119 117 186c0 41 -14 76 -37 99c-24 24 -58 38 -100 38c-92 0 -151 -61 -151 -155v-34h-84v34c0 136 95 231 235 231c68 0 124 -24 164 -63c36 -37 57 -90 57 -151c0 -94 -39 -163 -143 -241l-227 -165v-14h370v-80z" />
    <glyph glyph-name="three.tf" 
d="M307 -14c-146 0 -237 86 -237 224v14h84v-14c0 -92 57 -148 152 -148c46 0 82 15 107 39c21 21 32 48 32 82s-10 62 -31 83c-24 24 -64 39 -115 39h-30v90h30c51 0 91 15 115 39c21 21 31 49 31 83s-11 61 -32 82c-25 24 -61 39 -107 39c-95 0 -152 -56 -152 -148v-14
h-84v14c0 138 91 224 237 224c73 0 132 -23 171 -63c33 -33 51 -77 51 -131c0 -48 -16 -87 -45 -115c-27 -27 -64 -44 -109 -48v-14c45 -4 82 -21 109 -48c29 -28 45 -67 45 -115c0 -54 -18 -98 -51 -131c-39 -40 -98 -63 -171 -63z" />
    <glyph glyph-name="four.tf" 
d="M457 323h120v-76h-120v-247h-80v247h-324v132l272 321h132v-377zM117 337v-14h260v312h-13z" />
    <glyph glyph-name="five.tf" 
d="M317 -14c-135 0 -226 84 -226 201v5h84v-2c0 -70 60 -128 141 -128c44 0 80 14 106 39c26 27 41 66 41 114c0 49 -14 87 -39 112c-24 24 -56 37 -92 37c-53 0 -95 -25 -118 -71h-102v407h436v-80h-358v-264h14c27 54 79 84 149 84c52 0 98 -20 131 -54
c40 -40 64 -100 64 -172c0 -67 -23 -123 -64 -164c-40 -40 -98 -64 -167 -64z" />
    <glyph glyph-name="six.tf" 
d="M314 -14c-106 0 -180 52 -217 154c-18 48 -26 110 -26 178c0 92 10 169 31 229c41 111 117 167 232 167c130 0 215 -83 215 -210v-5h-84v5c0 81 -51 134 -132 134c-119 0 -180 -107 -180 -315h14c28 71 90 117 169 117c60 0 113 -23 151 -62c39 -38 62 -94 62 -158
c0 -68 -25 -126 -67 -168c-41 -41 -100 -66 -168 -66zM315 62c44 0 81 15 108 42c26 26 41 65 41 109c0 45 -15 83 -41 109c-27 27 -64 42 -108 42s-81 -15 -107 -42c-27 -26 -42 -64 -42 -109c0 -44 15 -83 42 -109c26 -27 63 -42 107 -42z" />
    <glyph glyph-name="seven.tf" 
d="M248 0h-95l321 606v14h-392v80h457v-134z" />
    <glyph glyph-name="eight.tf" 
d="M310 -14c-79 0 -138 23 -178 63c-33 33 -51 77 -51 131c0 48 17 87 45 115c27 27 64 44 105 48v14c-41 4 -78 21 -105 48c-28 28 -45 67 -45 115c0 54 18 98 51 131c40 40 99 63 178 63s138 -23 178 -63c33 -33 51 -77 51 -131c0 -48 -17 -87 -45 -115
c-27 -27 -64 -44 -105 -48v-14c41 -4 78 -21 105 -48c28 -28 45 -67 45 -115c0 -54 -18 -98 -51 -131c-40 -40 -99 -63 -178 -63zM310 395c49 0 89 15 114 39c20 21 30 49 30 83s-11 61 -32 82c-24 24 -61 39 -112 39s-88 -15 -112 -39c-21 -21 -32 -48 -32 -82
s10 -62 30 -83c25 -24 65 -39 114 -39zM310 62c51 0 88 15 112 39c21 21 32 48 32 82s-10 62 -30 83c-25 24 -65 39 -114 39s-89 -15 -114 -39c-20 -21 -30 -49 -30 -83s11 -61 32 -82c24 -24 61 -39 112 -39z" />
    <glyph glyph-name="nine.tf" 
d="M294 714c106 0 181 -52 217 -154c18 -48 27 -110 27 -178c0 -92 -11 -169 -32 -229c-41 -111 -117 -167 -232 -167c-129 0 -215 83 -215 210v5h85v-5c0 -81 50 -134 131 -134c119 0 180 107 180 315h-13c-29 -71 -91 -117 -170 -117c-60 0 -113 23 -151 62
c-39 38 -62 94 -62 158c0 68 25 126 67 168c41 41 100 66 168 66zM293 638c-44 0 -81 -15 -108 -42c-26 -26 -41 -65 -41 -109c0 -45 15 -83 41 -109c27 -27 64 -42 108 -42s81 15 107 42c27 26 42 64 42 109c0 44 -15 83 -42 109c-26 27 -63 42 -107 42z" />
    <glyph glyph-name="zero.tf.zero" 
d="M539 547c19 -53 29 -119 29 -197s-10 -144 -29 -197c-40 -111 -119 -167 -234 -167s-194 56 -233 167c-19 53 -29 119 -29 197s10 144 29 197c39 111 118 167 233 167s195 -56 234 -167zM152 518c-16 -43 -23 -100 -23 -168s7 -125 23 -168l3 -9l261 419
c-28 30 -65 46 -111 46c-73 0 -125 -41 -153 -120zM459 182c15 43 23 100 23 168s-8 125 -23 168c-1 3 -2 7 -4 10l-262 -418c29 -32 66 -48 112 -48c74 0 125 41 154 120z" />
    <glyph glyph-name="dollar.tf" 
d="M550 470h-86v10c0 98 -56 149 -152 149c-66 0 -111 -24 -132 -61c-10 -17 -15 -37 -15 -59c0 -19 4 -35 12 -49c18 -31 54 -51 111 -62l81 -17c73 -13 125 -45 152 -92c14 -26 22 -56 22 -91c0 -37 -9 -71 -25 -100c-32 -55 -93 -90 -172 -99v-104h-76v104
c-124 13 -201 93 -201 221v16h87v-10c0 -101 56 -153 153 -153c67 0 111 24 132 61c10 17 15 37 15 60c0 19 -3 35 -12 50c-17 30 -53 51 -110 62l-81 16c-73 14 -125 44 -152 92c-15 25 -22 55 -22 89c0 38 9 71 25 99c31 55 89 90 166 100v95h76v-93
c126 -11 204 -90 204 -218v-16z" />
    <glyph glyph-name="cent.tf" 
d="M316 65c72 0 118 40 127 109h76c-3 -93 -66 -159 -160 -174v-60h-76v58c-63 7 -113 37 -146 84c-28 40 -42 91 -42 153c0 64 16 117 43 157c33 47 83 76 145 85v61h76v-62c99 -14 166 -83 170 -176h-77c-9 69 -57 110 -131 110c-51 0 -90 -20 -115 -56
c-21 -30 -32 -69 -32 -118c0 -48 10 -87 31 -116c24 -35 63 -55 111 -55z" />
    <glyph glyph-name="sterling.tf" 
d="M504 189l71 -28c-19 -110 -80 -161 -192 -161h-320v116c83 0 130 43 130 124c0 28 -5 52 -13 74h-117v72h85c-19 38 -36 79 -36 135c0 113 82 193 214 193c134 0 220 -91 220 -231h-84c0 96 -51 155 -136 155c-86 0 -129 -48 -129 -125c0 -46 20 -85 41 -127h222v-72
h-192c7 -23 12 -49 12 -78c0 -79 -51 -133 -132 -146v-14h235c70 0 103 30 121 113z" />
    <glyph glyph-name="florin.tf" 
d="M443 642c-58 0 -86 -29 -96 -93l-19 -121h174v-70h-184l-57 -368c-11 -74 -58 -135 -150 -135c-32 0 -51 7 -72 14v69c19 -8 42 -14 65 -14c44 0 75 25 83 75l55 359h-158v70h169l20 130c14 89 64 152 172 152c85 0 137 -41 148 -119l-76 -1c-7 33 -27 52 -74 52z" />
    <glyph glyph-name="yen.tf" 
d="M488 700h96l-196 -370h126v-68h-162v-88h162v-69h-162v-105h-84v105h-161v69h161v88h-161v68h125l-196 370h97l167 -333l3 -32h14l4 32z" />
    <glyph glyph-name="Euro.tf" 
d="M410 62c54 0 102 17 134 47l36 -69c-47 -35 -107 -54 -170 -54c-132 0 -231 66 -277 195c-6 16 -11 34 -15 52h-68v68h57c-1 16 -2 33 -2 50c0 15 1 29 2 43h-57v68h66c5 20 10 39 17 57c46 129 145 195 277 195c63 0 123 -19 170 -54l-36 -69c-32 30 -80 47 -134 47
c-93 0 -164 -53 -198 -148l-9 -28h297l-35 -68h-274c-1 -14 -2 -28 -2 -43c0 -17 1 -34 3 -50h230l-35 -68h-182c2 -8 4 -16 7 -23c34 -94 105 -148 198 -148z" />
    <glyph glyph-name="percent.tf" 
d="M176 435c-80 0 -140 60 -140 139c0 80 61 140 140 140c78 0 139 -60 139 -140c0 -79 -60 -139 -139 -139zM105 -10h-58l468 720h58zM176 491c46 0 79 34 79 83c0 47 -33 82 -79 82c-45 0 -79 -35 -79 -82c0 -49 34 -83 79 -83zM445 -14c-80 0 -140 60 -140 139
c0 80 61 140 140 140c78 0 139 -60 139 -140c0 -79 -60 -139 -139 -139zM445 43c46 0 79 34 79 82s-33 83 -79 83c-45 0 -79 -35 -79 -83s34 -82 79 -82z" />
    <glyph glyph-name="perthousand.tf" 
d="M172 435c-80 0 -140 60 -140 139c0 80 61 140 140 140c78 0 139 -60 139 -140c0 -79 -60 -139 -139 -139zM172 491c46 0 78 34 78 83c0 47 -32 82 -78 82c-45 0 -79 -35 -79 -82c0 -49 34 -83 79 -83zM526 480l-500 -237v56l500 237v-56zM241 -14c-80 0 -140 60 -140 139
c0 80 61 140 140 140c45 0 84 -20 109 -52c24 33 65 52 110 52c77 0 138 -60 138 -140c0 -79 -60 -139 -139 -139c-45 0 -84 20 -109 53c-25 -33 -64 -53 -109 -53zM241 43c46 0 79 34 79 82c0 49 -33 83 -79 83c-45 0 -78 -35 -78 -83s33 -82 78 -82zM460 43
c45 0 78 34 78 82s-32 83 -78 83s-79 -35 -79 -83s33 -82 79 -82z" />
    <glyph glyph-name="uni0308" unicode="&#x308;" horiz-adv-x="0" 
d="M-233 562h-91v102h91v-102zM-50 562h-91v102h91v-102z" />
    <glyph glyph-name="uni0307" unicode="&#x307;" horiz-adv-x="0" 
d="M-50 556h-92v117h92v-117z" />
    <glyph glyph-name="gravecomb" unicode="&#x300;" horiz-adv-x="0" 
d="M-50 539h-70l-102 150h98z" />
    <glyph glyph-name="acutecomb" unicode="&#x301;" horiz-adv-x="0" 
d="M-151 539h-71l75 150h97z" />
    <glyph glyph-name="uni030B" unicode="&#x30b;" horiz-adv-x="0" 
d="M-308 539h-60l72 143h88zM-149 539h-61l72 143h88z" />
    <glyph glyph-name="uni0302" unicode="&#x302;" horiz-adv-x="0" 
d="M-295 539h-88l126 148h82l125 -148h-87l-79 104z" />
    <glyph glyph-name="uni030C" unicode="&#x30c;" horiz-adv-x="0" 
d="M-175 539h-82l-126 150h88l79 -105l79 105h87z" />
    <glyph glyph-name="uni0306" unicode="&#x306;" horiz-adv-x="0" 
d="M-200 541c-84 0 -150 47 -150 148h67c0 -63 38 -93 83 -93c46 0 83 30 83 93h67c0 -102 -66 -148 -150 -148z" />
    <glyph glyph-name="uni030A" unicode="&#x30a;" horiz-adv-x="0" 
d="M-161 541c-62 0 -112 44 -112 110s50 110 112 110c61 0 111 -44 111 -110s-50 -110 -111 -110zM-161 593c33 0 56 24 56 58c0 33 -23 58 -56 58c-34 0 -57 -25 -57 -58c0 -34 23 -58 57 -58z" />
    <glyph glyph-name="tildecomb" unicode="&#x303;" horiz-adv-x="0" 
d="M-156 571c-57 0 -83 41 -137 41c-24 0 -48 -15 -48 -39h-58c0 77 58 101 106 101c57 0 82 -41 137 -41c25 0 47 13 48 39h58c0 -77 -59 -101 -106 -101z" />
    <glyph glyph-name="uni0304" unicode="&#x304;" horiz-adv-x="0" 
d="M-50 587h-307v57h307v-57z" />
    <glyph glyph-name="uni0312" unicode="&#x312;" horiz-adv-x="0" 
d="M-52 542h-99v57c0 70 37 109 101 109v-45c-25 0 -40 -16 -40 -43h38v-78z" />
    <glyph glyph-name="uni0326" unicode="&#x326;" horiz-adv-x="0" 
d="M-141 -185v47c28 0 44 11 44 31h-42v73h89v-57c0 -59 -33 -94 -91 -94z" />
    <glyph glyph-name="uni0327" unicode="&#x327;" horiz-adv-x="0" 
d="M-154 -192c-54 0 -111 27 -117 103h61c6 -38 28 -51 54 -51c27 0 46 16 46 39c0 19 -16 34 -38 34l-19 25l14 42h58l-9 -30c36 -13 54 -39 54 -71c0 -51 -42 -91 -104 -91z" />
    <glyph glyph-name="uni0328" unicode="&#x328;" horiz-adv-x="0" 
d="M-50 -123v-69c-106 0 -158 48 -158 106c0 61 53 102 140 120l18 -26c-56 -21 -86 -41 -86 -77c0 -32 30 -54 86 -54z" />
    <glyph glyph-name="uni2003" unicode="&#x2003;" horiz-adv-x="1000" 
 />
    <glyph glyph-name="uni2002" unicode="&#x2002;" horiz-adv-x="500" 
 />
    <glyph glyph-name="uni2005" unicode="&#x2005;" horiz-adv-x="250" 
 />
    <glyph glyph-name="uni200A" unicode="&#x200a;" horiz-adv-x="42" 
 />
    <glyph glyph-name="uni2009" unicode="&#x2009;" horiz-adv-x="125" 
 />
    <glyph glyph-name="uni2004" unicode="&#x2004;" horiz-adv-x="333" 
 />
    <glyph glyph-name="uni1EA0" unicode="&#x1ea0;" horiz-adv-x="678" 
d="M401 700l256 -700h-90l-90 253h-276l-91 -253h-89l256 700h124zM325 599l-95 -266h218l-95 266l-7 48h-14zM386 -180h-92v117h92v-117z" />
    <glyph glyph-name="uni1EB8" unicode="&#x1eb8;" horiz-adv-x="556" 
d="M493 0h-401v700h401v-80h-317v-229h307v-79h-307v-232h317v-80zM355 -180h-92v117h92v-117z" />
    <glyph glyph-name="uni1EBC" unicode="&#x1ebc;" horiz-adv-x="556" 
d="M366 758c-57 0 -82 41 -136 41c-25 0 -48 -15 -48 -39h-59c0 77 59 101 107 101c56 0 82 -41 136 -41c25 0 48 14 48 39h58c0 -77 -58 -101 -106 -101zM493 0h-401v700h401v-80h-317v-229h307v-79h-307v-232h317v-80z" />
    <glyph glyph-name="Gcaron" unicode="&#x1e6;" horiz-adv-x="769" 
d="M445 755h-92l-118 110h92l72 -66l72 66h92zM369 -15c-133 0 -251 80 -298 212c-18 50 -25 104 -25 152c0 50 7 101 24 146c50 134 169 220 326 220c176 0 301 -108 312 -260h-86c-14 110 -103 180 -225 180c-118 0 -206 -67 -244 -170c-12 -35 -19 -74 -19 -116
c0 -39 5 -83 19 -121c36 -99 120 -163 228 -163c125 0 213 83 224 213h-233v79h313v-357h-84l22 173h-14c-32 -119 -118 -188 -240 -188z" />
    <glyph glyph-name="uni1ECA" unicode="&#x1eca;" horiz-adv-x="268" 
d="M176 0h-84v700h84v-700zM180 -180h-92v117h92v-117z" />
    <glyph glyph-name="uni019D" unicode="&#x19d;" horiz-adv-x="721" 
d="M545 60v640h83v-700h-131l-284 539l-23 101h-14v-670c0 -111 -51 -161 -165 -161v72c53 0 81 28 81 82v737h131l284 -539l24 -101h14z" />
    <glyph glyph-name="uni1ECC" unicode="&#x1ecc;" horiz-adv-x="797" 
d="M399 -15c-157 0 -278 83 -329 220c-17 45 -24 96 -24 145s7 100 24 145c50 134 170 220 329 220c158 0 278 -86 328 -220c17 -45 24 -96 24 -145s-7 -100 -24 -145c-49 -134 -167 -220 -328 -220zM399 65c118 0 206 65 245 171c13 35 19 74 19 114c0 41 -7 80 -19 115
c-38 103 -126 170 -245 170c-120 0 -208 -67 -246 -170c-12 -35 -19 -74 -19 -115s7 -80 19 -114c38 -105 127 -171 246 -171zM447 -180h-92v117h92v-117z" />
    <glyph glyph-name="uni01EA" unicode="&#x1ea;" horiz-adv-x="797" 
d="M727 495c17 -45 24 -96 24 -145s-7 -100 -24 -145c-37 -102 -114 -176 -219 -205c-43 -19 -65 -38 -65 -69c0 -32 30 -54 86 -54v-69c-106 0 -158 48 -158 106c0 28 11 52 32 71h-4c-157 0 -278 83 -329 220c-17 45 -24 96 -24 145s7 100 24 145c50 134 170 220 329 220
c158 0 278 -86 328 -220zM644 236c13 35 19 74 19 114c0 41 -7 80 -19 115c-38 103 -126 170 -245 170c-120 0 -208 -67 -246 -170c-12 -35 -19 -74 -19 -115s7 -80 19 -114c38 -105 127 -171 246 -171c118 0 206 65 245 171z" />
    <glyph glyph-name="uni1E9E" unicode="&#x1e9e;" horiz-adv-x="667" 
d="M176 0h-84v700h503v-137l-191 -173v-15c89 0 158 -36 189 -93c14 -25 22 -53 22 -84c0 -39 -9 -73 -25 -101c-37 -64 -112 -97 -205 -97h-105v80h105c61 0 106 18 129 56c10 17 15 38 15 64c0 21 -4 39 -12 53c-22 40 -73 56 -132 56h-55v111l201 186v14h-355v-620z" />
    <glyph glyph-name="uni018F" unicode="&#x18f;" horiz-adv-x="754" 
d="M684 495c16 -44 24 -92 24 -145c0 -56 -9 -109 -28 -161c-45 -124 -164 -204 -308 -204c-193 0 -315 126 -315 328v63h562c-2 31 -9 61 -18 89c-38 105 -124 170 -233 170c-128 0 -223 -74 -236 -185h-86c9 155 140 265 323 265c147 0 265 -86 315 -220zM597 220
c9 26 16 53 20 80h-474c3 -149 88 -235 224 -235c108 0 195 60 230 155z" />
    <glyph glyph-name="uni1EE4" unicode="&#x1ee4;" horiz-adv-x="693" 
d="M347 -15c-163 0 -265 102 -265 266v449h88v-447c0 -114 67 -186 177 -186s177 71 177 186v447h87v-449c0 -164 -101 -266 -264 -266zM393 -180h-92v117h92v-117z" />
    <glyph glyph-name="uni0232" unicode="&#x232;" horiz-adv-x="601" 
d="M157 833h285v-61h-285v61zM490 700h100l-248 -437v-263h-84v263l-247 437h100l179 -328l4 -35h14l3 35z" />
    <glyph glyph-name="uni1EF8" unicode="&#x1ef8;" horiz-adv-x="601" 
d="M232 799c-25 0 -48 -15 -48 -39h-59c0 77 59 101 107 101c56 0 82 -41 136 -41c25 0 48 14 48 39h58c0 -77 -58 -101 -106 -101c-57 0 -82 41 -136 41zM490 700h100l-248 -437v-263h-84v263l-247 437h100l179 -328l4 -35h14l3 35z" />
    <glyph glyph-name="Adieresis.ss01" horiz-adv-x="678" 
d="M242 744c-32 0 -56 22 -56 55s24 55 56 55c30 0 54 -22 54 -55c0 -32 -24 -55 -54 -55zM439 744c-32 0 -56 22 -56 55s24 55 56 55c30 0 54 -22 54 -55c0 -32 -24 -55 -54 -55zM657 0h-90l-90 253h-276l-91 -253h-89l256 700h124zM325 599l-95 -266h218l-95 266l-7 48
h-14z" />
    <glyph glyph-name="uni1EA0.ss01" horiz-adv-x="678" 
d="M401 700l256 -700h-90l-90 253h-276l-91 -253h-89l256 700h124zM325 599l-95 -266h218l-95 266l-7 48h-14zM341 -63c33 0 59 -25 59 -60s-26 -60 -59 -60s-60 25 -60 60s27 60 60 60z" />
    <glyph glyph-name="Cdotaccent.ss01" horiz-adv-x="760" 
d="M396 750c-32 0 -56 23 -56 55c0 33 24 55 56 55c30 0 54 -22 54 -55c0 -32 -24 -55 -54 -55zM385 -15c-145 0 -266 86 -315 220c-16 44 -24 93 -24 145s8 101 24 145c49 134 170 220 323 220c176 0 306 -108 315 -265h-86c-12 111 -104 185 -228 185
c-115 0 -203 -67 -241 -170c-12 -35 -19 -74 -19 -115s7 -80 19 -114c38 -104 126 -171 237 -171c123 0 207 73 221 185h86c-15 -157 -133 -265 -312 -265z" />
    <glyph glyph-name="Edieresis.ss01" horiz-adv-x="556" 
d="M200 744c-32 0 -56 22 -56 55s24 55 56 55c30 0 54 -22 54 -55c0 -32 -24 -55 -54 -55zM397 744c-32 0 -56 22 -56 55s24 55 56 55c30 0 54 -22 54 -55c0 -32 -24 -55 -54 -55zM493 0h-401v700h401v-80h-317v-229h307v-79h-307v-232h317v-80z" />
    <glyph glyph-name="Edotaccent.ss01" horiz-adv-x="556" 
d="M299 750c-32 0 -56 23 -56 55c0 33 24 55 56 55c30 0 54 -22 54 -55c0 -32 -24 -55 -54 -55zM493 0h-401v700h401v-80h-317v-229h307v-79h-307v-232h317v-80z" />
    <glyph glyph-name="uni1EB8.ss01" horiz-adv-x="556" 
d="M493 0h-401v700h401v-80h-317v-229h307v-79h-307v-232h317v-80zM309 -183c-33 0 -60 25 -60 60s27 60 60 60s59 -25 59 -60s-26 -60 -59 -60z" />
    <glyph glyph-name="uni0122.ss01" horiz-adv-x="769" 
d="M369 -15c-133 0 -251 80 -298 212c-18 50 -25 104 -25 152c0 50 7 101 24 146c50 134 169 220 326 220c176 0 301 -108 312 -260h-86c-14 110 -103 180 -225 180c-118 0 -206 -67 -244 -170c-12 -35 -19 -74 -19 -116c0 -39 5 -83 19 -121c36 -99 120 -163 228 -163
c125 0 213 83 224 213h-233v79h313v-357h-84l22 173h-14c-32 -119 -118 -188 -240 -188zM335 -185v43c28 0 37 8 38 29c-25 1 -43 17 -43 40c0 22 19 41 50 41c30 0 50 -15 50 -60c0 -50 -30 -93 -95 -93z" />
    <glyph glyph-name="Gdotaccent.ss01" horiz-adv-x="769" 
d="M401 750c-32 0 -56 23 -56 55c0 33 24 55 56 55c30 0 54 -22 54 -55c0 -32 -24 -55 -54 -55zM369 -15c-133 0 -251 80 -298 212c-18 50 -25 104 -25 152c0 50 7 101 24 146c50 134 169 220 326 220c176 0 301 -108 312 -260h-86c-14 110 -103 180 -225 180
c-118 0 -206 -67 -244 -170c-12 -35 -19 -74 -19 -116c0 -39 5 -83 19 -121c36 -99 120 -163 228 -163c125 0 213 83 224 213h-233v79h313v-357h-84l22 173h-14c-32 -119 -118 -188 -240 -188z" />
    <glyph glyph-name="Idieresis.ss01" horiz-adv-x="268" 
d="M36 744c-32 0 -56 22 -56 55s24 55 56 55c30 0 54 -22 54 -55c0 -32 -24 -55 -54 -55zM233 744c-32 0 -56 22 -56 55s24 55 56 55c30 0 54 -22 54 -55c0 -32 -24 -55 -54 -55zM176 0h-84v700h84v-700z" />
    <glyph glyph-name="Idotaccent.ss01" horiz-adv-x="268" 
d="M135 750c-32 0 -56 23 -56 55c0 33 24 55 56 55c30 0 54 -22 54 -55c0 -32 -24 -55 -54 -55zM176 0h-84v700h84v-700z" />
    <glyph glyph-name="uni1ECA.ss01" horiz-adv-x="268" 
d="M176 0h-84v700h84v-700zM135 -183c-33 0 -60 25 -60 60s27 60 60 60s59 -25 59 -60s-26 -60 -59 -60z" />
    <glyph glyph-name="uni0136.ss01" horiz-adv-x="632" 
d="M514 700h102l-269 -321l264 -379h-107l-217 316l-111 -130v-186h-84v700h84v-363l-27 -60h14zM317 -32c30 0 50 -15 50 -60c0 -50 -30 -93 -95 -93v43c28 0 37 8 38 29c-25 1 -43 17 -43 40c0 22 19 41 50 41z" />
    <glyph glyph-name="uni013B.ss01" horiz-adv-x="518" 
d="M493 0h-401v700h84v-620h317v-80zM254 -185v43c28 0 37 8 38 29c-25 1 -43 17 -43 40c0 22 19 41 50 41c30 0 50 -15 50 -60c0 -50 -30 -93 -95 -93z" />
    <glyph glyph-name="Ldot.ss01" horiz-adv-x="518" 
d="M493 0h-401v700h84v-620h317v-80zM384 355c-36 0 -64 27 -64 64c0 36 28 63 64 63c37 0 64 -27 64 -63s-27 -64 -64 -64z" />
    <glyph glyph-name="uni0145.ss01" horiz-adv-x="721" 
d="M176 0h-84v700h131l284 -539l24 -101h14v640h83v-700h-131l-284 539l-23 101h-14v-640zM307 -185v43c28 0 37 8 38 29c-25 1 -43 17 -43 40c0 22 19 41 50 41c30 0 50 -15 50 -60c0 -50 -30 -93 -95 -93z" />
    <glyph glyph-name="Odieresis.ss01" horiz-adv-x="797" 
d="M302 744c-32 0 -56 22 -56 55s24 55 56 55c30 0 54 -22 54 -55c0 -32 -24 -55 -54 -55zM499 744c-32 0 -56 22 -56 55s24 55 56 55c30 0 54 -22 54 -55c0 -32 -24 -55 -54 -55zM399 -15c-157 0 -278 83 -329 220c-17 45 -24 96 -24 145s7 100 24 145
c50 134 170 220 329 220c158 0 278 -86 328 -220c17 -45 24 -96 24 -145s-7 -100 -24 -145c-49 -134 -167 -220 -328 -220zM399 65c118 0 206 65 245 171c13 35 19 74 19 114c0 41 -7 80 -19 115c-38 103 -126 170 -245 170c-120 0 -208 -67 -246 -170
c-12 -35 -19 -74 -19 -115s7 -80 19 -114c38 -105 127 -171 246 -171z" />
    <glyph glyph-name="uni1ECC.ss01" horiz-adv-x="797" 
d="M399 -15c-157 0 -278 83 -329 220c-17 45 -24 96 -24 145s7 100 24 145c50 134 170 220 329 220c158 0 278 -86 328 -220c17 -45 24 -96 24 -145s-7 -100 -24 -145c-49 -134 -167 -220 -328 -220zM399 65c118 0 206 65 245 171c13 35 19 74 19 114c0 41 -7 80 -19 115
c-38 103 -126 170 -245 170c-120 0 -208 -67 -246 -170c-12 -35 -19 -74 -19 -115s7 -80 19 -114c38 -105 127 -171 246 -171zM401 -183c-33 0 -60 25 -60 60s27 60 60 60s59 -25 59 -60s-26 -60 -59 -60z" />
    <glyph glyph-name="uni0156.ss01" horiz-adv-x="602" 
d="M327 326v-14l24 -14l203 -298h-107l-212 318h-59v-318h-84v700h235c99 0 168 -29 202 -88c16 -28 25 -63 25 -104c0 -37 -8 -69 -23 -96c-34 -59 -109 -86 -204 -86zM336 620h-160v-227h159c57 0 98 17 118 51c10 17 15 40 15 64c0 23 -4 43 -14 59
c-20 36 -60 53 -118 53zM298 -32c30 0 50 -15 50 -60c0 -50 -30 -93 -95 -93v43c28 0 37 8 38 29c-25 1 -43 17 -43 40c0 22 19 41 50 41z" />
    <glyph glyph-name="uni0218.ss01" horiz-adv-x="613" 
d="M300 -15c-149 0 -244 86 -244 230v16h89v-10c0 -104 58 -157 158 -157c69 0 114 24 136 63c10 18 16 38 16 61c0 20 -4 37 -12 52c-19 31 -55 53 -114 64l-84 16c-75 14 -129 46 -156 95c-15 26 -23 56 -23 92c0 38 10 72 26 102c38 66 116 106 217 106
c149 0 243 -84 243 -226v-17h-90v11c0 101 -57 153 -156 153c-68 0 -114 -24 -136 -63c-10 -18 -15 -37 -15 -61c0 -19 4 -35 12 -50c19 -32 55 -53 115 -64l83 -17c75 -14 129 -46 156 -95c15 -26 23 -58 23 -93c0 -38 -9 -74 -26 -103c-38 -67 -116 -105 -218 -105z
M256 -185v43c28 0 37 8 38 29c-25 1 -43 17 -43 40c0 22 19 41 50 41c30 0 50 -15 50 -60c0 -50 -30 -93 -95 -93z" />
    <glyph glyph-name="uni021A.ss01" horiz-adv-x="556" 
d="M11 620v80h534v-80h-225v-620h-84v620h-225zM277 -32c30 0 50 -15 50 -60c0 -50 -30 -93 -95 -93v43c28 0 37 8 38 29c-25 1 -43 17 -43 40c0 22 19 41 50 41z" />
    <glyph glyph-name="Udieresis.ss01" horiz-adv-x="693" 
d="M249 744c-32 0 -56 22 -56 55s24 55 56 55c30 0 54 -22 54 -55c0 -32 -24 -55 -54 -55zM446 744c-32 0 -56 22 -56 55s24 55 56 55c30 0 54 -22 54 -55c0 -32 -24 -55 -54 -55zM347 -15c-163 0 -265 102 -265 266v449h88v-447c0 -114 67 -186 177 -186s177 71 177 186
v447h87v-449c0 -164 -101 -266 -264 -266z" />
    <glyph glyph-name="uni1EE4.ss01" horiz-adv-x="693" 
d="M347 -15c-163 0 -265 102 -265 266v449h88v-447c0 -114 67 -186 177 -186s177 71 177 186v447h87v-449c0 -164 -101 -266 -264 -266zM347 -183c-33 0 -60 25 -60 60s27 60 60 60s59 -25 59 -60s-26 -60 -59 -60z" />
    <glyph glyph-name="Wdieresis.ss01" horiz-adv-x="959" 
d="M382 744c-32 0 -56 22 -56 55s24 55 56 55c30 0 54 -22 54 -55c0 -32 -24 -55 -54 -55zM579 744c-32 0 -56 22 -56 55s24 55 56 55c30 0 54 -22 54 -55c0 -32 -24 -55 -54 -55zM340 0h-139l-171 700h91l141 -590l3 -57h14l3 57l129 590h137l129 -590l3 -57h14l3 57
l142 590h90l-171 -700h-139l-130 594l-3 46h-13l-3 -46z" />
    <glyph glyph-name="Ydieresis.ss01" horiz-adv-x="601" 
d="M202 744c-32 0 -56 22 -56 55s24 55 56 55c30 0 54 -22 54 -55c0 -32 -24 -55 -54 -55zM399 744c-32 0 -56 22 -56 55s24 55 56 55c30 0 54 -22 54 -55c0 -32 -24 -55 -54 -55zM490 700h100l-248 -437v-263h-84v263l-247 437h100l179 -328l4 -35h14l3 35z" />
    <glyph glyph-name="Zdotaccent.ss01" horiz-adv-x="602" 
d="M294 750c-32 0 -56 23 -56 55c0 33 24 55 56 55c30 0 54 -22 54 -55c0 -32 -24 -55 -54 -55zM551 0h-500v129l428 477v14h-428v80h500v-137l-423 -469v-14h423v-80z" />
    <glyph glyph-name="uni1EA1" unicode="&#x1ea1;" horiz-adv-x="519" 
d="M250 489c131 0 197 -65 197 -179v-310h-83l21 133h-14c-24 -97 -80 -147 -170 -147c-44 0 -82 15 -107 41c-24 24 -37 56 -37 95c0 40 12 71 36 95c28 28 72 44 130 47l144 9v37c0 66 -38 107 -118 107c-118 0 -119 -90 -119 -102v-4h-83v4c0 14 2 174 203 174zM219 56
c103 0 148 93 148 152v2l-132 -13c-36 -3 -62 -12 -77 -28c-12 -12 -18 -27 -18 -47c0 -19 6 -33 18 -45c13 -14 34 -21 61 -21zM327 -180h-92v117h92v-117z" />
    <glyph glyph-name="uni1EB9" unicode="&#x1eb9;" horiz-adv-x="531" 
d="M489 251v-35h-363c2 -41 13 -74 31 -100c25 -37 65 -58 121 -58c64 0 112 32 130 87h80c-18 -92 -102 -159 -208 -159c-91 0 -154 32 -194 90c-29 41 -44 95 -44 159c0 67 19 122 48 163c40 59 105 91 181 91c137 0 218 -89 218 -238zM128 283h276
c-4 87 -52 135 -133 135c-46 0 -89 -21 -115 -59c-14 -20 -23 -46 -28 -76zM324 -180h-92v117h92v-117z" />
    <glyph glyph-name="uni1EBD" unicode="&#x1ebd;" horiz-adv-x="531" 
d="M204 612c-24 0 -48 -15 -48 -39h-58c0 77 58 101 106 101c57 0 82 -41 137 -41c25 0 47 13 48 39h58c0 -77 -59 -101 -106 -101c-57 0 -83 41 -137 41zM489 251v-35h-363c2 -41 13 -74 31 -100c25 -37 65 -58 121 -58c64 0 112 32 130 87h80c-18 -92 -102 -159 -208 -159
c-91 0 -154 32 -194 90c-29 41 -44 95 -44 159c0 67 19 122 48 163c40 59 105 91 181 91c137 0 218 -89 218 -238zM128 283h276c-4 87 -52 135 -133 135c-46 0 -89 -21 -115 -59c-14 -20 -23 -46 -28 -76z" />
    <glyph glyph-name="uni0259" unicode="&#x259;" horiz-adv-x="531" 
d="M445 399c29 -41 44 -95 44 -159c0 -67 -19 -122 -48 -163c-40 -59 -105 -91 -181 -91c-137 0 -218 89 -218 238v35h363c-2 41 -13 74 -31 100c-25 37 -65 58 -121 58c-64 0 -112 -32 -130 -87h-80c18 92 102 159 208 159c91 0 154 -32 194 -90zM260 57c46 0 89 21 115 59
c14 20 23 46 28 76h-276c4 -87 52 -135 133 -135z" />
    <glyph glyph-name="gcaron" unicode="&#x1e7;" horiz-adv-x="569" 
d="M327 539h-82l-126 150h88l79 -105l79 105h87zM267 -192c-139 0 -214 69 -220 192h80c5 -76 53 -120 140 -120c93 0 146 54 146 150v13l28 133h-13c-28 -104 -93 -146 -171 -146c-72 0 -132 29 -169 83c-27 38 -41 88 -41 146c0 59 14 108 41 147c37 53 97 83 169 83
c78 0 143 -43 171 -147h13l-28 133h80v-417c0 -166 -76 -250 -226 -250zM272 100c48 0 88 19 113 55c20 29 29 63 29 104c0 42 -9 75 -29 105c-25 35 -65 55 -113 55c-49 0 -88 -20 -113 -55c-21 -30 -30 -63 -30 -105c0 -41 9 -75 30 -104c25 -36 64 -55 113 -55z" />
    <glyph glyph-name="i.loclTRK" horiz-adv-x="243" 
d="M168 556h-92v117h92v-117zM161 0h-80v475h80v-475z" />
    <glyph glyph-name="uni1ECB" unicode="&#x1ecb;" horiz-adv-x="243" 
d="M168 556h-92v117h92v-117zM161 0h-80v475h80v-475zM168 -180h-92v117h92v-117z" />
    <glyph glyph-name="uni0272" unicode="&#x272;" horiz-adv-x="565" 
d="M321 489c112 0 172 -69 172 -196v-293h-80v283c0 87 -39 132 -112 132c-86 0 -140 -67 -140 -170v-282c0 -92 -56 -153 -143 -153v68c40 0 63 31 63 85v512h80l-21 -133h13c27 98 86 147 168 147z" />
    <glyph glyph-name="uni1ECD" unicode="&#x1ecd;" horiz-adv-x="572" 
d="M286 -14c-87 0 -157 37 -200 100c-28 40 -44 92 -44 152c0 59 16 111 44 152c43 62 113 99 200 99c86 0 157 -37 200 -99c28 -41 43 -93 43 -152c0 -60 -16 -112 -43 -152c-43 -63 -114 -100 -200 -100zM286 58c56 0 101 25 129 66c21 30 32 69 32 114s-11 83 -32 113
c-28 41 -73 66 -129 66s-101 -25 -130 -66c-20 -30 -31 -68 -31 -113s11 -84 31 -114c29 -41 74 -66 130 -66zM332 -180h-92v117h92v-117z" />
    <glyph glyph-name="uni01EB" unicode="&#x1eb;" horiz-adv-x="572" 
d="M486 390c28 -41 43 -93 43 -152c0 -60 -16 -112 -43 -152c-30 -44 -74 -75 -126 -90c-37 -17 -57 -36 -57 -65c0 -32 30 -54 86 -54v-69c-106 0 -158 48 -158 106c0 29 12 53 34 73c-78 5 -140 41 -179 99c-28 40 -44 92 -44 152c0 59 16 111 44 152c43 62 113 99 200 99
c86 0 157 -37 200 -99zM415 124c21 30 32 69 32 114s-11 83 -32 113c-28 41 -73 66 -129 66s-101 -25 -130 -66c-20 -30 -31 -68 -31 -113s11 -84 31 -114c29 -41 74 -66 130 -66s101 25 129 66z" />
    <glyph glyph-name="uni1EE5" unicode="&#x1ee5;" horiz-adv-x="555" 
d="M238 -14c-110 0 -166 69 -166 196v293h80v-282c0 -88 37 -132 107 -132c83 0 135 67 135 169v245h80v-475h-80l22 133h-14c-27 -97 -84 -147 -164 -147zM350 -180h-92v117h92v-117z" />
    <glyph glyph-name="uni0233" unicode="&#x233;" horiz-adv-x="511" 
d="M104 644h307v-57h-307v57zM274 105l131 370h92l-197 -521c-40 -109 -83 -146 -156 -146c-83 0 -135 45 -135 128v12h80v-12c0 -37 21 -57 55 -57c33 0 56 19 74 69l34 97h-54l-181 430h92l150 -370h15z" />
    <glyph glyph-name="uni1EF9" unicode="&#x1ef9;" horiz-adv-x="511" 
d="M189 612c-24 0 -48 -15 -48 -39h-58c0 77 58 101 106 101c57 0 82 -41 137 -41c25 0 47 13 48 39h58c0 -77 -59 -101 -106 -101c-57 0 -83 41 -137 41zM274 105l131 370h92l-197 -521c-40 -109 -83 -146 -156 -146c-83 0 -135 45 -135 128v12h80v-12c0 -37 21 -57 55 -57
c33 0 56 19 74 69l34 97h-54l-181 430h92l150 -370h15z" />
    <glyph glyph-name="adieresis.ss01" horiz-adv-x="519" 
d="M169 565c-32 0 -56 23 -56 55c0 33 24 56 56 56c30 0 54 -23 54 -56c0 -32 -24 -55 -54 -55zM347 565c-31 0 -56 23 -56 55c0 33 25 56 56 56c30 0 54 -23 54 -56c0 -32 -24 -55 -54 -55zM250 489c131 0 197 -65 197 -179v-310h-83l21 133h-14
c-24 -97 -80 -147 -170 -147c-44 0 -82 15 -107 41c-24 24 -37 56 -37 95c0 40 12 71 36 95c28 28 72 44 130 47l144 9v37c0 66 -38 107 -118 107c-118 0 -119 -90 -119 -102v-4h-83v4c0 14 2 174 203 174zM219 56c103 0 148 93 148 152v2l-132 -13c-36 -3 -62 -12 -77 -28
c-12 -12 -18 -27 -18 -47c0 -19 6 -33 18 -45c13 -14 34 -21 61 -21z" />
    <glyph glyph-name="uni1EA1.ss01" horiz-adv-x="519" 
d="M250 489c131 0 197 -65 197 -179v-310h-83l21 133h-14c-24 -97 -80 -147 -170 -147c-44 0 -82 15 -107 41c-24 24 -37 56 -37 95c0 40 12 71 36 95c28 28 72 44 130 47l144 9v37c0 66 -38 107 -118 107c-118 0 -119 -90 -119 -102v-4h-83v4c0 14 2 174 203 174zM219 56
c103 0 148 93 148 152v2l-132 -13c-36 -3 -62 -12 -77 -28c-12 -12 -18 -27 -18 -47c0 -19 6 -33 18 -45c13 -14 34 -21 61 -21zM281 -63c33 0 59 -25 59 -60s-26 -60 -59 -60s-60 25 -60 60s27 60 60 60z" />
    <glyph glyph-name="cdotaccent.ss01" horiz-adv-x="537" 
d="M277 561c-33 0 -60 25 -60 61c0 35 27 60 60 60s59 -25 59 -60s-26 -61 -59 -61zM270 -14c-81 0 -144 32 -184 90c-29 41 -44 95 -44 159c0 67 17 122 46 163c40 59 106 91 190 91c123 0 212 -76 216 -186h-80c-9 71 -59 114 -136 114c-53 0 -94 -21 -120 -58
c-22 -31 -33 -72 -33 -123c0 -50 11 -90 32 -120c25 -37 65 -58 116 -58c75 0 122 42 131 114h80c-4 -111 -90 -186 -214 -186z" />
    <glyph glyph-name="edieresis.ss01" horiz-adv-x="531" 
d="M185 565c-32 0 -56 23 -56 55c0 33 24 56 56 56c30 0 54 -23 54 -56c0 -32 -24 -55 -54 -55zM363 565c-31 0 -56 23 -56 55c0 33 25 56 56 56c30 0 54 -23 54 -56c0 -32 -24 -55 -54 -55zM489 251v-35h-363c2 -41 13 -74 31 -100c25 -37 65 -58 121 -58
c64 0 112 32 130 87h80c-18 -92 -102 -159 -208 -159c-91 0 -154 32 -194 90c-29 41 -44 95 -44 159c0 67 19 122 48 163c40 59 105 91 181 91c137 0 218 -89 218 -238zM128 283h276c-4 87 -52 135 -133 135c-46 0 -89 -21 -115 -59c-14 -20 -23 -46 -28 -76z" />
    <glyph glyph-name="edotaccent.ss01" horiz-adv-x="531" 
d="M273 561c-33 0 -60 25 -60 61c0 35 27 60 60 60s59 -25 59 -60s-26 -61 -59 -61zM489 251v-35h-363c2 -41 13 -74 31 -100c25 -37 65 -58 121 -58c64 0 112 32 130 87h80c-18 -92 -102 -159 -208 -159c-91 0 -154 32 -194 90c-29 41 -44 95 -44 159c0 67 19 122 48 163
c40 59 105 91 181 91c137 0 218 -89 218 -238zM128 283h276c-4 87 -52 135 -133 135c-46 0 -89 -21 -115 -59c-14 -20 -23 -46 -28 -76z" />
    <glyph glyph-name="uni1EB9.ss01" horiz-adv-x="531" 
d="M489 251v-35h-363c2 -41 13 -74 31 -100c25 -37 65 -58 121 -58c64 0 112 32 130 87h80c-18 -92 -102 -159 -208 -159c-91 0 -154 32 -194 90c-29 41 -44 95 -44 159c0 67 19 122 48 163c40 59 105 91 181 91c137 0 218 -89 218 -238zM128 283h276
c-4 87 -52 135 -133 135c-46 0 -89 -21 -115 -59c-14 -20 -23 -46 -28 -76zM278 -63c33 0 59 -25 59 -60s-26 -60 -59 -60s-60 25 -60 60s27 60 60 60z" />
    <glyph glyph-name="uni0123.ss01" horiz-adv-x="569" 
d="M286 552c-33 0 -57 17 -57 68c0 57 36 106 110 106v-50c-32 0 -43 -7 -45 -28c28 0 48 -19 48 -45c0 -27 -20 -51 -56 -51zM267 -192c-139 0 -214 69 -220 192h80c5 -76 53 -120 140 -120c93 0 146 54 146 150v13l28 133h-13c-28 -104 -93 -146 -171 -146
c-72 0 -132 29 -169 83c-27 38 -41 88 -41 146c0 59 14 108 41 147c37 53 97 83 169 83c78 0 143 -43 171 -147h13l-28 133h80v-417c0 -166 -76 -250 -226 -250zM272 100c48 0 88 19 113 55c20 29 29 63 29 104c0 42 -9 75 -29 105c-25 35 -65 55 -113 55
c-49 0 -88 -20 -113 -55c-21 -30 -30 -63 -30 -105c0 -41 9 -75 30 -104c25 -36 64 -55 113 -55z" />
    <glyph glyph-name="gdotaccent.ss01" horiz-adv-x="569" 
d="M287 561c-33 0 -60 25 -60 61c0 35 27 60 60 60s59 -25 59 -60s-26 -61 -59 -61zM267 -192c-139 0 -214 69 -220 192h80c5 -76 53 -120 140 -120c93 0 146 54 146 150v13l28 133h-13c-28 -104 -93 -146 -171 -146c-72 0 -132 29 -169 83c-27 38 -41 88 -41 146
c0 59 14 108 41 147c37 53 97 83 169 83c78 0 143 -43 171 -147h13l-28 133h80v-417c0 -166 -76 -250 -226 -250zM272 100c48 0 88 19 113 55c20 29 29 63 29 104c0 42 -9 75 -29 105c-25 35 -65 55 -113 55c-49 0 -88 -20 -113 -55c-21 -30 -30 -63 -30 -105
c0 -41 9 -75 30 -104c25 -36 64 -55 113 -55z" />
    <glyph glyph-name="i.ss01" horiz-adv-x="243" 
d="M122 561c-33 0 -60 25 -60 61c0 35 27 60 60 60s59 -25 59 -60s-26 -61 -59 -61zM161 0h-80v475h80v-475z" />
    <glyph glyph-name="idieresis.ss01" horiz-adv-x="243" 
d="M34 565c-32 0 -56 23 -56 55c0 33 24 56 56 56c30 0 54 -23 54 -56c0 -32 -24 -55 -54 -55zM212 565c-31 0 -56 23 -56 55c0 33 25 56 56 56c30 0 54 -23 54 -56c0 -32 -24 -55 -54 -55zM161 0h-80v475h80v-475z" />
    <glyph glyph-name="i.loclTRK.ss01" horiz-adv-x="243" 
d="M122 561c-33 0 -60 25 -60 61c0 35 27 60 60 60s59 -25 59 -60s-26 -61 -59 -61zM161 0h-80v475h80v-475z" />
    <glyph glyph-name="uni1ECB.ss01" horiz-adv-x="243" 
d="M122 561c-33 0 -60 25 -60 61c0 35 27 60 60 60s59 -25 59 -60s-26 -61 -59 -61zM161 0h-80v475h80v-475zM122 -183c-33 0 -60 25 -60 60s27 60 60 60s59 -25 59 -60s-26 -60 -59 -60z" />
    <glyph glyph-name="ij.ss01" horiz-adv-x="502" 
d="M122 561c-33 0 -60 25 -60 61c0 35 27 60 60 60s59 -25 59 -60s-26 -61 -59 -61zM382 561c-34 0 -60 25 -60 60s26 60 60 60c33 0 59 -25 59 -60s-26 -60 -59 -60zM161 0h-80v475h80v-475zM274 -192c-89 0 -136 49 -139 131h79c3 -39 24 -60 62 -60c43 0 65 30 65 84v512
h80v-496c0 -112 -49 -171 -147 -171z" />
    <glyph glyph-name="iogonek.ss01" horiz-adv-x="243" 
d="M122 682c33 0 59 -25 59 -60s-26 -61 -59 -61s-60 25 -60 61c0 35 27 60 60 60zM81 18v457h80v-475h-28c-43 -18 -66 -38 -66 -69c0 -32 30 -54 86 -54v-69c-106 0 -158 48 -158 106c0 47 32 82 86 104z" />
    <glyph glyph-name="j.ss01" horiz-adv-x="259" 
d="M139 561c-33 0 -60 25 -60 61c0 35 27 60 60 60s59 -25 59 -60s-26 -61 -59 -61zM31 -192c-89 0 -136 49 -139 131h79c3 -39 24 -60 62 -60c43 0 65 30 65 84v512h80v-496c0 -112 -49 -171 -147 -171z" />
    <glyph glyph-name="uni0137.ss01" horiz-adv-x="515" 
d="M405 475h99l-203 -211l198 -264h-101l-155 210l-82 -84v-126h-80v700h80v-438l-28 -54h14zM267 -32c30 0 50 -15 50 -60c0 -50 -30 -93 -95 -93v43c28 0 37 8 38 29c-25 1 -43 17 -43 40c0 22 19 41 50 41z" />
    <glyph glyph-name="uni013C.ss01" horiz-adv-x="243" 
d="M161 0h-80v700h80v-700zM76 -185v43c28 0 37 8 38 29c-25 1 -43 17 -43 40c0 22 19 41 50 41c30 0 50 -15 50 -60c0 -50 -30 -93 -95 -93z" />
    <glyph glyph-name="ldot.ss01" horiz-adv-x="306" 
d="M161 0h-80v700h80v-700zM275 356c-36 0 -64 27 -64 64c0 36 28 63 64 63c37 0 64 -27 64 -63s-27 -64 -64 -64z" />
    <glyph glyph-name="napostrophe.ss01" horiz-adv-x="760" 
d="M109 716c39 0 67 -23 67 -90c0 -81 -40 -155 -117 -157v53c32 5 54 28 58 75c-41 -8 -68 19 -68 59c0 32 22 60 60 60zM516 489c112 0 172 -69 172 -196v-293h-80v283c0 87 -39 132 -112 132c-86 0 -140 -67 -140 -170v-245h-80v475h80l-21 -133h13c27 98 86 147 168 147
z" />
    <glyph glyph-name="uni0146.ss01" horiz-adv-x="565" 
d="M161 0h-80v475h80l-21 -133h13c27 98 86 147 168 147c112 0 172 -69 172 -196v-293h-80v283c0 87 -39 132 -112 132c-86 0 -140 -67 -140 -170v-245zM245 -185v43c28 0 37 8 38 29c-25 1 -43 17 -43 40c0 22 19 41 50 41c30 0 50 -15 50 -60c0 -50 -30 -93 -95 -93z" />
    <glyph glyph-name="odieresis.ss01" horiz-adv-x="572" 
d="M198 565c-32 0 -56 23 -56 55c0 33 24 56 56 56c30 0 54 -23 54 -56c0 -32 -24 -55 -54 -55zM376 565c-31 0 -56 23 -56 55c0 33 25 56 56 56c30 0 54 -23 54 -56c0 -32 -24 -55 -54 -55zM286 -14c-87 0 -157 37 -200 100c-28 40 -44 92 -44 152c0 59 16 111 44 152
c43 62 113 99 200 99c86 0 157 -37 200 -99c28 -41 43 -93 43 -152c0 -60 -16 -112 -43 -152c-43 -63 -114 -100 -200 -100zM286 58c56 0 101 25 129 66c21 30 32 69 32 114s-11 83 -32 113c-28 41 -73 66 -129 66s-101 -25 -130 -66c-20 -30 -31 -68 -31 -113
s11 -84 31 -114c29 -41 74 -66 130 -66z" />
    <glyph glyph-name="uni1ECD.ss01" horiz-adv-x="572" 
d="M286 -14c-87 0 -157 37 -200 100c-28 40 -44 92 -44 152c0 59 16 111 44 152c43 62 113 99 200 99c86 0 157 -37 200 -99c28 -41 43 -93 43 -152c0 -60 -16 -112 -43 -152c-43 -63 -114 -100 -200 -100zM286 58c56 0 101 25 129 66c21 30 32 69 32 114s-11 83 -32 113
c-28 41 -73 66 -129 66s-101 -25 -130 -66c-20 -30 -31 -68 -31 -113s11 -84 31 -114c29 -41 74 -66 130 -66zM286 -183c-33 0 -60 25 -60 60s27 60 60 60s59 -25 59 -60s-26 -60 -59 -60z" />
    <glyph glyph-name="uni0157.ss01" horiz-adv-x="463" 
d="M161 0h-80v475h80l-24 -140h15c17 102 71 154 146 154c89 0 134 -58 134 -153v-96h-83v64c0 75 -26 109 -81 109c-70 0 -107 -59 -107 -168v-245zM76 -185v43c28 0 37 8 38 29c-25 1 -43 17 -43 40c0 22 19 41 50 41c30 0 50 -15 50 -60c0 -50 -30 -93 -95 -93z" />
    <glyph glyph-name="uni0219.ss01" horiz-adv-x="483" 
d="M238 -14c-116 0 -186 62 -186 163v6h80v-6c0 -62 39 -94 109 -94c36 0 63 8 79 24c12 12 19 28 19 46c0 39 -24 60 -79 71l-64 13c-89 18 -136 60 -136 137c0 39 13 70 37 95c31 31 81 48 145 48c116 0 185 -62 185 -164v-5h-80v5c0 62 -37 96 -109 96
c-36 0 -63 -8 -80 -25c-11 -12 -18 -28 -18 -46c0 -38 26 -59 76 -69l66 -14c93 -19 137 -60 137 -137c0 -40 -13 -71 -37 -95c-31 -32 -81 -49 -144 -49zM191 -185v43c28 0 37 8 38 29c-25 1 -43 17 -43 40c0 22 19 41 50 41c30 0 50 -15 50 -60c0 -50 -30 -93 -95 -93z
" />
    <glyph glyph-name="uni021B.ss01" horiz-adv-x="462" 
d="M417 475v-72h-219v-254c0 -59 26 -91 69 -91c50 0 70 32 70 104v73h80v-74c0 -110 -53 -175 -149 -175c-101 0 -150 56 -150 163v254h-102v72h102v99l80 39v-138h219zM263 -32c30 0 50 -15 50 -60c0 -50 -30 -93 -95 -93v43c28 0 37 8 38 29c-25 1 -43 17 -43 40
c0 22 19 41 50 41z" />
    <glyph glyph-name="udieresis.ss01" horiz-adv-x="555" 
d="M185 565c-32 0 -56 23 -56 55c0 33 24 56 56 56c30 0 54 -23 54 -56c0 -32 -24 -55 -54 -55zM363 565c-31 0 -56 23 -56 55c0 33 25 56 56 56c30 0 54 -23 54 -56c0 -32 -24 -55 -54 -55zM238 -14c-110 0 -166 69 -166 196v293h80v-282c0 -88 37 -132 107 -132
c83 0 135 67 135 169v245h80v-475h-80l22 133h-14c-27 -97 -84 -147 -164 -147z" />
    <glyph glyph-name="uni1EE5.ss01" horiz-adv-x="555" 
d="M238 -14c-110 0 -166 69 -166 196v293h80v-282c0 -88 37 -132 107 -132c83 0 135 67 135 169v245h80v-475h-80l22 133h-14c-27 -97 -84 -147 -164 -147zM304 -183c-33 0 -60 25 -60 60s27 60 60 60s59 -25 59 -60s-26 -60 -59 -60z" />
    <glyph glyph-name="wdieresis.ss01" horiz-adv-x="775" 
d="M300 565c-32 0 -56 23 -56 55c0 33 24 56 56 56c30 0 54 -23 54 -56c0 -32 -24 -55 -54 -55zM478 565c-31 0 -56 23 -56 55c0 33 25 56 56 56c30 0 54 -23 54 -56c0 -32 -24 -55 -54 -55zM283 0h-123l-134 475h85l102 -387l3 -36h14l2 36l91 387h129l91 -387l2 -36h14
l3 36l102 387h85l-134 -475h-124l-94 390l-3 33h-13l-3 -33z" />
    <glyph glyph-name="ydieresis.ss01" horiz-adv-x="511" 
d="M170 565c-32 0 -56 23 -56 55c0 33 24 56 56 56c30 0 54 -23 54 -56c0 -32 -24 -55 -54 -55zM348 565c-31 0 -56 23 -56 55c0 33 25 56 56 56c30 0 54 -23 54 -56c0 -32 -24 -55 -54 -55zM274 105l131 370h92l-197 -521c-40 -109 -83 -146 -156 -146
c-83 0 -135 45 -135 128v12h80v-12c0 -37 21 -57 55 -57c33 0 56 19 74 69l34 97h-54l-181 430h92l150 -370h15z" />
    <glyph glyph-name="zdotaccent.ss01" horiz-adv-x="488" 
d="M244 561c-33 0 -60 25 -60 61c0 35 27 60 60 60s59 -25 59 -60s-26 -61 -59 -61zM438 0h-388v126l317 264v13h-317v72h388v-125l-318 -264v-14h318v-72z" />
    <glyph glyph-name="a.ss02" horiz-adv-x="600" 
d="M264 -14c-74 0 -135 32 -174 89c-29 42 -44 97 -44 163s15 121 44 162c39 57 100 89 174 89c91 0 156 -49 182 -147h14l-21 133h79v-475h-79l21 133h-14c-26 -97 -91 -147 -182 -147zM284 58c54 0 96 21 123 60c21 30 33 71 33 120s-12 89 -33 119c-27 39 -69 60 -123 60
c-53 0 -95 -21 -122 -60c-21 -30 -33 -70 -33 -119s12 -90 33 -120c27 -39 69 -60 122 -60z" />
    <glyph glyph-name="aacute.ss02" horiz-adv-x="600" 
d="M339 539h-71l75 150h97zM264 -14c-74 0 -135 32 -174 89c-29 42 -44 97 -44 163s15 121 44 162c39 57 100 89 174 89c91 0 156 -49 182 -147h14l-21 133h79v-475h-79l21 133h-14c-26 -97 -91 -147 -182 -147zM284 58c54 0 96 21 123 60c21 30 33 71 33 120
s-12 89 -33 119c-27 39 -69 60 -123 60c-53 0 -95 -21 -122 -60c-21 -30 -33 -70 -33 -119s12 -90 33 -120c27 -39 69 -60 122 -60z" />
    <glyph glyph-name="abreve.ss02" horiz-adv-x="600" 
d="M300 541c-84 0 -150 47 -150 148h67c0 -63 38 -93 83 -93c46 0 83 30 83 93h67c0 -102 -66 -148 -150 -148zM264 -14c-74 0 -135 32 -174 89c-29 42 -44 97 -44 163s15 121 44 162c39 57 100 89 174 89c91 0 156 -49 182 -147h14l-21 133h79v-475h-79l21 133h-14
c-26 -97 -91 -147 -182 -147zM284 58c54 0 96 21 123 60c21 30 33 71 33 120s-12 89 -33 119c-27 39 -69 60 -123 60c-53 0 -95 -21 -122 -60c-21 -30 -33 -70 -33 -119s12 -90 33 -120c27 -39 69 -60 122 -60z" />
    <glyph glyph-name="acircumflex.ss02" horiz-adv-x="600" 
d="M220 539h-88l126 148h82l125 -148h-87l-79 104zM264 -14c-74 0 -135 32 -174 89c-29 42 -44 97 -44 163s15 121 44 162c39 57 100 89 174 89c91 0 156 -49 182 -147h14l-21 133h79v-475h-79l21 133h-14c-26 -97 -91 -147 -182 -147zM284 58c54 0 96 21 123 60
c21 30 33 71 33 120s-12 89 -33 119c-27 39 -69 60 -123 60c-53 0 -95 -21 -122 -60c-21 -30 -33 -70 -33 -119s12 -90 33 -120c27 -39 69 -60 122 -60z" />
    <glyph glyph-name="adieresis.ss02" horiz-adv-x="600" 
d="M253 562h-91v102h91v-102zM436 562h-91v102h91v-102zM264 -14c-74 0 -135 32 -174 89c-29 42 -44 97 -44 163s15 121 44 162c39 57 100 89 174 89c91 0 156 -49 182 -147h14l-21 133h79v-475h-79l21 133h-14c-26 -97 -91 -147 -182 -147zM284 58c54 0 96 21 123 60
c21 30 33 71 33 120s-12 89 -33 119c-27 39 -69 60 -123 60c-53 0 -95 -21 -122 -60c-21 -30 -33 -70 -33 -119s12 -90 33 -120c27 -39 69 -60 122 -60z" />
    <glyph glyph-name="agrave.ss02" horiz-adv-x="600" 
d="M335 539h-70l-102 150h98zM264 -14c-74 0 -135 32 -174 89c-29 42 -44 97 -44 163s15 121 44 162c39 57 100 89 174 89c91 0 156 -49 182 -147h14l-21 133h79v-475h-79l21 133h-14c-26 -97 -91 -147 -182 -147zM284 58c54 0 96 21 123 60c21 30 33 71 33 120
s-12 89 -33 119c-27 39 -69 60 -123 60c-53 0 -95 -21 -122 -60c-21 -30 -33 -70 -33 -119s12 -90 33 -120c27 -39 69 -60 122 -60z" />
    <glyph glyph-name="amacron.ss02" horiz-adv-x="600" 
d="M453 587h-307v57h307v-57zM264 -14c-74 0 -135 32 -174 89c-29 42 -44 97 -44 163s15 121 44 162c39 57 100 89 174 89c91 0 156 -49 182 -147h14l-21 133h79v-475h-79l21 133h-14c-26 -97 -91 -147 -182 -147zM284 58c54 0 96 21 123 60c21 30 33 71 33 120
s-12 89 -33 119c-27 39 -69 60 -123 60c-53 0 -95 -21 -122 -60c-21 -30 -33 -70 -33 -119s12 -90 33 -120c27 -39 69 -60 122 -60z" />
    <glyph glyph-name="aogonek.ss02" horiz-adv-x="600" 
d="M518 0h-28c-43 -18 -66 -38 -66 -69c0 -32 30 -54 86 -54v-69c-106 0 -158 48 -158 106c0 48 33 84 90 106l18 113h-14c-26 -97 -91 -147 -182 -147c-74 0 -135 32 -174 89c-29 42 -44 97 -44 163s15 121 44 162c39 57 100 89 174 89c91 0 156 -49 182 -147h14l-21 133
h79v-475zM407 118c21 30 33 71 33 120s-12 89 -33 119c-27 39 -69 60 -123 60c-53 0 -95 -21 -122 -60c-21 -30 -33 -70 -33 -119s12 -90 33 -120c27 -39 69 -60 122 -60c54 0 96 21 123 60z" />
    <glyph glyph-name="aring.ss02" horiz-adv-x="600" 
d="M300 541c-62 0 -112 44 -112 110s50 110 112 110c61 0 111 -44 111 -110s-50 -110 -111 -110zM300 593c33 0 56 24 56 58c0 33 -23 58 -56 58c-34 0 -57 -25 -57 -58c0 -34 23 -58 57 -58zM264 -14c-74 0 -135 32 -174 89c-29 42 -44 97 -44 163s15 121 44 162
c39 57 100 89 174 89c91 0 156 -49 182 -147h14l-21 133h79v-475h-79l21 133h-14c-26 -97 -91 -147 -182 -147zM284 58c54 0 96 21 123 60c21 30 33 71 33 120s-12 89 -33 119c-27 39 -69 60 -123 60c-53 0 -95 -21 -122 -60c-21 -30 -33 -70 -33 -119s12 -90 33 -120
c27 -39 69 -60 122 -60z" />
    <glyph glyph-name="atilde.ss02" horiz-adv-x="600" 
d="M368 571c-57 0 -83 41 -137 41c-24 0 -48 -15 -48 -39h-58c0 77 58 101 106 101c57 0 82 -41 137 -41c25 0 47 13 48 39h58c0 -77 -59 -101 -106 -101zM264 -14c-74 0 -135 32 -174 89c-29 42 -44 97 -44 163s15 121 44 162c39 57 100 89 174 89c91 0 156 -49 182 -147
h14l-21 133h79v-475h-79l21 133h-14c-26 -97 -91 -147 -182 -147zM284 58c54 0 96 21 123 60c21 30 33 71 33 120s-12 89 -33 119c-27 39 -69 60 -123 60c-53 0 -95 -21 -122 -60c-21 -30 -33 -70 -33 -119s12 -90 33 -120c27 -39 69 -60 122 -60z" />
    <glyph glyph-name="adieresis.ss01.ss02" horiz-adv-x="600" 
d="M212 565c-32 0 -56 23 -56 55c0 33 24 56 56 56c30 0 54 -23 54 -56c0 -32 -24 -55 -54 -55zM390 565c-31 0 -56 23 -56 55c0 33 25 56 56 56c30 0 54 -23 54 -56c0 -32 -24 -55 -54 -55zM264 -14c-74 0 -135 32 -174 89c-29 42 -44 97 -44 163s15 121 44 162
c39 57 100 89 174 89c91 0 156 -49 182 -147h14l-21 133h79v-475h-79l21 133h-14c-26 -97 -91 -147 -182 -147zM284 58c54 0 96 21 123 60c21 30 33 71 33 120s-12 89 -33 119c-27 39 -69 60 -123 60c-53 0 -95 -21 -122 -60c-21 -30 -33 -70 -33 -119s12 -90 33 -120
c27 -39 69 -60 122 -60z" />
    <glyph glyph-name="uni1EA1.ss01.ss02" horiz-adv-x="600" 
d="M264 -14c-74 0 -135 32 -174 89c-29 42 -44 97 -44 163s15 121 44 162c39 57 100 89 174 89c91 0 156 -49 182 -147h14l-21 133h79v-475h-79l21 133h-14c-26 -97 -91 -147 -182 -147zM284 58c54 0 96 21 123 60c21 30 33 71 33 120s-12 89 -33 119c-27 39 -69 60 -123 60
c-53 0 -95 -21 -122 -60c-21 -30 -33 -70 -33 -119s12 -90 33 -120c27 -39 69 -60 122 -60zM300 -183c-33 0 -60 25 -60 60s27 60 60 60s59 -25 59 -60s-26 -60 -59 -60z" />
    <glyph glyph-name="f.ss03" horiz-adv-x="365" 
d="M396 547h-79v8c0 58 -27 89 -76 89c-51 0 -80 -34 -80 -93v-76h184v-72h-184v-403h-80v551c0 99 63 163 160 163c101 0 155 -55 155 -157v-10z" />
    <glyph glyph-name="uni021B.ss01.ss03" horiz-adv-x="416" 
d="M371 475v-72h-219v-254c0 -59 26 -91 69 -91c50 0 70 32 70 104v73h80v-74c0 -110 -54 -175 -149 -175c-101 0 -150 56 -150 163v425l80 39v-138h219zM212 -32c30 0 50 -15 50 -60c0 -50 -30 -93 -95 -93v43c28 0 37 8 38 29c-25 1 -43 17 -43 40c0 22 19 41 50 41z" />
    <glyph glyph-name="t.ss03" horiz-adv-x="416" 
d="M371 475v-72h-219v-254c0 -59 26 -91 69 -91c50 0 70 32 70 104v73h80v-74c0 -110 -54 -175 -149 -175c-101 0 -150 56 -150 163v425l80 39v-138h219z" />
    <glyph glyph-name="tbar.ss03" horiz-adv-x="416" 
d="M371 475v-72h-219v-80h216v-57h-216v-117c0 -59 26 -91 69 -91c50 0 70 32 70 104v59h80v-60c0 -110 -54 -175 -149 -175c-101 0 -150 56 -150 163v425l80 39v-138h219z" />
    <glyph glyph-name="tcaron.ss03" horiz-adv-x="416" 
d="M250 700h88l-76 -163h-49zM371 475v-72h-219v-254c0 -59 26 -91 69 -91c50 0 70 32 70 104v73h80v-74c0 -110 -54 -175 -149 -175c-101 0 -150 56 -150 163v425l80 39v-138h219z" />
    <glyph glyph-name="uni0163.ss03" horiz-adv-x="416" 
d="M371 475v-72h-219v-254c0 -59 26 -91 69 -91c50 0 70 32 70 104v73h80v-74c0 -105 -49 -169 -136 -175l-5 -16c36 -13 54 -39 54 -71c0 -51 -42 -91 -104 -91c-54 0 -111 27 -117 103h61c6 -38 28 -51 54 -51c27 0 46 16 46 39c0 19 -16 34 -38 34l-19 25l11 32
c-71 15 -106 69 -106 159v425l80 39v-138h219z" />
    <glyph glyph-name="uni021B.ss03" horiz-adv-x="416" 
d="M371 475v-72h-219v-254c0 -59 26 -91 69 -91c50 0 70 32 70 104v73h80v-74c0 -110 -54 -175 -149 -175c-101 0 -150 56 -150 163v425l80 39v-138h219zM211 -107h-42v73h89v-57c0 -59 -33 -94 -91 -94v47c28 0 44 11 44 31z" />
    <glyph glyph-name="j.ss04" horiz-adv-x="253" 
d="M178 556h-92v117h92v-117zM26 -192h-20v71h20c49 0 66 26 66 79v517h80v-516c0 -101 -43 -151 -146 -151z" />
    <glyph glyph-name="uni0237.ss04" horiz-adv-x="253" 
d="M26 -192h-20v71h20c49 0 66 26 66 79v517h80v-516c0 -101 -43 -151 -146 -151z" />
    <glyph glyph-name="uni006A0301.ss04" horiz-adv-x="253" 
d="M171 539h-71l75 150h97zM26 -192h-20v71h20c49 0 66 26 66 79v517h80v-516c0 -101 -43 -151 -146 -151z" />
    <glyph glyph-name="jcircumflex.ss04" horiz-adv-x="253" 
d="M53 539h-88l126 148h82l125 -148h-87l-79 104zM26 -192h-20v71h20c49 0 66 26 66 79v517h80v-516c0 -101 -43 -151 -146 -151z" />
    <glyph glyph-name="j.ss01.ss04" horiz-adv-x="253" 
d="M133 561c-33 0 -60 25 -60 61c0 35 27 60 60 60s59 -25 59 -60s-26 -61 -59 -61zM26 -192h-20v71h20c49 0 66 26 66 79v517h80v-516c0 -101 -43 -151 -146 -151z" />
    <glyph glyph-name="g_j.liga.ss01" horiz-adv-x="823" 
d="M702 555c-33 0 -60 25 -60 60c0 36 27 61 60 61c34 0 59 -25 59 -61c0 -35 -25 -60 -59 -60zM267 -192c-139 0 -214 69 -220 192h80c5 -76 53 -120 140 -120c93 0 146 54 146 150v13l28 133h-13c-28 -104 -93 -146 -171 -146c-72 0 -132 29 -169 83
c-27 38 -41 88 -41 146c0 59 14 108 41 147c37 53 97 83 169 83c78 0 143 -43 171 -147h13l-28 133h80v-417c0 -166 -76 -250 -226 -250zM596 -192h-21v71h21c49 0 65 26 65 79v517h80v-516c0 -101 -43 -151 -145 -151zM272 100c48 0 88 19 113 55c20 29 29 63 29 104
c0 42 -9 75 -29 105c-25 35 -65 55 -113 55c-49 0 -88 -20 -113 -55c-21 -30 -30 -63 -30 -105c0 -41 9 -75 30 -104c25 -36 64 -55 113 -55z" />
    <glyph glyph-name="j_j.liga.ss01" horiz-adv-x="520" 
d="M133 555c-34 0 -60 25 -60 60c0 36 26 61 60 61c33 0 59 -25 59 -61c0 -35 -26 -60 -59 -60zM386 555c-34 0 -60 25 -60 60c0 36 26 61 60 61c33 0 59 -25 59 -61c0 -35 -26 -60 -59 -60zM26 -192h-20v71h20c49 0 66 26 66 79v517h80v-516c0 -101 -43 -151 -146 -151z
M280 -192h-21v71h21c48 0 65 26 65 79v517h80v-516c0 -101 -43 -151 -145 -151z" />
    <glyph glyph-name="q_j.liga.ss01" horiz-adv-x="867" 
d="M733 555c-34 0 -60 25 -60 60c0 36 26 61 60 61c33 0 59 -25 59 -61c0 -35 -26 -60 -59 -60zM518 -180h-79v180l21 133h-14c-26 -97 -91 -147 -182 -147c-74 0 -135 32 -174 89c-29 42 -44 97 -44 163s15 121 44 162c39 57 100 89 174 89c91 0 156 -49 182 -147h14
l-21 133h79v-655zM626 -192h-20v71h20c49 0 66 26 66 79v517h80v-516c0 -101 -43 -151 -146 -151zM284 58c54 0 96 21 123 60c21 30 33 71 33 120s-12 89 -33 119c-27 39 -69 60 -123 60c-53 0 -95 -21 -122 -60c-21 -30 -33 -70 -33 -119s12 -90 33 -120
c27 -39 69 -60 122 -60z" />
    <glyph glyph-name="f_f.ss03" horiz-adv-x="680" 
d="M712 547h-80v8c0 58 -27 89 -75 89c-52 0 -80 -34 -80 -93v-76h183v-72h-183v-403h-80v403h-236v-403h-80v526c0 120 81 188 195 188c69 0 119 -26 147 -66c27 42 74 66 134 66c101 0 155 -55 155 -157v-10zM161 526v-51h236v56c0 72 -41 112 -114 112
c-75 0 -122 -40 -122 -117z" />
    <glyph glyph-name="f_f_i.ss03" horiz-adv-x="872" 
d="M474 522v-47h313v-475h-79v406h-234v-406h-80v406h-233v-406h-80v526c0 120 79 188 193 188c76 0 128 -30 154 -77c34 48 94 77 174 77c120 0 195 -59 195 -162h-88c0 63 -44 91 -114 91c-74 0 -121 -45 -121 -121zM161 526v-51h233v56c0 72 -41 112 -114 112
c-74 0 -119 -40 -119 -117z" />
    <glyph glyph-name="f_f_l.ss03" horiz-adv-x="923" 
d="M557 714c101 0 155 -55 155 -157v-10h-80v8c0 58 -27 89 -75 89c-52 0 -80 -34 -80 -93v-76h183v-72h-183v-403h-80v403h-236v-403h-80v526c0 120 81 188 195 188c69 0 119 -26 147 -66c27 42 74 66 134 66zM761 0v700h80v-700h-80zM161 526v-51h236v56
c0 72 -41 112 -114 112c-75 0 -122 -40 -122 -117z" />
    <glyph glyph-name="f_i.ss03" horiz-adv-x="534" 
d="M452 559v-7h-83v5c0 58 -38 86 -98 86c-67 0 -110 -45 -110 -121v-47h291v-475h-80v406h-211v-406h-80v522c0 113 70 192 190 192c111 0 181 -59 181 -155z" />
    <glyph glyph-name="f_l.ss03" horiz-adv-x="608" 
d="M241 714c101 0 155 -55 155 -157v-10h-79v8c0 58 -27 89 -76 89c-51 0 -80 -34 -80 -93v-76h184v-72h-184v-403h-80v551c0 99 63 163 160 163zM446 0v700h80v-700h-80z" />
    <glyph glyph-name="f_f_l.ss05" horiz-adv-x="906" 
d="M629 714c125 0 196 -52 196 -174v-540h-80v540c0 72 -38 105 -117 105c-74 0 -117 -39 -117 -110v-60h163v-72h-163v-403h-80v406h-234v-406h-79v403h-102v72h102v51c0 120 79 188 192 188c74 0 125 -28 152 -74c34 47 92 74 167 74zM197 526v-51h234v56
c0 73 -41 114 -114 114c-74 0 -120 -42 -120 -119z" />
    <glyph glyph-name="f_l.ss05" horiz-adv-x="594" 
d="M316 714c126 0 196 -52 196 -174v-540h-80v540c0 72 -37 105 -116 105c-74 0 -118 -39 -118 -110v-60h164v-72h-164v-403h-80v403h-102v72h102v59c0 110 79 180 198 180z" />
    <glyph glyph-name="f_f_l.ss03.ss05" horiz-adv-x="869" 
d="M591 714c126 0 196 -52 196 -174v-540h-79v540c0 70 -38 103 -117 103c-74 0 -117 -38 -117 -108v-60h163v-72h-163v-403h-80v406h-234v-406h-79v526c0 120 79 188 192 188c74 0 125 -28 152 -74c33 47 92 74 166 74zM394 475v56c0 71 -41 112 -114 112
c-74 0 -120 -42 -120 -117v-51h234z" />
    <glyph glyph-name="f_l.ss03.ss05" horiz-adv-x="557" 
d="M279 714c126 0 196 -52 196 -174v-540h-80v540c0 70 -37 103 -117 103c-73 0 -117 -38 -117 -108v-60h163v-72h-163v-403h-80v534c0 110 78 180 198 180z" />
    <glyph glyph-name="i.sups.ss01" horiz-adv-x="196" 
d="M98 708c-25 0 -45 19 -45 45c0 27 20 45 45 45s45 -18 45 -45c0 -26 -20 -45 -45 -45zM134 300h-72v336h72v-336z" />
    <glyph glyph-name="j.sups.ss01" horiz-adv-x="209" 
d="M106 708c-26 0 -46 19 -46 45s20 45 46 45c24 0 44 -18 44 -45c0 -26 -19 -45 -44 -45zM19 165c-76 0 -116 41 -116 100v4h66v-4c0 -30 19 -48 49 -48c35 0 52 27 52 64v355h71v-353c0 -72 -44 -118 -122 -118z" />
    <glyph glyph-name="a.sups.ss02" horiz-adv-x="435" 
d="M186 290c-48 0 -90 21 -116 60c-21 28 -33 69 -33 117c0 46 11 88 32 117c26 38 66 60 117 60c65 0 114 -36 133 -107h11l-17 98h65v-335h-65l17 98h-11c-18 -70 -67 -108 -133 -108zM208 348c36 0 65 15 83 41c14 20 22 47 22 78c0 32 -7 58 -22 79
c-19 26 -47 40 -83 40s-65 -14 -83 -42c-15 -20 -22 -48 -22 -77s7 -56 23 -78c17 -26 46 -41 82 -41z" />
    <glyph glyph-name="f.sups.ss03" horiz-adv-x="299" 
d="M308 681h-68v4c0 40 -19 61 -52 61c-35 0 -55 -22 -55 -62v-48h129v-58h-129v-278h-71v379c0 76 46 121 125 121c77 0 121 -39 121 -115v-4z" />
    <glyph glyph-name="t.sups.ss03" horiz-adv-x="341" 
d="M301 636v-58h-168v-168c0 -36 16 -58 48 -58c31 0 48 22 48 63v57h72v-59c0 -77 -48 -123 -122 -123c-76 0 -117 44 -117 119v294l71 32v-99h168z" />
    <glyph glyph-name="j.sups.ss01.ss04" horiz-adv-x="208" 
d="M104 708c-25 0 -45 19 -45 45s20 45 45 45c26 0 45 -19 45 -45s-20 -45 -45 -45zM27 165h-25v53h13c34 0 55 18 55 64v354h70v-353c0 -74 -36 -118 -113 -118z" />
    <glyph glyph-name="j.sups.ss04" horiz-adv-x="202" 
d="M143 712h-78v78h78v-78zM27 165h-25v53h13c34 0 55 18 55 64v354h70v-353c0 -74 -36 -118 -113 -118z" />
    <glyph glyph-name="a.sups" horiz-adv-x="396" 
d="M195 646c93 0 144 -45 144 -130v-11v-205h-70l18 96h-11c-18 -70 -60 -106 -124 -106c-33 0 -60 11 -78 29c-16 15 -26 37 -26 66s9 50 25 67c19 19 51 32 91 35l104 8v10v11c0 48 -26 73 -76 73s-79 -29 -79 -70h-72c0 77 59 127 154 127zM176 341c52 0 92 44 92 102v10
l-81 -8c-25 -3 -44 -10 -53 -20c-7 -7 -12 -20 -12 -35c0 -13 4 -25 12 -34c9 -9 24 -15 42 -15z" />
    <glyph glyph-name="b.sups" horiz-adv-x="445" 
d="M256 290c-64 0 -111 37 -130 106h-11l19 -96h-72v490h72v-154l-19 -96h11c19 69 66 106 130 106c52 0 92 -23 117 -60c21 -30 32 -69 32 -118s-11 -88 -32 -118c-25 -36 -64 -60 -117 -60zM233 353c33 0 62 13 79 38c13 20 21 45 21 77c0 33 -8 57 -22 78
c-17 24 -45 37 -78 37c-35 0 -62 -13 -79 -39c-14 -19 -21 -45 -21 -76c0 -30 7 -57 20 -76c18 -25 44 -39 80 -39z" />
    <glyph glyph-name="c.sups" horiz-adv-x="407" 
d="M205 290c-60 0 -107 23 -136 64c-21 30 -32 68 -32 113c0 46 12 84 32 113c29 42 78 66 139 66c90 0 156 -51 160 -136h-70c-6 46 -40 73 -90 73c-33 0 -60 -13 -77 -38c-15 -21 -22 -45 -22 -78c0 -30 7 -57 20 -75c18 -26 44 -39 77 -39c47 0 80 27 86 73h70
c-6 -86 -68 -136 -157 -136z" />
    <glyph glyph-name="d.sups" horiz-adv-x="445" 
d="M189 290c-48 0 -90 20 -117 60c-21 30 -32 70 -32 118c0 49 11 88 32 118c27 39 68 60 117 60c65 0 111 -37 130 -106h11l-19 96v154h72v-490h-72l19 96h-11c-19 -69 -66 -106 -130 -106zM212 353c33 0 62 13 79 38c14 20 21 46 21 77s-7 57 -21 77c-18 26 -47 38 -79 38
s-62 -13 -78 -38c-14 -20 -22 -46 -22 -77s8 -57 21 -77c17 -25 47 -38 79 -38z" />
    <glyph glyph-name="e.sups" horiz-adv-x="398" 
d="M361 472v-20h-256c2 -29 9 -51 22 -70c17 -23 44 -37 79 -37c39 0 74 22 85 61h70c-12 -69 -74 -116 -155 -116c-60 0 -108 23 -137 64c-21 30 -32 68 -32 113s12 84 32 112c28 42 75 67 136 67c97 0 156 -66 156 -174zM106 496h188c-3 63 -37 96 -89 96
c-34 0 -61 -14 -79 -39c-11 -15 -17 -34 -20 -57z" />
    <glyph glyph-name="f.sups" horiz-adv-x="326" 
d="M336 681h-68v4c0 40 -19 61 -52 61c-36 0 -55 -22 -55 -62v-48h128v-58h-128v-278h-71v278h-69v58h69v43c0 76 46 121 125 121c77 0 121 -39 121 -115v-4z" />
    <glyph glyph-name="g.sups" horiz-adv-x="425" 
d="M199 165c-101 0 -155 51 -158 135h69c3 -51 36 -79 89 -79c59 0 94 32 94 95v14l22 96h-11c-16 -70 -64 -104 -120 -104c-50 0 -89 19 -114 55c-19 27 -29 63 -29 107s11 79 29 105c25 37 65 57 114 57c56 0 104 -35 120 -105h11l-20 95h70v-296
c0 -115 -56 -175 -166 -175zM204 380c32 0 58 13 74 37c12 17 18 42 18 67c0 26 -6 49 -19 67c-15 22 -41 35 -73 35c-31 0 -58 -12 -73 -34c-13 -19 -20 -40 -20 -68c0 -27 7 -50 19 -67c16 -24 41 -37 74 -37z" />
    <glyph glyph-name="h.sups" horiz-adv-x="423" 
d="M134 300h-72v490h72v-154l-19 -96h11c19 70 62 106 124 106c75 0 116 -46 116 -129v-26v-191h-71v182v17c0 54 -25 81 -70 81c-57 0 -91 -44 -91 -108v-172z" />
    <glyph glyph-name="i.sups" horiz-adv-x="196" 
d="M137 712h-78v78h78v-78zM134 300h-72v336h72v-336z" />
    <glyph glyph-name="j.sups" horiz-adv-x="203" 
d="M144 712h-78v78h78v-78zM19 165c-76 0 -116 41 -116 100v4h66v-4c0 -30 19 -48 49 -48c35 0 52 27 52 64v355h71v-353c0 -72 -44 -118 -122 -118z" />
    <glyph glyph-name="k.sups" horiz-adv-x="396" 
d="M299 636h80l-147 -155l143 -181h-81l-109 139l-51 -53v-86h-72v490h72v-289l-18 -42h11z" />
    <glyph glyph-name="l.sups" horiz-adv-x="196" 
d="M134 300h-72v490h72v-490z" />
    <glyph glyph-name="m.sups" horiz-adv-x="613" 
d="M134 300h-72v336h72l-19 -96h11c14 71 55 106 109 106c53 0 90 -37 90 -106h11c13 73 60 106 115 106c67 0 105 -45 105 -124v-47v-175h-71v171v34c0 50 -23 75 -61 75c-50 0 -79 -40 -79 -100v-180h-71v173v32c0 50 -23 75 -61 75c-51 0 -79 -40 -79 -100v-180z" />
    <glyph glyph-name="n.sups" horiz-adv-x="423" 
d="M134 300h-72v336h72l-19 -96h11c19 70 62 106 124 106c75 0 116 -46 116 -129v-217h-71v199c0 54 -25 81 -70 81c-57 0 -91 -44 -91 -108v-172z" />
    <glyph glyph-name="o.sups" horiz-adv-x="425" 
d="M212 290c-64 0 -115 29 -143 70c-20 29 -32 66 -32 108s11 79 32 108c29 43 79 70 143 70s114 -27 144 -71c20 -28 32 -64 32 -107c0 -40 -12 -78 -31 -107c-30 -44 -82 -71 -145 -71zM212 353c36 0 65 15 83 42c14 19 21 45 21 73c0 29 -7 54 -21 73
c-18 27 -47 42 -83 42c-35 0 -65 -16 -82 -41c-14 -20 -21 -44 -21 -74c0 -29 7 -54 21 -73c18 -27 47 -42 82 -42z" />
    <glyph glyph-name="p.sups" horiz-adv-x="445" 
d="M134 174h-72v462h72l-19 -96h11c19 69 66 106 130 106c52 0 92 -23 117 -60c21 -30 32 -69 32 -118s-11 -88 -32 -118c-25 -36 -64 -60 -117 -60c-64 0 -111 37 -130 106h-11l19 -96v-126zM233 353c33 0 62 13 79 38c13 20 21 45 21 77c0 33 -8 57 -22 78
c-17 24 -45 37 -78 37c-35 0 -62 -13 -79 -39c-14 -19 -21 -45 -21 -76c0 -30 7 -57 20 -76c18 -25 44 -39 80 -39z" />
    <glyph glyph-name="q.sups" horiz-adv-x="445" 
d="M383 174h-72v126l19 96h-11c-19 -69 -66 -106 -130 -106c-48 0 -90 20 -117 60c-21 30 -32 70 -32 118c0 49 11 88 32 118c27 39 68 60 117 60c65 0 111 -37 130 -106h11l-19 96h72v-462zM212 353c33 0 62 13 79 38c14 20 21 46 21 77s-7 57 -21 77c-18 26 -47 38 -79 38
s-62 -13 -78 -38c-14 -20 -22 -46 -22 -77s8 -57 21 -77c17 -25 47 -38 79 -38z" />
    <glyph glyph-name="r.sups" horiz-adv-x="359" 
d="M134 300h-72v336h70l-21 -102h12c18 78 56 112 114 112s92 -41 92 -108v-31v-42h-72v27v16c0 50 -17 71 -52 71c-46 0 -71 -38 -71 -109v-170z" />
    <glyph glyph-name="s.sups" horiz-adv-x="361" 
d="M179 290c-86 0 -137 43 -137 116h66c0 -41 28 -62 72 -62c22 0 42 4 53 16c8 7 12 19 12 32c0 28 -20 39 -52 45l-54 12c-59 12 -92 41 -92 95c0 28 10 49 26 65c23 23 60 37 110 37c85 0 136 -42 136 -116h-67c0 41 -26 63 -73 63c-24 0 -41 -5 -53 -16
c-8 -8 -12 -19 -12 -32c0 -26 18 -36 54 -44l49 -11c58 -14 97 -36 97 -96c0 -28 -9 -50 -27 -67c-23 -23 -60 -37 -108 -37z" />
    <glyph glyph-name="t.sups" horiz-adv-x="369" 
d="M328 636v-58h-167v-168c0 -36 16 -58 47 -58c32 0 49 22 49 63v57h71v-59c0 -77 -47 -123 -121 -123c-76 0 -117 44 -117 119v169h-69v58h69v67l71 32v-99h167z" />
    <glyph glyph-name="u.sups" horiz-adv-x="416" 
d="M170 290c-74 0 -113 46 -113 129v22v195h71v-179v-20c0 -53 23 -81 66 -81c55 0 88 44 88 108v172h71v-336h-71l19 96h-12c-18 -72 -61 -106 -119 -106z" />
    <glyph glyph-name="v.sups" horiz-adv-x="386" 
d="M250 300h-114l-117 336h75l91 -266l2 -29h11l3 29l92 266h74z" />
    <glyph glyph-name="w.sups" horiz-adv-x="581" 
d="M225 300h-107l-88 336h70l66 -260l3 -35h11l4 35l58 260h98l58 -260l2 -35h11l4 35l65 260h71l-88 -336h-108l-56 256l-3 35h-11l-3 -35z" />
    <glyph glyph-name="x.sups" horiz-adv-x="385" 
d="M108 300h-82l117 168l-117 168h82l75 -112l4 -18h11l5 18l75 112h82l-117 -168l117 -168h-83l-74 109l-5 18h-11l-4 -18z" />
    <glyph glyph-name="y.sups" horiz-adv-x="390" 
d="M204 368l92 268h76l-137 -374c-25 -67 -59 -97 -115 -97c-63 0 -102 35 -105 103v3h69v-3c1 -32 14 -47 37 -47s38 12 50 49l21 62h-61l-111 304h76l95 -268h13z" />
    <glyph glyph-name="z.sups" horiz-adv-x="374" 
d="M329 300h-285v88l206 179v11h-206v58h285v-87l-206 -180v-11h206v-58z" />
    <glyph glyph-name="uni24FF" unicode="&#x24ff;" horiz-adv-x="909" 
d="M455 -74c235 0 408 173 408 423v1c0 251 -173 424 -408 424c-236 0 -409 -173 -409 -424v-1c0 -250 173 -423 409 -423zM454 138c-104 0 -164 78 -164 211v1c0 133 61 212 164 212c104 0 165 -79 165 -212v-1c0 -133 -60 -211 -165 -211zM454 199c63 0 100 55 100 150v1
c0 96 -37 151 -100 151c-62 0 -98 -55 -98 -151v-1c0 -95 36 -150 98 -150z" />
    <glyph glyph-name="uni2776" unicode="&#x2776;" horiz-adv-x="909" 
d="M455 -74c235 0 408 173 408 423v1c0 251 -173 424 -408 424c-236 0 -409 -173 -409 -424v-1c0 -250 173 -423 409 -423zM508 150h-63v314h-13c-13 -66 -47 -94 -108 -94h-25v67h25c69 0 100 34 100 113h84v-400z" />
    <glyph glyph-name="uni2777" unicode="&#x2777;" horiz-adv-x="909" 
d="M455 -74c235 0 408 173 408 423v1c0 251 -173 424 -408 424c-236 0 -409 -173 -409 -424v-1c0 -250 173 -423 409 -423zM597 150h-277v92l143 96c51 34 70 63 70 98v1c0 42 -29 69 -75 69c-50 0 -85 -35 -85 -85h-63c0 82 57 141 147 141c86 0 140 -51 140 -125v-1
c0 -56 -26 -96 -100 -144l-108 -71v-15h208v-56z" />
    <glyph glyph-name="uni2778" unicode="&#x2778;" horiz-adv-x="909" 
d="M455 -74c235 0 408 173 408 423v1c0 251 -173 424 -408 424c-236 0 -409 -173 -409 -424v-1c0 -250 173 -423 409 -423zM457 138c-82 0 -145 48 -145 137h61c0 -52 38 -82 84 -82c50 0 78 30 78 65v1c0 41 -30 64 -76 64h-27v55h27c46 0 76 22 76 62v1
c0 36 -28 66 -78 66c-46 0 -84 -30 -84 -82h-61c0 89 63 137 145 137c87 0 141 -51 141 -117v-1c0 -41 -28 -80 -78 -87v-14c50 -8 78 -46 78 -87v-1c0 -66 -54 -117 -141 -117z" />
    <glyph glyph-name="uni2779" unicode="&#x2779;" horiz-adv-x="909" 
d="M455 -74c235 0 408 173 408 423v1c0 251 -173 424 -408 424c-236 0 -409 -173 -409 -424v-1c0 -250 173 -423 409 -423zM532 150h-62v141h-186v84l161 175h87v-204h77v-55h-77v-141zM337 360v-14h133v149h-14z" />
    <glyph glyph-name="uni277A" unicode="&#x277a;" horiz-adv-x="909" 
d="M455 -74c235 0 408 173 408 423v1c0 251 -173 424 -408 424c-236 0 -409 -173 -409 -424v-1c0 -250 173 -423 409 -423zM454 138c-81 0 -138 49 -142 122h61c3 -41 37 -67 82 -67c49 0 79 31 79 80v1c0 50 -30 80 -78 80c-30 0 -54 -17 -65 -44h-67v240h271v-57h-215
v-137h14c20 32 48 47 87 47c67 0 117 -55 117 -128v-1c0 -78 -61 -136 -144 -136z" />
    <glyph glyph-name="uni277B" unicode="&#x277b;" horiz-adv-x="909" 
d="M455 -74c235 0 408 173 408 423v1c0 251 -173 424 -408 424c-236 0 -409 -173 -409 -424v-1c0 -250 173 -423 409 -423zM453 138c-91 0 -148 62 -148 190v1c0 148 49 233 161 233c78 0 126 -48 135 -117h-61c-7 42 -32 62 -73 62c-64 0 -100 -52 -100 -155h15
c19 30 49 51 92 51c72 0 127 -52 127 -130v-1c0 -78 -60 -134 -148 -134zM456 191c48 0 81 32 81 79v1c0 48 -33 81 -82 81c-48 0 -82 -33 -82 -81v-1c0 -48 35 -79 83 -79z" />
    <glyph glyph-name="uni277C" unicode="&#x277c;" horiz-adv-x="909" 
d="M455 -74c235 0 408 173 408 423v1c0 251 -173 424 -408 424c-236 0 -409 -173 -409 -424v-1c0 -250 173 -423 409 -423zM430 150h-70l180 328v14h-220v58h276v-87z" />
    <glyph glyph-name="uni277D" unicode="&#x277d;" horiz-adv-x="909" 
d="M455 -74c235 0 408 173 408 423v1c0 251 -173 424 -408 424c-236 0 -409 -173 -409 -424v-1c0 -250 173 -423 409 -423zM454 138c-88 0 -144 48 -144 111v1c0 43 27 85 76 93v14c-49 7 -76 50 -76 91v1c0 66 56 113 144 113c89 0 144 -47 144 -113v-1
c0 -41 -27 -84 -76 -91v-14c49 -8 76 -50 76 -93v-1c0 -63 -55 -111 -144 -111zM454 376c49 0 82 27 82 67v1c0 39 -30 67 -82 67s-82 -28 -82 -67v-1c0 -40 34 -67 82 -67zM454 189c52 0 82 29 82 65v1c0 44 -33 69 -82 69c-48 0 -82 -25 -82 -69v-1c0 -36 30 -65 82 -65z
" />
    <glyph glyph-name="uni277E" unicode="&#x277e;" horiz-adv-x="909" 
d="M455 -74c235 0 408 173 408 423v1c0 251 -173 424 -408 424c-236 0 -409 -173 -409 -424v-1c0 -250 173 -423 409 -423zM446 138c-78 0 -126 48 -135 117h60c7 -42 33 -62 74 -62c64 0 99 52 99 155h-14c-19 -30 -49 -51 -92 -51c-72 0 -127 52 -127 130v1
c0 78 60 134 148 134c91 0 148 -62 148 -190v-1c0 -148 -49 -233 -161 -233zM456 348c49 0 83 33 83 81v1c0 48 -35 80 -83 80s-82 -33 -82 -80v-1c0 -48 34 -81 82 -81z" />
    <glyph glyph-name="uni24EA" unicode="&#x24ea;" horiz-adv-x="909" 
d="M455 -74c-236 0 -409 173 -409 423v1c0 251 173 424 409 424c235 0 408 -173 408 -424v-1c0 -250 -173 -423 -408 -423zM455 -17c198 0 347 149 347 366v1c0 218 -149 367 -347 367c-199 0 -348 -149 -348 -367v-1c0 -217 149 -366 348 -366zM454 138
c-104 0 -164 78 -164 211v1c0 133 61 212 164 212c104 0 165 -79 165 -212v-1c0 -133 -60 -211 -165 -211zM454 199c63 0 100 55 100 150v1c0 96 -37 151 -100 151c-62 0 -98 -55 -98 -151v-1c0 -95 36 -150 98 -150z" />
    <glyph glyph-name="uni2460" unicode="&#x2460;" horiz-adv-x="909" 
d="M455 -74c-236 0 -409 173 -409 423v1c0 251 173 424 409 424c235 0 408 -173 408 -424v-1c0 -250 -173 -423 -408 -423zM455 -17c198 0 347 149 347 366v1c0 218 -149 367 -347 367c-199 0 -348 -149 -348 -367v-1c0 -217 149 -366 348 -366zM508 150h-63v314h-13
c-13 -66 -47 -94 -108 -94h-25v67h25c69 0 100 34 100 113h84v-400z" />
    <glyph glyph-name="uni2461" unicode="&#x2461;" horiz-adv-x="909" 
d="M455 -74c-236 0 -409 173 -409 423v1c0 251 173 424 409 424c235 0 408 -173 408 -424v-1c0 -250 -173 -423 -408 -423zM455 -17c198 0 347 149 347 366v1c0 218 -149 367 -347 367c-199 0 -348 -149 -348 -367v-1c0 -217 149 -366 348 -366zM597 150h-277v92l143 96
c51 34 70 63 70 98v1c0 42 -29 69 -75 69c-50 0 -85 -35 -85 -85h-63c0 82 57 141 147 141c86 0 140 -51 140 -125v-1c0 -56 -26 -96 -100 -144l-108 -71v-15h208v-56z" />
    <glyph glyph-name="uni2462" unicode="&#x2462;" horiz-adv-x="909" 
d="M455 -74c-236 0 -409 173 -409 423v1c0 251 173 424 409 424c235 0 408 -173 408 -424v-1c0 -250 -173 -423 -408 -423zM455 -17c198 0 347 149 347 366v1c0 218 -149 367 -347 367c-199 0 -348 -149 -348 -367v-1c0 -217 149 -366 348 -366zM457 138
c-82 0 -145 48 -145 137h61c0 -52 38 -82 84 -82c50 0 78 30 78 65v1c0 41 -30 64 -76 64h-27v55h27c46 0 76 22 76 62v1c0 36 -28 66 -78 66c-46 0 -84 -30 -84 -82h-61c0 89 63 137 145 137c87 0 141 -51 141 -117v-1c0 -41 -28 -80 -78 -87v-14c50 -8 78 -46 78 -87v-1
c0 -66 -54 -117 -141 -117z" />
    <glyph glyph-name="uni2463" unicode="&#x2463;" horiz-adv-x="909" 
d="M455 -74c-236 0 -409 173 -409 423v1c0 251 173 424 409 424c235 0 408 -173 408 -424v-1c0 -250 -173 -423 -408 -423zM455 -17c198 0 347 149 347 366v1c0 218 -149 367 -347 367c-199 0 -348 -149 -348 -367v-1c0 -217 149 -366 348 -366zM532 150h-62v141h-186v84
l161 175h87v-204h77v-55h-77v-141zM337 360v-14h133v149h-14z" />
    <glyph glyph-name="uni2464" unicode="&#x2464;" horiz-adv-x="909" 
d="M455 -74c-236 0 -409 173 -409 423v1c0 251 173 424 409 424c235 0 408 -173 408 -424v-1c0 -250 -173 -423 -408 -423zM455 -17c198 0 347 149 347 366v1c0 218 -149 367 -347 367c-199 0 -348 -149 -348 -367v-1c0 -217 149 -366 348 -366zM454 138
c-81 0 -138 49 -142 122h61c3 -41 37 -67 82 -67c49 0 79 31 79 80v1c0 50 -30 80 -78 80c-30 0 -54 -17 -65 -44h-67v240h271v-57h-215v-137h14c20 32 48 47 87 47c67 0 117 -55 117 -128v-1c0 -78 -61 -136 -144 -136z" />
    <glyph glyph-name="uni2465" unicode="&#x2465;" horiz-adv-x="909" 
d="M455 -74c-236 0 -409 173 -409 423v1c0 251 173 424 409 424c235 0 408 -173 408 -424v-1c0 -250 -173 -423 -408 -423zM455 -17c198 0 347 149 347 366v1c0 218 -149 367 -347 367c-199 0 -348 -149 -348 -367v-1c0 -217 149 -366 348 -366zM453 138
c-91 0 -148 62 -148 190v1c0 148 49 233 161 233c78 0 126 -48 135 -117h-61c-7 42 -32 62 -73 62c-64 0 -100 -52 -100 -155h15c19 30 49 51 92 51c72 0 127 -52 127 -130v-1c0 -78 -60 -134 -148 -134zM456 191c48 0 81 32 81 79v1c0 48 -33 81 -82 81
c-48 0 -82 -33 -82 -81v-1c0 -48 35 -79 83 -79z" />
    <glyph glyph-name="uni2466" unicode="&#x2466;" horiz-adv-x="909" 
d="M455 -74c-236 0 -409 173 -409 423v1c0 251 173 424 409 424c235 0 408 -173 408 -424v-1c0 -250 -173 -423 -408 -423zM455 -17c198 0 347 149 347 366v1c0 218 -149 367 -347 367c-199 0 -348 -149 -348 -367v-1c0 -217 149 -366 348 -366zM430 150h-70l180 328v14
h-220v58h276v-87z" />
    <glyph glyph-name="uni2467" unicode="&#x2467;" horiz-adv-x="909" 
d="M455 -74c-236 0 -409 173 -409 423v1c0 251 173 424 409 424c235 0 408 -173 408 -424v-1c0 -250 -173 -423 -408 -423zM455 -17c198 0 347 149 347 366v1c0 218 -149 367 -347 367c-199 0 -348 -149 -348 -367v-1c0 -217 149 -366 348 -366zM454 138
c-88 0 -144 48 -144 111v1c0 43 27 85 76 93v14c-49 7 -76 50 -76 91v1c0 66 56 113 144 113c89 0 144 -47 144 -113v-1c0 -41 -27 -84 -76 -91v-14c49 -8 76 -50 76 -93v-1c0 -63 -55 -111 -144 -111zM454 376c49 0 82 27 82 67v1c0 39 -30 67 -82 67s-82 -28 -82 -67v-1
c0 -40 34 -67 82 -67zM454 189c52 0 82 29 82 65v1c0 44 -33 69 -82 69c-48 0 -82 -25 -82 -69v-1c0 -36 30 -65 82 -65z" />
    <glyph glyph-name="uni2468" unicode="&#x2468;" horiz-adv-x="909" 
d="M455 -74c-236 0 -409 173 -409 423v1c0 251 173 424 409 424c235 0 408 -173 408 -424v-1c0 -250 -173 -423 -408 -423zM455 -17c198 0 347 149 347 366v1c0 218 -149 367 -347 367c-199 0 -348 -149 -348 -367v-1c0 -217 149 -366 348 -366zM446 138
c-78 0 -126 48 -135 117h60c7 -42 33 -62 74 -62c64 0 99 52 99 155h-14c-19 -30 -49 -51 -92 -51c-72 0 -127 52 -127 130v1c0 78 60 134 148 134c91 0 148 -62 148 -190v-1c0 -148 -49 -233 -161 -233zM456 348c49 0 83 33 83 81v1c0 48 -35 80 -83 80s-82 -33 -82 -80v-1
c0 -48 34 -81 82 -81z" />
    <glyph glyph-name="uni2080" unicode="&#x2080;" horiz-adv-x="468" 
d="M234 -100c-84 0 -140 41 -169 121c-13 36 -20 80 -20 134c0 56 7 98 20 134c29 79 85 121 169 121c85 0 141 -42 169 -121c13 -36 20 -78 20 -134c0 -53 -7 -98 -20 -134c-29 -80 -86 -121 -169 -121zM234 -34c47 0 80 25 98 76c11 28 15 67 15 113c0 45 -4 85 -14 113
c-18 51 -53 76 -99 76c-47 0 -81 -25 -98 -76c-10 -28 -15 -63 -15 -113c0 -45 4 -85 15 -113c18 -51 51 -76 98 -76z" />
    <glyph glyph-name="uni2081" unicode="&#x2081;" horiz-adv-x="331" 
d="M261 -90h-71v411h-11c-11 -88 -49 -121 -115 -121h-34v78h32c65 0 101 46 101 122h98v-490z" />
    <glyph glyph-name="uni2082" unicode="&#x2082;" horiz-adv-x="405" 
d="M364 -90h-316v105l158 119c59 45 84 81 84 126c0 24 -9 47 -21 60c-14 14 -38 24 -66 24c-60 0 -96 -39 -96 -103v-16h-73v18c0 100 66 167 169 167c49 0 94 -17 122 -45c24 -24 39 -61 39 -101c0 -70 -33 -120 -119 -182l-129 -95v-12h248v-65z" />
    <glyph glyph-name="uni2083" unicode="&#x2083;" horiz-adv-x="406" 
d="M202 -100c-104 0 -170 60 -170 156v8h72v-8c0 -59 38 -92 98 -92c30 0 54 10 68 25c13 13 22 32 22 54c0 23 -7 40 -21 53c-17 17 -44 27 -74 27h-26v66h26c31 0 59 9 75 26c13 12 20 32 20 52c0 22 -9 42 -22 54c-14 15 -38 25 -68 25c-60 0 -98 -34 -98 -100h-72
c0 104 66 164 170 164c52 0 98 -16 126 -45c22 -22 36 -53 36 -90c0 -34 -13 -62 -31 -80s-47 -31 -76 -34v-12c31 -3 57 -15 76 -33c20 -21 31 -47 31 -81c0 -37 -14 -68 -36 -90c-28 -29 -74 -45 -126 -45z" />
    <glyph glyph-name="uni2084" unicode="&#x2084;" horiz-adv-x="427" 
d="M322 148h85v-66h-85v-172h-71v172h-218v100l184 218h105v-252zM90 159v-11h161v192h-11z" />
    <glyph glyph-name="uni2085" unicode="&#x2085;" horiz-adv-x="405" 
d="M203 -100c-95 0 -162 62 -162 142h73c0 -41 37 -78 89 -78c28 0 51 9 68 26s27 43 27 72c0 28 -10 54 -26 71c-13 12 -35 24 -60 24c-36 0 -64 -18 -78 -49h-78v292h315v-67h-248v-173h11c20 37 57 57 102 57c37 0 69 -14 92 -37c28 -27 43 -68 43 -117
c0 -48 -17 -91 -43 -116c-28 -29 -73 -47 -125 -47z" />
    <glyph glyph-name="uni2086" unicode="&#x2086;" horiz-adv-x="428" 
d="M222 -100c-78 0 -133 41 -159 113c-12 32 -18 72 -18 115c0 66 8 119 23 162c29 79 86 120 169 120c91 0 154 -62 154 -149h-72c0 51 -35 85 -86 85c-80 0 -119 -69 -119 -210h11c20 50 62 81 122 81c42 0 79 -18 101 -40c26 -26 43 -67 43 -114c0 -46 -16 -87 -44 -115
c-31 -31 -74 -48 -125 -48zM223 -38c26 0 53 10 70 27c17 16 27 42 27 70s-10 53 -27 70c-16 17 -42 27 -70 27s-55 -11 -71 -27c-17 -16 -27 -42 -27 -70c0 -29 10 -52 27 -69c18 -18 42 -28 71 -28z" />
    <glyph glyph-name="uni2087" unicode="&#x2087;" horiz-adv-x="381" 
d="M149 -90h-79l223 412v11h-273v67h334v-103z" />
    <glyph glyph-name="uni2088" unicode="&#x2088;" horiz-adv-x="416" 
d="M209 -100c-56 0 -103 16 -131 45c-20 20 -36 52 -36 90c0 33 11 60 32 81c18 18 43 30 73 33v12c-26 3 -56 16 -74 34c-19 19 -31 47 -31 80c0 38 16 70 36 90c28 29 75 45 131 45s101 -16 130 -45c23 -23 35 -54 35 -90c0 -31 -10 -60 -30 -80c-18 -18 -47 -31 -74 -34
v-12c27 -2 57 -16 74 -33c18 -19 30 -48 30 -81c0 -36 -12 -67 -35 -90c-29 -29 -74 -45 -130 -45zM209 188c31 0 56 8 74 25c14 14 20 31 20 54c0 22 -8 43 -21 56c-15 15 -41 26 -73 26c-34 0 -57 -10 -74 -26c-14 -14 -22 -33 -22 -56c0 -22 8 -40 21 -54
c17 -16 43 -25 75 -25zM209 -39c32 0 58 11 73 26c14 14 21 36 21 56c0 22 -6 40 -20 55c-16 15 -42 25 -74 25c-34 0 -60 -10 -75 -25c-13 -14 -21 -33 -21 -55c0 -23 8 -41 22 -56c17 -16 40 -26 74 -26z" />
    <glyph glyph-name="uni2089" unicode="&#x2089;" horiz-adv-x="428" 
d="M191 -100c-91 0 -154 62 -154 149h72c0 -50 35 -85 85 -85c81 0 120 69 120 211h-11c-20 -51 -62 -82 -122 -82c-43 0 -79 18 -101 40c-26 26 -43 67 -43 114s16 87 44 115c30 30 74 48 125 48c77 0 132 -40 159 -113c12 -32 18 -72 18 -115c0 -65 -8 -119 -23 -162
c-29 -79 -86 -120 -169 -120zM205 154c28 0 54 10 71 27c17 18 27 43 27 70c0 29 -11 53 -27 69c-18 18 -42 28 -71 28c-27 0 -53 -10 -70 -27c-17 -16 -27 -42 -27 -70s9 -52 27 -70c17 -18 43 -27 70 -27z" />
    <glyph glyph-name="zero.dnom" horiz-adv-x="409" 
d="M204 -12c-104 0 -164 78 -164 211v1c0 133 61 212 164 212c104 0 165 -79 165 -212v-1c0 -133 -60 -211 -165 -211zM204 49c63 0 100 55 100 150v1c0 96 -37 151 -100 151c-62 0 -98 -55 -98 -151v-1c0 -95 36 -150 98 -150z" />
    <glyph glyph-name="one.dnom" horiz-adv-x="276" 
d="M224 0h-63v314h-13c-13 -66 -47 -94 -108 -94h-25v67h25c69 0 100 34 100 113h84v-400z" />
    <glyph glyph-name="two.dnom" horiz-adv-x="342" 
d="M312 0h-277v92l143 96c51 34 70 63 70 98v1c0 42 -29 69 -75 69c-50 0 -85 -35 -85 -85h-63c0 82 57 141 147 141c86 0 140 -51 140 -125v-1c0 -56 -26 -96 -100 -144l-108 -71v-15h208v-56z" />
    <glyph glyph-name="three.dnom" horiz-adv-x="361" 
d="M180 -11c-82 0 -145 48 -145 137h61c0 -52 38 -82 84 -82c50 0 78 30 78 65v1c0 41 -30 64 -76 64h-27v55h27c46 0 76 22 76 62v1c0 36 -28 66 -78 66c-46 0 -84 -30 -84 -82h-61c0 89 63 137 145 137c87 0 141 -51 141 -117v-1c0 -41 -28 -80 -78 -87v-14
c50 -8 78 -46 78 -87v-1c0 -66 -54 -117 -141 -117z" />
    <glyph glyph-name="four.dnom" horiz-adv-x="370" 
d="M273 0h-62v141h-186v84l161 175h87v-204h77v-55h-77v-141zM78 210v-14h133v149h-14z" />
    <glyph glyph-name="five.dnom" horiz-adv-x="366" 
d="M187 -12c-81 0 -138 49 -142 122h61c3 -41 37 -67 82 -67c49 0 79 31 79 80v1c0 50 -30 80 -78 80c-30 0 -54 -17 -65 -44h-67v240h271v-57h-215v-137h14c20 32 48 47 87 47c67 0 117 -55 117 -128v-1c0 -78 -61 -136 -144 -136z" />
    <glyph glyph-name="six.dnom" horiz-adv-x="374" 
d="M188 -12c-91 0 -148 62 -148 190v1c0 148 49 233 161 233c78 0 126 -48 135 -117h-61c-7 42 -32 62 -73 62c-64 0 -100 -52 -100 -155h15c19 30 49 51 92 51c72 0 127 -52 127 -130v-1c0 -78 -60 -134 -148 -134zM191 41c48 0 81 32 81 79v1c0 48 -33 81 -82 81
c-48 0 -82 -33 -82 -81v-1c0 -48 35 -79 83 -79z" />
    <glyph glyph-name="seven.dnom" horiz-adv-x="316" 
d="M130 0h-70l180 328v14h-220v58h276v-87z" />
    <glyph glyph-name="eight.dnom" horiz-adv-x="368" 
d="M184 -12c-88 0 -144 48 -144 111v1c0 43 27 85 76 93v14c-49 7 -76 50 -76 91v1c0 66 56 113 144 113c89 0 144 -47 144 -113v-1c0 -41 -27 -84 -76 -91v-14c49 -8 76 -50 76 -93v-1c0 -63 -55 -111 -144 -111zM184 226c49 0 82 27 82 67v1c0 39 -30 67 -82 67
s-82 -28 -82 -67v-1c0 -40 34 -67 82 -67zM184 39c52 0 82 29 82 65v1c0 44 -33 69 -82 69c-48 0 -82 -25 -82 -69v-1c0 -36 30 -65 82 -65z" />
    <glyph glyph-name="nine.dnom" horiz-adv-x="374" 
d="M173 -12c-78 0 -126 48 -135 117h60c7 -42 33 -62 74 -62c64 0 99 52 99 155h-14c-19 -30 -49 -51 -92 -51c-72 0 -127 52 -127 130v1c0 78 60 134 148 134c91 0 148 -62 148 -190v-1c0 -148 -49 -233 -161 -233zM183 198c49 0 83 33 83 81v1c0 48 -35 80 -83 80
s-82 -33 -82 -80v-1c0 -48 34 -81 82 -81z" />
    <glyph glyph-name="zero.numr" horiz-adv-x="409" 
d="M204 288c-104 0 -164 78 -164 211v1c0 133 61 212 164 212c104 0 165 -79 165 -212v-1c0 -133 -60 -211 -165 -211zM204 349c63 0 100 55 100 150v1c0 96 -37 151 -100 151c-62 0 -98 -55 -98 -151v-1c0 -95 36 -150 98 -150z" />
    <glyph glyph-name="one.numr" horiz-adv-x="276" 
d="M224 300h-63v314h-13c-13 -66 -47 -94 -108 -94h-25v67h25c69 0 100 34 100 113h84v-400z" />
    <glyph glyph-name="two.numr" horiz-adv-x="342" 
d="M312 300h-277v92l143 96c51 34 70 63 70 98v1c0 42 -29 69 -75 69c-50 0 -85 -35 -85 -85h-63c0 82 57 141 147 141c86 0 140 -51 140 -125v-1c0 -56 -26 -96 -100 -144l-108 -71v-15h208v-56z" />
    <glyph glyph-name="three.numr" horiz-adv-x="361" 
d="M180 288c-82 0 -145 48 -145 137h61c0 -52 38 -82 84 -82c50 0 78 30 78 65v1c0 41 -30 64 -76 64h-27v55h27c46 0 76 22 76 62v1c0 36 -28 66 -78 66c-46 0 -84 -30 -84 -82h-61c0 89 63 137 145 137c87 0 141 -51 141 -117v-1c0 -41 -28 -80 -78 -87v-14
c50 -8 78 -46 78 -87v-1c0 -66 -54 -117 -141 -117z" />
    <glyph glyph-name="four.numr" horiz-adv-x="370" 
d="M273 300h-62v141h-186v84l161 175h87v-204h77v-55h-77v-141zM78 510v-14h133v149h-14z" />
    <glyph glyph-name="five.numr" horiz-adv-x="366" 
d="M187 288c-81 0 -138 49 -142 122h61c3 -41 37 -67 82 -67c49 0 79 31 79 80v1c0 50 -30 80 -78 80c-30 0 -54 -17 -65 -44h-67v240h271v-57h-215v-137h14c20 32 48 47 87 47c67 0 117 -55 117 -128v-1c0 -78 -61 -136 -144 -136z" />
    <glyph glyph-name="six.numr" horiz-adv-x="374" 
d="M188 288c-91 0 -148 62 -148 190v1c0 148 49 233 161 233c78 0 126 -48 135 -117h-61c-7 42 -32 62 -73 62c-64 0 -100 -52 -100 -155h15c19 30 49 51 92 51c72 0 127 -52 127 -130v-1c0 -78 -60 -134 -148 -134zM191 341c48 0 81 32 81 79v1c0 48 -33 81 -82 81
c-48 0 -82 -33 -82 -81v-1c0 -48 35 -79 83 -79z" />
    <glyph glyph-name="seven.numr" horiz-adv-x="316" 
d="M130 300h-70l180 328v14h-220v58h276v-87z" />
    <glyph glyph-name="eight.numr" horiz-adv-x="368" 
d="M184 288c-88 0 -144 48 -144 111v1c0 43 27 85 76 93v14c-49 7 -76 50 -76 91v1c0 66 56 113 144 113c89 0 144 -47 144 -113v-1c0 -41 -27 -84 -76 -91v-14c49 -8 76 -50 76 -93v-1c0 -63 -55 -111 -144 -111zM184 526c49 0 82 27 82 67v1c0 39 -30 67 -82 67
s-82 -28 -82 -67v-1c0 -40 34 -67 82 -67zM184 339c52 0 82 29 82 65v1c0 44 -33 69 -82 69c-48 0 -82 -25 -82 -69v-1c0 -36 30 -65 82 -65z" />
    <glyph glyph-name="nine.numr" horiz-adv-x="374" 
d="M173 288c-78 0 -126 48 -135 117h60c7 -42 33 -62 74 -62c64 0 99 52 99 155h-14c-19 -30 -49 -51 -92 -51c-72 0 -127 52 -127 130v1c0 78 60 134 148 134c91 0 148 -62 148 -190v-1c0 -148 -49 -233 -161 -233zM183 498c49 0 83 33 83 81v1c0 48 -35 80 -83 80
s-82 -33 -82 -80v-1c0 -48 34 -81 82 -81z" />
    <glyph glyph-name="uni2070" unicode="&#x2070;" horiz-adv-x="468" 
d="M234 290c-84 0 -140 41 -169 121c-13 36 -20 80 -20 134c0 56 7 98 20 134c29 79 85 121 169 121c85 0 141 -42 169 -121c13 -36 20 -78 20 -134c0 -53 -7 -98 -20 -134c-29 -80 -86 -121 -169 -121zM234 356c47 0 80 25 98 76c11 28 15 67 15 113c0 45 -4 85 -14 113
c-18 51 -53 76 -99 76c-47 0 -81 -25 -98 -76c-10 -28 -15 -63 -15 -113c0 -45 4 -85 15 -113c18 -51 51 -76 98 -76z" />
    <glyph glyph-name="uni00B9" unicode="&#xb9;" horiz-adv-x="331" 
d="M261 300h-71v411h-11c-11 -88 -49 -121 -115 -121h-34v78h32c65 0 101 46 101 122h98v-490z" />
    <glyph glyph-name="uni00B2" unicode="&#xb2;" horiz-adv-x="405" 
d="M364 300h-316v105l158 119c59 45 84 81 84 126c0 24 -9 47 -21 60c-14 14 -38 24 -66 24c-60 0 -96 -39 -96 -103v-16h-73v18c0 100 66 167 169 167c49 0 94 -17 122 -45c24 -24 39 -61 39 -101c0 -70 -33 -120 -119 -182l-129 -95v-12h248v-65z" />
    <glyph glyph-name="uni00B3" unicode="&#xb3;" horiz-adv-x="406" 
d="M202 290c-104 0 -170 60 -170 156v8h72v-8c0 -58 38 -92 98 -92c30 0 54 10 68 25c13 13 22 32 22 54c0 23 -7 40 -21 53c-17 17 -44 27 -74 27h-26v66h26c31 0 59 9 75 26c13 12 20 32 20 52c0 22 -9 42 -22 54c-14 15 -38 25 -68 25c-60 0 -98 -34 -98 -100h-72
c0 104 66 164 170 164c52 0 98 -16 126 -45c22 -22 36 -53 36 -90c0 -34 -13 -62 -31 -80s-47 -31 -76 -34v-12c31 -3 57 -15 76 -33c20 -21 31 -47 31 -81c0 -37 -14 -68 -36 -90c-28 -29 -74 -45 -126 -45z" />
    <glyph glyph-name="uni2074" unicode="&#x2074;" horiz-adv-x="427" 
d="M322 538h85v-66h-85v-172h-71v172h-218v100l184 218h105v-252zM90 549v-11h161v192h-11z" />
    </font>
</defs>
</svg>
